FontWithASyntaxHighlighter-BlackWideItalic.ufo
<glyph name="exclam" format="2">
  <advance width="1555"/>
  <unicode hex="0021"/>
  <outline>
    <contour>
      <point x="937" y="643" type="line"/>
      <point x="1127" y="1460" type="line"/>
      <point x="788" y="1460" type="line"/>
      <point x="660" y="643" type="line"/>
    </contour>
    <contour>
      <point x="674" y="-27" type="curve" smooth="yes"/>
      <point x="790" y="-27"/>
      <point x="895" y="45"/>
      <point x="919" y="169" type="curve" smooth="yes"/>
      <point x="944" y="294"/>
      <point x="857" y="374"/>
      <point x="741" y="374" type="curve" smooth="yes"/>
      <point x="623" y="374"/>
      <point x="518" y="305"/>
      <point x="494" y="180" type="curve" smooth="yes"/>
      <point x="470" y="55"/>
      <point x="556" y="-27"/>
    </contour>
  </outline>
</glyph>
<glyph name="equal" format="2">
  <advance width="1555"/>
  <unicode hex="003D"/>
  <outline>
    <contour>
      <point x="277" y="831" type="line"/>
      <point x="1392" y="831" type="line"/>
      <point x="1444" y="1102" type="line"/>
      <point x="329" y="1102" type="line"/>
    </contour>
    <contour>
      <point x="162" y="244" type="line"/>
      <point x="1277" y="244" type="line"/>
      <point x="1330" y="515" type="line"/>
      <point x="215" y="515" type="line"/>
    </contour>
  </outline>
</glyph>
<glyph name="greater" format="2">
  <advance width="1555"/>
  <unicode hex="003E"/>
  <outline>
    <contour>
      <point x="224" y="10" type="line"/>
      <point x="1369" y="561" type="line"/>
      <point x="1415" y="796" type="line"/>
      <point x="484" y="1347" type="line"/>
      <point x="312" y="1117" type="line"/>
      <point x="1028" y="694" type="line"/>
      <point x="1026" y="683" type="line"/>
      <point x="146" y="260" type="line"/>
    </contour>
  </outline>
</glyph>
<glyph name="question" format="2">
  <advance width="1555"/>
  <unicode hex="003F"/>
  <outline>
    <contour>
      <point x="968" y="774" type="line"/>
      <point x="844" y="707" type="line"/>
      <point x="1049" y="726"/>
      <point x="1292" y="794"/>
      <point x="1350" y="1090" type="curve" smooth="yes"/>
      <point x="1403" y="1361"/>
      <point x="1220" y="1483"/>
      <point x="934" y="1483" type="curve" smooth="yes"/>
      <point x="592" y="1483"/>
      <point x="401" y="1317"/>
      <point x="363" y="1034" type="curve"/>
      <point x="652" y="1003" type="line"/>
      <point x="692" y="1165"/>
      <point x="768" y="1227"/>
      <point x="891" y="1227" type="curve" smooth="yes"/>
      <point x="995" y="1227"/>
      <point x="1045" y="1183"/>
      <point x="1022" y="1067" type="curve" smooth="yes"/>
      <point x="993" y="916"/>
      <point x="885" y="867"/>
      <point x="688" y="819" type="curve"/>
      <point x="655" y="613" type="line"/>
      <point x="932" y="613" type="line"/>
    </contour>
    <contour>
      <point x="674" y="-27" type="curve" smooth="yes"/>
      <point x="790" y="-27"/>
      <point x="895" y="45"/>
      <point x="919" y="169" type="curve" smooth="yes"/>
      <point x="944" y="294"/>
      <point x="857" y="374"/>
      <point x="741" y="374" type="curve" smooth="yes"/>
      <point x="623" y="374"/>
      <point x="518" y="305"/>
      <point x="494" y="180" type="curve" smooth="yes"/>
      <point x="470" y="55"/>
      <point x="556" y="-27"/>
    </contour>
  </outline>
</glyph>
<glyph name="J" format="2">
  <advance width="1555"/>
  <unicode hex="004A"/>
  <outline>
    <contour>
      <point x="517" y="0" type="line"/>
      <point x="802" y="0" type="line"/>
      <point x="1399" y="448" type="line"/>
      <point x="1596" y="1460" type="line"/>
      <point x="1272" y="1460" type="line"/>
      <point x="1101" y="583" type="line"/>
      <point x="666" y="242" type="line"/>
      <point x="747" y="242" type="line"/>
      <point x="423" y="563" type="line"/>
      <point x="457" y="738" type="line"/>
      <point x="132" y="738" type="line"/>
      <point x="76" y="448" type="line"/>
    </contour>
    <contour>
      <point x="402" y="1184" type="line"/>
      <point x="1395" y="1184" type="line"/>
      <point x="1449" y="1460" type="line"/>
      <point x="486" y="1460" type="line"/>
    </contour>
  </outline>
</glyph>
<glyph name="L" format="2">
  <advance width="1555"/>
  <unicode hex="004C"/>
  <outline>
    <contour>
      <point x="151" y="0" type="line"/>
      <point x="480" y="0" type="line"/>
      <point x="764" y="1460" type="line"/>
      <point x="435" y="1460" type="line"/>
    </contour>
    <contour>
      <point x="311" y="0" type="line"/>
      <point x="1230" y="0" type="line"/>
      <point x="1313" y="271" type="line"/>
      <point x="364" y="271" type="line"/>
    </contour>
  </outline>
</glyph>
<glyph name="T" format="2">
  <advance width="1555"/>
  <unicode hex="0054"/>
  <outline>
    <contour>
      <point x="510" y="0" type="line"/>
      <point x="840" y="0" type="line"/>
      <point x="1124" y="1460" type="line"/>
      <point x="794" y="1460" type="line"/>
    </contour>
    <contour>
      <point x="279" y="1189" type="line"/>
      <point x="1525" y="1189" type="line"/>
      <point x="1558" y="1460" type="line"/>
      <point x="352" y="1460" type="line"/>
    </contour>
  </outline>
</glyph>
<glyph name="U" format="2">
  <advance width="1555"/>
  <unicode hex="0055"/>
  <outline>
    <contour>
      <point x="300" y="0" type="line"/>
      <point x="1054" y="0" type="line"/>
      <point x="1348" y="295" type="line"/>
      <point x="1575" y="1460" type="line"/>
      <point x="1240" y="1460" type="line"/>
      <point x="1033" y="396" type="line"/>
      <point x="909" y="271" type="line"/>
      <point x="541" y="271" type="line"/>
      <point x="465" y="396" type="line"/>
      <point x="672" y="1460" type="line"/>
      <point x="337" y="1460" type="line"/>
      <point x="112" y="305" type="line"/>
    </contour>
  </outline>
</glyph>
<glyph name="V" format="2">
  <advance width="1555"/>
  <unicode hex="0056"/>
  <outline>
    <contour>
      <point x="469" y="0" type="line"/>
      <point x="875" y="0" type="line"/>
      <point x="1424" y="707" type="line"/>
      <point x="1571" y="1460" type="line"/>
      <point x="1244" y="1460" type="line"/>
      <point x="1122" y="831" type="line"/>
      <point x="678" y="199" type="line"/>
      <point x="744" y="199" type="line"/>
      <point x="542" y="811" type="line"/>
      <point x="668" y="1460" type="line"/>
      <point x="341" y="1460" type="line"/>
      <point x="194" y="707" type="line"/>
    </contour>
  </outline>
</glyph>
<glyph name="bracketright" format="2">
  <advance width="1555"/>
  <unicode hex="005D"/>
  <outline>
    <contour>
      <point x="948" y="-400" type="line"/>
      <point x="1337" y="1602" type="line"/>
      <point x="470" y="1602" type="line"/>
      <point x="424" y="1362" type="line"/>
      <point x="1026" y="1362" type="line"/>
      <point x="989" y="1407" type="line"/>
      <point x="676" y="-205" type="line"/>
      <point x="730" y="-160" type="line"/>
      <point x="128" y="-160" type="line"/>
      <point x="81" y="-400" type="line"/>
    </contour>
  </outline>
</glyph>
<glyph name="underscore" format="2">
  <advance width="1555"/>
  <unicode hex="005F"/>
  <outline>
    <contour>
      <point x="-175" y="-360" type="line"/>
      <point x="1380" y="-360" type="line"/>
      <point x="1405" y="-230" type="line"/>
      <point x="-150" y="-230" type="line"/>
    </contour>
  </outline>
</glyph>
<glyph name="grave" format="2">
  <advance width="1555"/>
  <unicode hex="0060"/>
  <outline>
    <contour>
      <point x="753" y="1275" type="line"/>
      <point x="1032" y="1275" type="line"/>
      <point x="886" y="1643" type="line"/>
      <point x="533" y="1643" type="line"/>
    </contour>
  </outline>
</glyph>
<glyph name="f" format="2">
  <advance width="1555"/>
  <unicode hex="0066"/>
  <outline>
    <contour>
      <point x="461" y="-1" type="line"/>
      <point x="786" y="-1" type="line"/>
      <point x="994" y="1068" type="line"/>
      <point x="1139" y="1200" type="line"/>
      <point x="1598" y="1200" type="line"/>
      <point x="1623" y="1481" type="line"/>
      <point x="1024" y="1481" type="line"/>
      <point x="687" y="1162" type="line"/>
    </contour>
    <contour>
      <point x="201" y="695" type="line"/>
      <point x="1443" y="695" type="line"/>
      <point x="1493" y="953" type="line"/>
      <point x="251" y="953" type="line"/>
    </contour>
  </outline>
</glyph>
<glyph name="h" format="2">
  <advance width="1555"/>
  <unicode hex="0068"/>
  <outline>
    <contour>
      <point x="996" y="0" type="line"/>
      <point x="1321" y="0" type="line"/>
      <point x="1484" y="820" type="line"/>
      <point x="1165" y="1106" type="line"/>
      <point x="383" y="928" type="line"/>
      <point x="348" y="747" type="line"/>
      <point x="986" y="823" type="line"/>
      <point x="1140" y="740" type="line"/>
    </contour>
    <contour>
      <point x="19" y="0" type="line"/>
      <point x="344" y="0" type="line"/>
      <point x="641" y="1530" type="line"/>
      <point x="305" y="1470" type="line"/>
    </contour>
  </outline>
</glyph>
<glyph name="t" format="2">
  <advance width="1555"/>
  <unicode hex="0074"/>
  <outline>
    <contour>
      <point x="582" y="-1" type="line"/>
      <point x="1215" y="-1" type="line"/>
      <point x="1269" y="280" type="line"/>
      <point x="806" y="280" type="line"/>
      <point x="716" y="432" type="line"/>
      <point x="893" y="1341" type="line"/>
      <point x="556" y="1281" type="line"/>
      <point x="369" y="318" type="line"/>
    </contour>
    <contour>
      <point x="142" y="695" type="line"/>
      <point x="1350" y="695" type="line"/>
      <point x="1400" y="953" type="line"/>
      <point x="192" y="953" type="line"/>
    </contour>
  </outline>
</glyph>
<glyph name="v" format="2">
  <advance width="1555"/>
  <unicode hex="0076"/>
  <outline>
    <contour>
      <point x="507" y="0" type="line"/>
      <point x="837" y="0" type="line"/>
      <point x="1443" y="639" type="line"/>
      <point x="1529" y="1082" type="line"/>
      <point x="1209" y="1082" type="line"/>
      <point x="1138" y="713" type="line"/>
      <point x="657" y="176" type="line"/>
      <point x="741" y="176" type="line"/>
      <point x="485" y="693" type="line"/>
      <point x="560" y="1082" type="line"/>
      <point x="235" y="1082" type="line"/>
      <point x="149" y="639" type="line"/>
    </contour>
  </outline>
</glyph>
<glyph name="z" format="2">
  <advance width="1555"/>
  <unicode hex="007A"/>
  <outline>
    <contour>
      <point x="128" y="0" type="line"/>
      <point x="1265" y="0" type="line"/>
      <point x="1347" y="267" type="line"/>
      <point x="348" y="267" type="line"/>
      <point x="421" y="144" type="line"/>
      <point x="1421" y="867" type="line"/>
      <point x="1382" y="1082" type="line"/>
      <point x="281" y="1082" type="line"/>
      <point x="200" y="816" type="line"/>
      <point x="1173" y="816" type="line"/>
      <point x="1011" y="858" type="line"/>
      <point x="92" y="227" type="line"/>
    </contour>
  </outline>
</glyph>
<glyph name="exclamdown" format="2">
  <advance width="1555"/>
  <unicode hex="00A1"/>
  <outline>
    <contour>
      <point x="618" y="438" type="line"/>
      <point x="428" y="-379" type="line"/>
      <point x="767" y="-379" type="line"/>
      <point x="895" y="438" type="line"/>
    </contour>
    <contour>
      <point x="881" y="1108" type="curve" smooth="yes"/>
      <point x="765" y="1108"/>
      <point x="660" y="1036"/>
      <point x="636" y="912" type="curve" smooth="yes"/>
      <point x="611" y="787"/>
      <point x="698" y="707"/>
      <point x="814" y="707" type="curve" smooth="yes"/>
      <point x="932" y="707"/>
      <point x="1037" y="776"/>
      <point x="1061" y="901" type="curve" smooth="yes"/>
      <point x="1085" y="1026"/>
      <point x="999" y="1108"/>
    </contour>
  </outline>
</glyph>
<glyph name="currency" format="2">
  <advance width="1555"/>
  <unicode hex="00A4"/>
  <outline>
    <contour>
      <point x="726" y="226" type="curve" smooth="yes"/>
      <point x="1040" y="226"/>
      <point x="1282" y="397"/>
      <point x="1334" y="663" type="curve" smooth="yes"/>
      <point x="1386" y="929"/>
      <point x="1194" y="1119"/>
      <point x="880" y="1119" type="curve" smooth="yes"/>
      <point x="566" y="1119"/>
      <point x="323" y="949"/>
      <point x="272" y="683" type="curve" smooth="yes"/>
      <point x="220" y="417"/>
      <point x="412" y="226"/>
    </contour>
    <contour>
      <point x="762" y="461" type="curve" smooth="yes"/>
      <point x="616" y="461"/>
      <point x="543" y="540"/>
      <point x="569" y="673" type="curve" smooth="yes"/>
      <point x="595" y="806"/>
      <point x="698" y="884"/>
      <point x="844" y="884" type="curve" smooth="yes"/>
      <point x="990" y="884"/>
      <point x="1063" y="806"/>
      <point x="1037" y="673" type="curve" smooth="yes"/>
      <point x="1011" y="540"/>
      <point x="908" y="461"/>
    </contour>
    <contour>
      <point x="951" y="342" type="line"/>
      <point x="1128" y="118" type="line"/>
      <point x="1384" y="325" type="line"/>
      <point x="1192" y="537" type="line"/>
    </contour>
    <contour>
      <point x="1246" y="809" type="line"/>
      <point x="1519" y="1020" type="line"/>
      <point x="1344" y="1227" type="line"/>
      <point x="1081" y="1004" type="line"/>
    </contour>
    <contour>
      <point x="221" y="1020" type="line"/>
      <point x="422" y="796" type="line"/>
      <point x="665" y="992" type="line"/>
      <point x="478" y="1227" type="line"/>
    </contour>
    <contour>
      <point x="262" y="118" type="line"/>
      <point x="523" y="340" type="line"/>
      <point x="358" y="535" type="line"/>
      <point x="86" y="325" type="line"/>
    </contour>
  </outline>
</glyph>
<glyph name="brokenbar" format="2">
  <advance width="1555"/>
  <unicode hex="00A6"/>
  <outline>
    <contour>
      <point x="979" y="733" type="line"/>
      <point x="1148" y="1602" type="line"/>
      <point x="818" y="1602" type="line"/>
      <point x="649" y="733" type="line"/>
    </contour>
    <contour>
      <point x="759" y="-400" type="line"/>
      <point x="928" y="469" type="line"/>
      <point x="598" y="469" type="line"/>
      <point x="429" y="-400" type="line"/>
    </contour>
  </outline>
</glyph>
<glyph name="section" format="2">
  <advance width="1555"/>
  <unicode hex="00A7"/>
  <outline>
    <contour>
      <point x="459" y="906" type="curve"/>
      <point x="651" y="752" type="line"/>
      <point x="555" y="739"/>
      <point x="481" y="684"/>
      <point x="466" y="607" type="curve" smooth="yes"/>
      <point x="444" y="494"/>
      <point x="575" y="459"/>
      <point x="843" y="420" type="curve" smooth="yes"/>
      <point x="1175" y="372"/>
      <point x="1386" y="269"/>
      <point x="1335" y="6" type="curve" smooth="yes"/>
      <point x="1282" y="-265"/>
      <point x="1027" y="-424"/>
      <point x="588" y="-424" type="curve" smooth="yes"/>
      <point x="218" y="-424"/>
      <point x="-71" y="-300"/>
      <point x="-53" y="9" type="curve"/>
      <point x="252" y="58" type="line"/>
      <point x="282" y="-110"/>
      <point x="442" y="-167"/>
      <point x="657" y="-167" type="curve" smooth="yes"/>
      <point x="869" y="-167"/>
      <point x="982" y="-105"/>
      <point x="1002" y="2" type="curve" smooth="yes"/>
      <point x="1024" y="114"/>
      <point x="920" y="141"/>
      <point x="575" y="194" type="curve" smooth="yes"/>
      <point x="280" y="238"/>
      <point x="95" y="365"/>
      <point x="139" y="592" type="curve" smooth="yes"/>
      <point x="169" y="745"/>
      <point x="279" y="854"/>
    </contour>
    <contour>
      <point x="1211" y="182" type="curve"/>
      <point x="971" y="328" type="line"/>
      <point x="1064" y="352"/>
      <point x="1119" y="408"/>
      <point x="1132" y="475" type="curve" smooth="yes"/>
      <point x="1153" y="580"/>
      <point x="1049" y="607"/>
      <point x="703" y="660" type="curve" smooth="yes"/>
      <point x="409" y="704"/>
      <point x="223" y="826"/>
      <point x="271" y="1076" type="curve" smooth="yes"/>
      <point x="323" y="1341"/>
      <point x="563" y="1483"/>
      <point x="995" y="1483" type="curve" smooth="yes"/>
      <point x="1388" y="1483"/>
      <point x="1569" y="1337"/>
      <point x="1544" y="1054" type="curve"/>
      <point x="1241" y="1023" type="line"/>
      <point x="1232" y="1195"/>
      <point x="1122" y="1237"/>
      <point x="913" y="1237" type="curve" smooth="yes"/>
      <point x="753" y="1237"/>
      <point x="620" y="1210"/>
      <point x="596" y="1087" type="curve" smooth="yes"/>
      <point x="572" y="960"/>
      <point x="704" y="924"/>
      <point x="972" y="885" type="curve" smooth="yes"/>
      <point x="1304" y="837"/>
      <point x="1514" y="730"/>
      <point x="1466" y="484" type="curve" smooth="yes"/>
      <point x="1440" y="348"/>
      <point x="1353" y="252"/>
    </contour>
  </outline>
</glyph>
<glyph name="dieresis" format="2">
  <advance width="1555"/>
  <unicode hex="00A8"/>
  <outline>
    <contour>
      <point x="575" y="1231" type="line"/>
      <point x="828" y="1441" type="line"/>
      <point x="656" y="1650" type="line"/>
      <point x="402" y="1441" type="line"/>
    </contour>
    <contour>
      <point x="1248" y="1231" type="line"/>
      <point x="1501" y="1441" type="line"/>
      <point x="1329" y="1650" type="line"/>
      <point x="1075" y="1441" type="line"/>
    </contour>
  </outline>
</glyph>
<glyph name="logicalnot" format="2">
  <advance width="1555"/>
  <unicode hex="00AC"/>
  <outline>
    <contour>
      <point x="237" y="627" type="line"/>
      <point x="1352" y="627" type="line"/>
      <point x="1405" y="898" type="line"/>
      <point x="290" y="898" type="line"/>
    </contour>
    <contour>
      <point x="1114" y="898" type="line"/>
      <point x="991" y="265" type="line"/>
      <point x="1282" y="265" type="line"/>
      <point x="1405" y="898" type="line"/>
    </contour>
  </outline>
</glyph>
<glyph name="softhyphen" format="2">
  <advance width="1555"/>
  <unicode hex="00AD"/>
  <outline>
    <contour>
      <point x="219" y="537" type="line"/>
      <point x="1334" y="537" type="line"/>
      <point x="1387" y="808" type="line"/>
      <point x="272" y="808" type="line"/>
    </contour>
  </outline>
</glyph>
<glyph name="plusminus" format="2">
  <advance width="1555"/>
  <unicode hex="00B1"/>
  <outline>
    <contour>
      <point x="290" y="901" type="line"/>
      <point x="1405" y="901" type="line"/>
      <point x="1458" y="1172" type="line"/>
      <point x="343" y="1172" type="line"/>
    </contour>
    <contour>
      <point x="811" y="1460" type="line"/>
      <point x="646" y="613" type="line"/>
      <point x="937" y="613" type="line"/>
      <point x="1102" y="1460" type="line"/>
    </contour>
    <contour>
      <point x="137" y="115" type="line"/>
      <point x="1252" y="115" type="line"/>
      <point x="1305" y="386" type="line"/>
      <point x="190" y="386" type="line"/>
    </contour>
  </outline>
</glyph>
<glyph name="cedilla" format="2">
  <advance width="1555"/>
  <unicode hex="00B8"/>
  <outline>
    <contour>
      <point x="393" y="-687" type="line"/>
      <point x="587" y="-687" type="line"/>
      <point x="859" y="-534" type="line"/>
      <point x="911" y="-270" type="line"/>
      <point x="694" y="-139" type="line"/>
      <point x="665" y="-139" type="line"/>
      <point x="708" y="-200" type="line"/>
      <point x="756" y="48" type="line"/>
      <point x="576" y="48" type="line"/>
      <point x="508" y="-305" type="line"/>
      <point x="594" y="-305" type="line"/>
      <point x="708" y="-370" type="line"/>
      <point x="696" y="-434" type="line"/>
      <point x="556" y="-499" type="line"/>
      <point x="430" y="-499" type="line"/>
    </contour>
  </outline>
</glyph>
<glyph name="guillemetright" format="2">
  <advance width="1555"/>
  <unicode hex="00BB"/>
  <outline>
    <contour>
      <point x="841" y="1032" type="line"/>
      <point x="1081" y="410" type="line"/>
      <point x="1366" y="543" type="line"/>
      <point x="1172" y="1058" type="line"/>
    </contour>
    <contour>
      <point x="971" y="24" type="line"/>
      <point x="1366" y="543" type="line"/>
      <point x="1129" y="668" type="line"/>
      <point x="653" y="69" type="line"/>
    </contour>
    <contour>
      <point x="221" y="1032" type="line"/>
      <point x="461" y="410" type="line"/>
      <point x="746" y="543" type="line"/>
      <point x="552" y="1058" type="line"/>
    </contour>
    <contour>
      <point x="351" y="24" type="line"/>
      <point x="746" y="543" type="line"/>
      <point x="509" y="668" type="line"/>
      <point x="33" y="69" type="line"/>
    </contour>
  </outline>
</glyph>
<glyph name="threequarters" format="2">
  <advance width="1555"/>
  <unicode hex="00BE"/>
  <outline>
    <contour>
      <point x="572" y="1469" type="curve" smooth="yes"/>
      <point x="394" y="1469"/>
      <point x="308" y="1401"/>
      <point x="290" y="1290" type="curve"/>
      <point x="429" y="1275" type="line"/>
      <point x="449" y="1328"/>
      <point x="487" y="1347"/>
      <point x="549" y="1347" type="curve" smooth="yes"/>
      <point x="613" y="1347"/>
      <point x="639" y="1327"/>
      <point x="633" y="1294" type="curve" smooth="yes"/>
      <point x="624" y="1251"/>
      <point x="591" y="1225"/>
      <point x="496" y="1225" type="curve" smooth="yes"/>
      <point x="454" y="1225" type="line"/>
      <point x="435" y="1125" type="line"/>
      <point x="474" y="1125" type="line" smooth="yes"/>
      <point x="589" y="1125"/>
      <point x="598" y="1102"/>
      <point x="592" y="1071" type="curve" smooth="yes"/>
      <point x="587" y="1044"/>
      <point x="565" y="1022"/>
      <point x="485" y="1022" type="curve" smooth="yes"/>
      <point x="405" y="1022"/>
      <point x="382" y="1043"/>
      <point x="376" y="1080" type="curve"/>
      <point x="226" y="1064" type="line"/>
      <point x="198" y="923"/>
      <point x="313" y="896"/>
      <point x="468" y="896" type="curve" smooth="yes"/>
      <point x="615" y="896"/>
      <point x="729" y="928"/>
      <point x="755" y="1061" type="curve" smooth="yes"/>
      <point x="778" y="1176"/>
      <point x="658" y="1190"/>
      <point x="545" y="1190" type="curve"/>
      <point x="541" y="1167" type="line"/>
      <point x="638" y="1167"/>
      <point x="768" y="1190"/>
      <point x="791" y="1309" type="curve" smooth="yes"/>
      <point x="811" y="1412"/>
      <point x="725" y="1469"/>
    </contour>
    <contour>
      <point x="1283" y="1205" type="line"/>
      <point x="244" y="387" type="line"/>
      <point x="345" y="254" type="line"/>
      <point x="1384" y="1073" type="line"/>
    </contour>
    <contour>
      <point x="1130" y="0" type="line"/>
      <point x="1238" y="555" type="line"/>
      <point x="1065" y="555" type="line"/>
      <point x="720" y="241" type="line"/>
      <point x="695" y="111" type="line"/>
      <point x="1231" y="111" type="line"/>
      <point x="1256" y="241" type="line"/>
      <point x="1127" y="241" type="line"/>
      <point x="1070" y="231" type="line"/>
      <point x="822" y="231" type="line"/>
      <point x="844" y="205" type="line"/>
      <point x="1078" y="404" type="line"/>
      <point x="1052" y="414" type="line"/>
      <point x="972" y="0" type="line"/>
    </contour>
  </outline>
</glyph>
<glyph name="Eacute" format="2">
  <advance width="1555"/>
  <unicode hex="00C9"/>
  <outline>
    <contour>
      <point x="429" y="0" type="line"/>
      <point x="713" y="1460" type="line"/>
      <point x="384" y="1460" type="line"/>
      <point x="100" y="0" type="line"/>
    </contour>
    <contour>
      <point x="1290" y="271" type="line"/>
      <point x="314" y="271" type="line"/>
      <point x="261" y="0" type="line"/>
      <point x="1207" y="0" type="line"/>
    </contour>
    <contour>
      <point x="1216" y="866" type="line"/>
      <point x="459" y="866" type="line"/>
      <point x="409" y="609" type="line"/>
      <point x="1166" y="609" type="line"/>
    </contour>
    <contour>
      <point x="1438" y="1189" type="line"/>
      <point x="1461" y="1460" type="line"/>
      <point x="545" y="1460" type="line"/>
      <point x="492" y="1189" type="line"/>
    </contour>
    <contour>
      <point x="1112" y="1619" type="line"/>
      <point x="833" y="1619" type="line"/>
      <point x="1108" y="1918" type="line"/>
      <point x="1461" y="1918" type="line"/>
    </contour>
  </outline>
</glyph>
<glyph name="Iacute" format="2">
  <advance width="1555"/>
  <unicode hex="00CD"/>
  <outline>
    <contour>
      <point x="507" y="0" type="line"/>
      <point x="837" y="0" type="line"/>
      <point x="1121" y="1460" type="line"/>
      <point x="791" y="1460" type="line"/>
    </contour>
    <contour>
      <point x="115" y="0" type="line"/>
      <point x="1229" y="0" type="line"/>
      <point x="1302" y="271" type="line"/>
      <point x="148" y="271" type="line"/>
    </contour>
    <contour>
      <point x="326" y="1189" type="line"/>
      <point x="1480" y="1189" type="line"/>
      <point x="1513" y="1460" type="line"/>
      <point x="399" y="1460" type="line"/>
    </contour>
    <contour>
      <point x="1131" y="1619" type="line"/>
      <point x="852" y="1619" type="line"/>
      <point x="1127" y="1918" type="line"/>
      <point x="1480" y="1918" type="line"/>
    </contour>
  </outline>
</glyph>
<glyph name="Icircumflex" format="2">
  <advance width="1555"/>
  <unicode hex="00CE"/>
  <outline>
    <contour>
      <point x="507" y="0" type="line"/>
      <point x="837" y="0" type="line"/>
      <point x="1121" y="1460" type="line"/>
      <point x="791" y="1460" type="line"/>
    </contour>
    <contour>
      <point x="115" y="0" type="line"/>
      <point x="1229" y="0" type="line"/>
      <point x="1302" y="271" type="line"/>
      <point x="148" y="271" type="line"/>
    </contour>
    <contour>
      <point x="326" y="1189" type="line"/>
      <point x="1480" y="1189" type="line"/>
      <point x="1513" y="1460" type="line"/>
      <point x="399" y="1460" type="line"/>
    </contour>
    <contour>
      <point x="507" y="1620" type="line"/>
      <point x="821" y="1620" type="line"/>
      <point x="1069" y="1866" type="line"/>
      <point x="1001" y="1866" type="line"/>
      <point x="1154" y="1620" type="line"/>
      <point x="1468" y="1620" type="line"/>
      <point x="1236" y="1908" type="line"/>
      <point x="850" y="1908" type="line"/>
    </contour>
  </outline>
</glyph>
<glyph name="Idieresis" format="2">
  <advance width="1555"/>
  <unicode hex="00CF"/>
  <outline>
    <contour>
      <point x="507" y="0" type="line"/>
      <point x="837" y="0" type="line"/>
      <point x="1121" y="1460" type="line"/>
      <point x="791" y="1460" type="line"/>
    </contour>
    <contour>
      <point x="115" y="0" type="line"/>
      <point x="1229" y="0" type="line"/>
      <point x="1302" y="271" type="line"/>
      <point x="148" y="271" type="line"/>
    </contour>
    <contour>
      <point x="326" y="1189" type="line"/>
      <point x="1480" y="1189" type="line"/>
      <point x="1513" y="1460" type="line"/>
      <point x="399" y="1460" type="line"/>
    </contour>
    <contour>
      <point x="657" y="1629" type="line"/>
      <point x="861" y="1797" type="line"/>
      <point x="723" y="1964" type="line"/>
      <point x="518" y="1797" type="line"/>
    </contour>
    <contour>
      <point x="1330" y="1629" type="line"/>
      <point x="1534" y="1797" type="line"/>
      <point x="1396" y="1964" type="line"/>
      <point x="1191" y="1797" type="line"/>
    </contour>
  </outline>
</glyph>
<glyph name="Ntilde" format="2">
  <advance width="1555"/>
  <unicode hex="00D1"/>
  <outline>
    <contour>
      <point x="53" y="0" type="line"/>
      <point x="360" y="0" type="line"/>
      <point x="521" y="830" type="line"/>
      <point x="533" y="830" type="line"/>
      <point x="1089" y="0" type="line"/>
      <point x="1291" y="0" type="line"/>
      <point x="1575" y="1460" type="line"/>
      <point x="1268" y="1460" type="line"/>
      <point x="1099" y="591" type="line"/>
      <point x="1087" y="591" type="line"/>
      <point x="528" y="1460" type="line"/>
      <point x="337" y="1460" type="line"/>
    </contour>
    <contour>
      <point x="1028" y="1911" type="line"/>
      <point x="730" y="1911" type="line"/>
      <point x="548" y="1758" type="line"/>
      <point x="520" y="1615" type="line"/>
      <point x="723" y="1615" type="line"/>
      <point x="737" y="1686" type="line"/>
      <point x="811" y="1758" type="line"/>
      <point x="889" y="1758" type="line"/>
      <point x="1001" y="1615" type="line"/>
      <point x="1299" y="1615" type="line"/>
      <point x="1482" y="1768" type="line"/>
      <point x="1509" y="1911" type="line"/>
      <point x="1306" y="1911" type="line"/>
      <point x="1291" y="1830" type="line"/>
      <point x="1219" y="1768" type="line"/>
      <point x="1141" y="1768" type="line"/>
    </contour>
  </outline>
</glyph>
<glyph name="Ocircumflex" format="2">
  <advance width="1555"/>
  <unicode hex="00D4"/>
  <outline>
    <contour>
      <point x="471" y="0" type="line"/>
      <point x="876" y="0" type="line"/>
      <point x="1460" y="528" type="line"/>
      <point x="1538" y="932" type="line"/>
      <point x="1143" y="1460" type="line"/>
      <point x="755" y="1460" type="line"/>
      <point x="169" y="932" type="line"/>
      <point x="91" y="528" type="line"/>
    </contour>
    <contour>
      <point x="674" y="311" type="line"/>
      <point x="438" y="643" type="line"/>
      <point x="468" y="797" type="line"/>
      <point x="857" y="1149" type="line"/>
      <point x="955" y="1149" type="line"/>
      <point x="1191" y="817" type="line"/>
      <point x="1161" y="663" type="line"/>
      <point x="772" y="311" type="line"/>
    </contour>
    <contour>
      <point x="507" y="1620" type="line"/>
      <point x="821" y="1620" type="line"/>
      <point x="1069" y="1866" type="line"/>
      <point x="1001" y="1866" type="line"/>
      <point x="1154" y="1620" type="line"/>
      <point x="1468" y="1620" type="line"/>
      <point x="1236" y="1908" type="line"/>
      <point x="850" y="1908" type="line"/>
    </contour>
  </outline>
</glyph>
<glyph name="Odieresis" format="2">
  <advance width="1555"/>
  <unicode hex="00D6"/>
  <outline>
    <contour>
      <point x="471" y="0" type="line"/>
      <point x="876" y="0" type="line"/>
      <point x="1460" y="528" type="line"/>
      <point x="1538" y="932" type="line"/>
      <point x="1143" y="1460" type="line"/>
      <point x="755" y="1460" type="line"/>
      <point x="169" y="932" type="line"/>
      <point x="91" y="528" type="line"/>
    </contour>
    <contour>
      <point x="674" y="311" type="line"/>
      <point x="438" y="643" type="line"/>
      <point x="468" y="797" type="line"/>
      <point x="857" y="1149" type="line"/>
      <point x="955" y="1149" type="line"/>
      <point x="1191" y="817" type="line"/>
      <point x="1161" y="663" type="line"/>
      <point x="772" y="311" type="line"/>
    </contour>
    <contour>
      <point x="657" y="1629" type="line"/>
      <point x="861" y="1797" type="line"/>
      <point x="723" y="1964" type="line"/>
      <point x="518" y="1797" type="line"/>
    </contour>
    <contour>
      <point x="1330" y="1629" type="line"/>
      <point x="1534" y="1797" type="line"/>
      <point x="1396" y="1964" type="line"/>
      <point x="1191" y="1797" type="line"/>
    </contour>
  </outline>
</glyph>
<glyph name="multiply" format="2">
  <advance width="1555"/>
  <unicode hex="00D7"/>
  <outline>
    <contour>
      <point x="325" y="1030" type="line"/>
      <point x="1043" y="126" type="line"/>
      <point x="1280" y="315" type="line"/>
      <point x="562" y="1219" type="line"/>
    </contour>
    <contour>
      <point x="346" y="130" type="line"/>
      <point x="1412" y="1014" type="line"/>
      <point x="1259" y="1215" type="line"/>
      <point x="193" y="331" type="line"/>
    </contour>
  </outline>
</glyph>
<glyph name="Ugrave" format="2">
  <advance width="1555"/>
  <unicode hex="00D9"/>
  <outline>
    <contour>
      <point x="300" y="0" type="line"/>
      <point x="1054" y="0" type="line"/>
      <point x="1348" y="295" type="line"/>
      <point x="1575" y="1460" type="line"/>
      <point x="1240" y="1460" type="line"/>
      <point x="1033" y="396" type="line"/>
      <point x="909" y="271" type="line"/>
      <point x="541" y="271" type="line"/>
      <point x="465" y="396" type="line"/>
      <point x="672" y="1460" type="line"/>
      <point x="337" y="1460" type="line"/>
      <point x="112" y="305" type="line"/>
    </contour>
    <contour>
      <point x="843" y="1619" type="line"/>
      <point x="1122" y="1619" type="line"/>
      <point x="963" y="1918" type="line"/>
      <point x="610" y="1918" type="line"/>
    </contour>
  </outline>
</glyph>
<glyph name="Ucircumflex" format="2">
  <advance width="1555"/>
  <unicode hex="00DB"/>
  <outline>
    <contour>
      <point x="300" y="0" type="line"/>
      <point x="1054" y="0" type="line"/>
      <point x="1348" y="295" type="line"/>
      <point x="1575" y="1460" type="line"/>
      <point x="1240" y="1460" type="line"/>
      <point x="1033" y="396" type="line"/>
      <point x="909" y="271" type="line"/>
      <point x="541" y="271" type="line"/>
      <point x="465" y="396" type="line"/>
      <point x="672" y="1460" type="line"/>
      <point x="337" y="1460" type="line"/>
      <point x="112" y="305" type="line"/>
    </contour>
    <contour>
      <point x="506" y="1620" type="line"/>
      <point x="820" y="1620" type="line"/>
      <point x="1068" y="1866" type="line"/>
      <point x="1000" y="1866" type="line"/>
      <point x="1153" y="1620" type="line"/>
      <point x="1467" y="1620" type="line"/>
      <point x="1235" y="1908" type="line"/>
      <point x="849" y="1908" type="line"/>
    </contour>
  </outline>
</glyph>
<glyph name="ccedilla" format="2">
  <advance width="1555"/>
  <unicode hex="00E7"/>
  <outline>
    <contour>
      <point x="433" y="0" type="line"/>
      <point x="1268" y="0" type="line"/>
      <point x="1373" y="281" type="line"/>
      <point x="608" y="281" type="line"/>
      <point x="395" y="470" type="line"/>
      <point x="423" y="612" type="line"/>
      <point x="719" y="801" type="line"/>
      <point x="1474" y="801" type="line"/>
      <point x="1478" y="1082" type="line"/>
      <point x="643" y="1082" type="line"/>
      <point x="136" y="705" type="line"/>
      <point x="72" y="378" type="line"/>
    </contour>
    <contour>
      <point x="500" y="-687" type="line"/>
      <point x="694" y="-687" type="line"/>
      <point x="966" y="-534" type="line"/>
      <point x="1018" y="-270" type="line"/>
      <point x="801" y="-139" type="line"/>
      <point x="772" y="-139" type="line"/>
      <point x="815" y="-200" type="line"/>
      <point x="863" y="48" type="line"/>
      <point x="683" y="48" type="line"/>
      <point x="615" y="-305" type="line"/>
      <point x="701" y="-305" type="line"/>
      <point x="815" y="-370" type="line"/>
      <point x="803" y="-434" type="line"/>
      <point x="663" y="-499" type="line"/>
      <point x="537" y="-499" type="line"/>
    </contour>
  </outline>
</glyph>
<glyph name="ecircumflex" format="2">
  <advance width="1555"/>
  <unicode hex="00EA"/>
  <outline>
    <contour>
      <point x="455" y="0" type="line"/>
      <point x="1221" y="0" type="line"/>
      <point x="1300" y="251" type="line"/>
      <point x="654" y="251" type="line"/>
      <point x="427" y="431" type="line"/>
      <point x="466" y="631" type="line"/>
      <point x="803" y="851" type="line"/>
      <point x="1063" y="851" type="line"/>
      <point x="1205" y="769" type="line"/>
      <point x="1193" y="703" type="line"/>
      <point x="1043" y="630" type="line"/>
      <point x="395" y="630" type="line"/>
      <point x="359" y="440" type="line"/>
      <point x="1186" y="440" type="line"/>
      <point x="1431" y="561" type="line"/>
      <point x="1486" y="843" type="line"/>
      <point x="1211" y="1082" type="line"/>
      <point x="690" y="1082" type="line"/>
      <point x="177" y="713" type="line"/>
      <point x="110" y="369" type="line"/>
    </contour>
    <contour>
      <point x="474" y="1275" type="line"/>
      <point x="768" y="1275" type="line"/>
      <point x="1065" y="1571" type="line"/>
      <point x="997" y="1571" type="line"/>
      <point x="1181" y="1275" type="line"/>
      <point x="1475" y="1275" type="line"/>
      <point x="1238" y="1643" type="line"/>
      <point x="852" y="1643" type="line"/>
    </contour>
  </outline>
</glyph>
<glyph name="edieresis" format="2">
  <advance width="1555"/>
  <unicode hex="00EB"/>
  <outline>
    <contour>
      <point x="461" y="0" type="line"/>
      <point x="1227" y="0" type="line"/>
      <point x="1306" y="251" type="line"/>
      <point x="660" y="251" type="line"/>
      <point x="433" y="431" type="line"/>
      <point x="472" y="631" type="line"/>
      <point x="809" y="851" type="line"/>
      <point x="1069" y="851" type="line"/>
      <point x="1211" y="769" type="line"/>
      <point x="1199" y="703" type="line"/>
      <point x="1049" y="630" type="line"/>
      <point x="401" y="630" type="line"/>
      <point x="365" y="440" type="line"/>
      <point x="1192" y="440" type="line"/>
      <point x="1437" y="561" type="line"/>
      <point x="1492" y="843" type="line"/>
      <point x="1217" y="1082" type="line"/>
      <point x="696" y="1082" type="line"/>
      <point x="183" y="713" type="line"/>
      <point x="116" y="369" type="line"/>
    </contour>
    <contour>
      <point x="636" y="1231" type="line"/>
      <point x="889" y="1441" type="line"/>
      <point x="717" y="1650" type="line"/>
      <point x="463" y="1441" type="line"/>
    </contour>
    <contour>
      <point x="1309" y="1231" type="line"/>
      <point x="1562" y="1441" type="line"/>
      <point x="1390" y="1650" type="line"/>
      <point x="1136" y="1441" type="line"/>
    </contour>
  </outline>
</glyph>
<glyph name="igrave" format="2">
  <advance width="1555"/>
  <unicode hex="00EC"/>
  <outline>
    <contour>
      <point x="607" y="0" type="line"/>
      <point x="932" y="0" type="line"/>
      <point x="1101" y="867" type="line"/>
      <point x="957" y="1082" type="line"/>
      <point x="328" y="1082" type="line"/>
      <point x="240" y="781" type="line"/>
      <point x="818" y="781" type="line"/>
      <point x="770" y="836" type="line"/>
    </contour>
    <contour>
      <point x="701" y="1275" type="line"/>
      <point x="980" y="1275" type="line"/>
      <point x="834" y="1643" type="line"/>
      <point x="481" y="1643" type="line"/>
    </contour>
  </outline>
</glyph>
<glyph name="iacute" format="2">
  <advance width="1555"/>
  <unicode hex="00ED"/>
  <outline>
    <contour>
      <point x="586" y="0" type="line"/>
      <point x="911" y="0" type="line"/>
      <point x="1080" y="867" type="line"/>
      <point x="936" y="1082" type="line"/>
      <point x="307" y="1082" type="line"/>
      <point x="219" y="781" type="line"/>
      <point x="797" y="781" type="line"/>
      <point x="749" y="836" type="line"/>
    </contour>
    <contour>
      <point x="967" y="1275" type="line"/>
      <point x="688" y="1275" type="line"/>
      <point x="976" y="1643" type="line"/>
      <point x="1329" y="1643" type="line"/>
    </contour>
  </outline>
</glyph>
<glyph name="icircumflex" format="2">
  <advance width="1555"/>
  <unicode hex="00EE"/>
  <outline>
    <contour>
      <point x="568" y="0" type="line"/>
      <point x="893" y="0" type="line"/>
      <point x="1062" y="867" type="line"/>
      <point x="918" y="1082" type="line"/>
      <point x="289" y="1082" type="line"/>
      <point x="201" y="781" type="line"/>
      <point x="779" y="781" type="line"/>
      <point x="731" y="836" type="line"/>
    </contour>
    <contour>
      <point x="305" y="1275" type="line"/>
      <point x="599" y="1275" type="line"/>
      <point x="896" y="1571" type="line"/>
      <point x="828" y="1571" type="line"/>
      <point x="1012" y="1275" type="line"/>
      <point x="1306" y="1275" type="line"/>
      <point x="1069" y="1643" type="line"/>
      <point x="683" y="1643" type="line"/>
    </contour>
  </outline>
</glyph>
<glyph name="ntilde" format="2">
  <advance width="1555"/>
  <unicode hex="00F1"/>
  <outline>
    <contour>
      <point x="998" y="0" type="line"/>
      <point x="1323" y="0" type="line"/>
      <point x="1482" y="820" type="line"/>
      <point x="1167" y="1106" type="line"/>
      <point x="385" y="928" type="line"/>
      <point x="350" y="747" type="line"/>
      <point x="988" y="823" type="line"/>
      <point x="1142" y="740" type="line"/>
    </contour>
    <contour>
      <point x="21" y="0" type="line"/>
      <point x="346" y="0" type="line"/>
      <point x="519" y="892" type="line"/>
      <point x="476" y="1082" type="line"/>
      <point x="231" y="1082" type="line"/>
    </contour>
    <contour>
      <point x="957" y="1613" type="line"/>
      <point x="643" y="1613" type="line"/>
      <point x="454" y="1430" type="line"/>
      <point x="420" y="1257" type="line"/>
      <point x="623" y="1257" type="line"/>
      <point x="643" y="1358" type="line"/>
      <point x="731" y="1450" type="line"/>
      <point x="813" y="1450" type="line"/>
      <point x="945" y="1257" type="line"/>
      <point x="1259" y="1257" type="line"/>
      <point x="1448" y="1440" type="line"/>
      <point x="1482" y="1613" type="line"/>
      <point x="1279" y="1613" type="line"/>
      <point x="1257" y="1502" type="line"/>
      <point x="1171" y="1420" type="line"/>
      <point x="1089" y="1420" type="line"/>
    </contour>
  </outline>
</glyph>
<glyph name="ograve" format="2">
  <advance width="1555"/>
  <unicode hex="00F2"/>
  <outline>
    <contour>
      <point x="475" y="0" type="line"/>
      <point x="870" y="0" type="line"/>
      <point x="1413" y="376" type="line"/>
      <point x="1477" y="706" type="line"/>
      <point x="1086" y="1082" type="line"/>
      <point x="685" y="1082" type="line"/>
      <point x="142" y="706" type="line"/>
      <point x="78" y="376" type="line"/>
    </contour>
    <contour>
      <point x="642" y="281" type="line"/>
      <point x="403" y="477" type="line"/>
      <point x="428" y="605" type="line"/>
      <point x="763" y="801" type="line"/>
      <point x="914" y="801" type="line"/>
      <point x="1153" y="605" type="line"/>
      <point x="1128" y="477" type="line"/>
      <point x="793" y="281" type="line"/>
    </contour>
    <contour>
      <point x="777" y="1275" type="line"/>
      <point x="1056" y="1275" type="line"/>
      <point x="910" y="1643" type="line"/>
      <point x="557" y="1643" type="line"/>
    </contour>
  </outline>
</glyph>
<glyph name="oacute" format="2">
  <advance width="1555"/>
  <unicode hex="00F3"/>
  <outline>
    <contour>
      <point x="475" y="0" type="line"/>
      <point x="870" y="0" type="line"/>
      <point x="1413" y="376" type="line"/>
      <point x="1477" y="706" type="line"/>
      <point x="1086" y="1082" type="line"/>
      <point x="685" y="1082" type="line"/>
      <point x="142" y="706" type="line"/>
      <point x="78" y="376" type="line"/>
    </contour>
    <contour>
      <point x="642" y="281" type="line"/>
      <point x="403" y="477" type="line"/>
      <point x="428" y="605" type="line"/>
      <point x="763" y="801" type="line"/>
      <point x="914" y="801" type="line"/>
      <point x="1153" y="605" type="line"/>
      <point x="1128" y="477" type="line"/>
      <point x="793" y="281" type="line"/>
    </contour>
    <contour>
      <point x="1064" y="1275" type="line"/>
      <point x="785" y="1275" type="line"/>
      <point x="1073" y="1643" type="line"/>
      <point x="1426" y="1643" type="line"/>
    </contour>
  </outline>
</glyph>
<glyph name="otilde" format="2">
  <advance width="1555"/>
  <unicode hex="00F5"/>
  <outline>
    <contour>
      <point x="475" y="0" type="line"/>
      <point x="870" y="0" type="line"/>
      <point x="1413" y="376" type="line"/>
      <point x="1477" y="706" type="line"/>
      <point x="1086" y="1082" type="line"/>
      <point x="685" y="1082" type="line"/>
      <point x="142" y="706" type="line"/>
      <point x="78" y="376" type="line"/>
    </contour>
    <contour>
      <point x="642" y="281" type="line"/>
      <point x="403" y="477" type="line"/>
      <point x="428" y="605" type="line"/>
      <point x="763" y="801" type="line"/>
      <point x="914" y="801" type="line"/>
      <point x="1153" y="605" type="line"/>
      <point x="1128" y="477" type="line"/>
      <point x="793" y="281" type="line"/>
    </contour>
    <contour>
      <point x="958" y="1613" type="line"/>
      <point x="644" y="1613" type="line"/>
      <point x="455" y="1430" type="line"/>
      <point x="421" y="1257" type="line"/>
      <point x="624" y="1257" type="line"/>
      <point x="644" y="1358" type="line"/>
      <point x="732" y="1450" type="line"/>
      <point x="814" y="1450" type="line"/>
      <point x="946" y="1257" type="line"/>
      <point x="1260" y="1257" type="line"/>
      <point x="1449" y="1440" type="line"/>
      <point x="1483" y="1613" type="line"/>
      <point x="1280" y="1613" type="line"/>
      <point x="1258" y="1502" type="line"/>
      <point x="1172" y="1420" type="line"/>
      <point x="1090" y="1420" type="line"/>
    </contour>
  </outline>
</glyph>
<glyph name="odieresis" format="2">
  <advance width="1555"/>
  <unicode hex="00F6"/>
  <outline>
    <contour>
      <point x="475" y="0" type="line"/>
      <point x="870" y="0" type="line"/>
      <point x="1413" y="376" type="line"/>
      <point x="1477" y="706" type="line"/>
      <point x="1086" y="1082" type="line"/>
      <point x="685" y="1082" type="line"/>
      <point x="142" y="706" type="line"/>
      <point x="78" y="376" type="line"/>
    </contour>
    <contour>
      <point x="642" y="281" type="line"/>
      <point x="403" y="477" type="line"/>
      <point x="428" y="605" type="line"/>
      <point x="763" y="801" type="line"/>
      <point x="914" y="801" type="line"/>
      <point x="1153" y="605" type="line"/>
      <point x="1128" y="477" type="line"/>
      <point x="793" y="281" type="line"/>
    </contour>
    <contour>
      <point x="576" y="1231" type="line"/>
      <point x="829" y="1441" type="line"/>
      <point x="657" y="1650" type="line"/>
      <point x="403" y="1441" type="line"/>
    </contour>
    <contour>
      <point x="1249" y="1231" type="line"/>
      <point x="1502" y="1441" type="line"/>
      <point x="1330" y="1650" type="line"/>
      <point x="1076" y="1441" type="line"/>
    </contour>
  </outline>
</glyph>
<glyph name="ucircumflex" format="2">
  <advance width="1555"/>
  <unicode hex="00FB"/>
  <outline>
    <contour>
      <point x="556" y="1082" type="line"/>
      <point x="231" y="1082" type="line"/>
      <point x="72" y="262" type="line"/>
      <point x="387" y="-24" type="line"/>
      <point x="1169" y="154" type="line"/>
      <point x="1204" y="335" type="line"/>
      <point x="566" y="259" type="line"/>
      <point x="412" y="342" type="line"/>
    </contour>
    <contour>
      <point x="1533" y="1082" type="line"/>
      <point x="1208" y="1082" type="line"/>
      <point x="1035" y="190" type="line"/>
      <point x="1078" y="0" type="line"/>
      <point x="1323" y="0" type="line"/>
    </contour>
    <contour>
      <point x="420" y="1275" type="line"/>
      <point x="714" y="1275" type="line"/>
      <point x="1011" y="1571" type="line"/>
      <point x="943" y="1571" type="line"/>
      <point x="1127" y="1275" type="line"/>
      <point x="1421" y="1275" type="line"/>
      <point x="1184" y="1643" type="line"/>
      <point x="798" y="1643" type="line"/>
    </contour>
  </outline>
</glyph>
<glyph name="udieresis" format="2">
  <advance width="1555"/>
  <unicode hex="00FC"/>
  <outline>
    <contour>
      <point x="556" y="1082" type="line"/>
      <point x="231" y="1082" type="line"/>
      <point x="72" y="262" type="line"/>
      <point x="387" y="-24" type="line"/>
      <point x="1169" y="154" type="line"/>
      <point x="1204" y="335" type="line"/>
      <point x="566" y="259" type="line"/>
      <point x="412" y="342" type="line"/>
    </contour>
    <contour>
      <point x="1533" y="1082" type="line"/>
      <point x="1208" y="1082" type="line"/>
      <point x="1035" y="190" type="line"/>
      <point x="1078" y="0" type="line"/>
      <point x="1323" y="0" type="line"/>
    </contour>
    <contour>
      <point x="576" y="1231" type="line"/>
      <point x="829" y="1441" type="line"/>
      <point x="657" y="1650" type="line"/>
      <point x="403" y="1441" type="line"/>
    </contour>
    <contour>
      <point x="1249" y="1231" type="line"/>
      <point x="1502" y="1441" type="line"/>
      <point x="1330" y="1650" type="line"/>
      <point x="1076" y="1441" type="line"/>
    </contour>
  </outline>
</glyph>
<glyph name="ydieresis" format="2">
  <advance width="1555"/>
  <unicode hex="00FF"/>
  <outline>
    <contour>
      <point x="182" y="-400" type="line"/>
      <point x="872" y="-400" type="line"/>
      <point x="1291" y="-81" type="line"/>
      <point x="1517" y="1082" type="line"/>
      <point x="1192" y="1082" type="line"/>
      <point x="1053" y="365" type="line"/>
      <point x="1044" y="318" type="line"/>
      <point x="986" y="23" type="line"/>
      <point x="754" y="-109" type="line"/>
      <point x="189" y="-109" type="line"/>
    </contour>
    <contour>
      <point x="396" y="106" type="line"/>
      <point x="1188" y="289" type="line"/>
      <point x="1223" y="467" type="line"/>
      <point x="584" y="392" type="line"/>
      <point x="456" y="466" type="line"/>
      <point x="575" y="1082" type="line"/>
      <point x="247" y="1082" type="line"/>
      <point x="112" y="387" type="line"/>
    </contour>
    <contour>
      <point x="560" y="1231" type="line"/>
      <point x="813" y="1441" type="line"/>
      <point x="641" y="1650" type="line"/>
      <point x="387" y="1441" type="line"/>
    </contour>
    <contour>
      <point x="1233" y="1231" type="line"/>
      <point x="1486" y="1441" type="line"/>
      <point x="1314" y="1650" type="line"/>
      <point x="1060" y="1441" type="line"/>
    </contour>
  </outline>
</glyph>
<glyph name="ebreve" format="2">
  <advance width="1555"/>
  <unicode hex="0115"/>
  <outline>
    <contour>
      <point x="455" y="0" type="line"/>
      <point x="1221" y="0" type="line"/>
      <point x="1300" y="251" type="line"/>
      <point x="654" y="251" type="line"/>
      <point x="427" y="431" type="line"/>
      <point x="466" y="631" type="line"/>
      <point x="803" y="851" type="line"/>
      <point x="1063" y="851" type="line"/>
      <point x="1205" y="769" type="line"/>
      <point x="1193" y="703" type="line"/>
      <point x="1043" y="630" type="line"/>
      <point x="395" y="630" type="line"/>
      <point x="359" y="440" type="line"/>
      <point x="1186" y="440" type="line"/>
      <point x="1431" y="561" type="line"/>
      <point x="1486" y="843" type="line"/>
      <point x="1211" y="1082" type="line"/>
      <point x="690" y="1082" type="line"/>
      <point x="177" y="713" type="line"/>
      <point x="110" y="369" type="line"/>
    </contour>
    <contour>
      <point x="742" y="1275" type="line"/>
      <point x="1207" y="1275" type="line"/>
      <point x="1456" y="1460" type="line"/>
      <point x="1491" y="1643" type="line"/>
      <point x="1288" y="1643" type="line"/>
      <point x="1267" y="1532" type="line"/>
      <point x="1149" y="1440" type="line"/>
      <point x="864" y="1440" type="line"/>
      <point x="782" y="1532" type="line"/>
      <point x="803" y="1643" type="line"/>
      <point x="600" y="1643" type="line"/>
      <point x="565" y="1459" type="line"/>
    </contour>
  </outline>
</glyph>
<glyph name="Edotaccent" format="2">
  <advance width="1555"/>
  <unicode hex="0116"/>
  <outline>
    <contour>
      <point x="429" y="0" type="line"/>
      <point x="713" y="1460" type="line"/>
      <point x="384" y="1460" type="line"/>
      <point x="100" y="0" type="line"/>
    </contour>
    <contour>
      <point x="1290" y="271" type="line"/>
      <point x="314" y="271" type="line"/>
      <point x="261" y="0" type="line"/>
      <point x="1207" y="0" type="line"/>
    </contour>
    <contour>
      <point x="1216" y="866" type="line"/>
      <point x="459" y="866" type="line"/>
      <point x="409" y="609" type="line"/>
      <point x="1166" y="609" type="line"/>
    </contour>
    <contour>
      <point x="1438" y="1189" type="line"/>
      <point x="1461" y="1460" type="line"/>
      <point x="545" y="1460" type="line"/>
      <point x="492" y="1189" type="line"/>
    </contour>
    <contour>
      <point x="970" y="1629" type="line"/>
      <point x="1177" y="1797" type="line"/>
      <point x="1035" y="1964" type="line"/>
      <point x="827" y="1797" type="line"/>
    </contour>
  </outline>
</glyph>
<glyph name="eogonek" format="2">
  <advance width="1555"/>
  <unicode hex="0119"/>
  <outline>
    <contour>
      <point x="455" y="0" type="line"/>
      <point x="1221" y="0" type="line"/>
      <point x="1300" y="251" type="line"/>
      <point x="654" y="251" type="line"/>
      <point x="427" y="431" type="line"/>
      <point x="466" y="631" type="line"/>
      <point x="803" y="851" type="line"/>
      <point x="1063" y="851" type="line"/>
      <point x="1205" y="769" type="line"/>
      <point x="1193" y="703" type="line"/>
      <point x="1043" y="630" type="line"/>
      <point x="395" y="630" type="line"/>
      <point x="359" y="440" type="line"/>
      <point x="1186" y="440" type="line"/>
      <point x="1431" y="561" type="line"/>
      <point x="1486" y="843" type="line"/>
      <point x="1211" y="1082" type="line"/>
      <point x="690" y="1082" type="line"/>
      <point x="177" y="713" type="line"/>
      <point x="110" y="369" type="line"/>
    </contour>
    <contour>
      <point x="449" y="-146" type="line"/>
      <point x="415" y="-320" type="line"/>
      <point x="599" y="-443" type="line"/>
      <point x="813" y="-443" type="line"/>
      <point x="852" y="-240" type="line"/>
      <point x="730" y="-240" type="line"/>
      <point x="684" y="-210" type="line"/>
      <point x="691" y="-173" type="line"/>
      <point x="918" y="0" type="line"/>
      <point x="810" y="44" type="line"/>
    </contour>
  </outline>
</glyph>
<glyph name="ecaron" format="2">
  <advance width="1555"/>
  <unicode hex="011B"/>
  <outline>
    <contour>
      <point x="455" y="0" type="line"/>
      <point x="1221" y="0" type="line"/>
      <point x="1300" y="251" type="line"/>
      <point x="654" y="251" type="line"/>
      <point x="427" y="431" type="line"/>
      <point x="466" y="631" type="line"/>
      <point x="803" y="851" type="line"/>
      <point x="1063" y="851" type="line"/>
      <point x="1205" y="769" type="line"/>
      <point x="1193" y="703" type="line"/>
      <point x="1043" y="630" type="line"/>
      <point x="395" y="630" type="line"/>
      <point x="359" y="440" type="line"/>
      <point x="1186" y="440" type="line"/>
      <point x="1431" y="561" type="line"/>
      <point x="1486" y="843" type="line"/>
      <point x="1211" y="1082" type="line"/>
      <point x="690" y="1082" type="line"/>
      <point x="177" y="713" type="line"/>
      <point x="110" y="369" type="line"/>
    </contour>
    <contour>
      <point x="545" y="1643" type="line"/>
      <point x="839" y="1643" type="line"/>
      <point x="1022" y="1347" type="line"/>
      <point x="954" y="1347" type="line"/>
      <point x="1252" y="1643" type="line"/>
      <point x="1546" y="1643" type="line"/>
      <point x="1167" y="1275" type="line"/>
      <point x="781" y="1275" type="line"/>
    </contour>
  </outline>
</glyph>
<glyph name="gdotaccent" format="2">
  <advance width="1555"/>
  <unicode hex="0121"/>
  <outline>
    <contour>
      <point x="147" y="-400" type="line"/>
      <point x="953" y="-400" type="line"/>
      <point x="1290" y="-81" type="line"/>
      <point x="1516" y="1082" type="line"/>
      <point x="1201" y="1082" type="line"/>
      <point x="1052" y="313" type="line"/>
      <point x="1028" y="266" type="line"/>
      <point x="979" y="13" type="line"/>
      <point x="832" y="-119" type="line"/>
      <point x="172" y="-119" type="line"/>
    </contour>
    <contour>
      <point x="516" y="75" type="line"/>
      <point x="1197" y="203" type="line"/>
      <point x="1238" y="414" type="line"/>
      <point x="659" y="348" type="line"/>
      <point x="443" y="482" type="line"/>
      <point x="468" y="613" type="line"/>
      <point x="793" y="807" type="line"/>
      <point x="1315" y="807" type="line"/>
      <point x="1369" y="1083" type="line"/>
      <point x="705" y="1083" type="line"/>
      <point x="169" y="746" type="line"/>
      <point x="97" y="371" type="line"/>
    </contour>
    <contour>
      <point x="895" y="1231" type="line"/>
      <point x="1154" y="1441" type="line"/>
      <point x="977" y="1650" type="line"/>
      <point x="717" y="1441" type="line"/>
    </contour>
  </outline>
</glyph>
<glyph name="Hbar" format="2">
  <advance width="1555"/>
  <unicode hex="0126"/>
  <outline>
    <contour>
      <point x="145" y="1082" type="line"/>
      <point x="1620" y="1082" type="line"/>
      <point x="1659" y="1283" type="line"/>
      <point x="184" y="1283" type="line"/>
    </contour>
    <contour>
      <point x="955" y="0" type="line"/>
      <point x="1292" y="0" type="line"/>
      <point x="1576" y="1460" type="line"/>
      <point x="1239" y="1460" type="line"/>
    </contour>
    <contour>
      <point x="54" y="0" type="line"/>
      <point x="391" y="0" type="line"/>
      <point x="675" y="1460" type="line"/>
      <point x="338" y="1460" type="line"/>
    </contour>
    <contour>
      <point x="308" y="602" type="line"/>
      <point x="1268" y="602" type="line"/>
      <point x="1321" y="873" type="line"/>
      <point x="361" y="873" type="line"/>
    </contour>
  </outline>
</glyph>
<glyph name="hbar" format="2">
  <advance width="1555"/>
  <unicode hex="0127"/>
  <outline>
    <contour>
      <point x="161" y="1191" type="line"/>
      <point x="1121" y="1191" type="line"/>
      <point x="1151" y="1350" type="line"/>
      <point x="420" y="1350" type="line"/>
      <point x="391" y="1350" type="line"/>
      <point x="191" y="1350" type="line"/>
    </contour>
    <contour>
      <point x="983" y="0" type="line"/>
      <point x="1312" y="0" type="line"/>
      <point x="1452" y="720" type="line"/>
      <point x="1133" y="1006" type="line"/>
      <point x="351" y="828" type="line"/>
      <point x="316" y="647" type="line"/>
      <point x="954" y="723" type="line"/>
      <point x="1107" y="640" type="line"/>
    </contour>
    <contour>
      <point x="6" y="0" type="line"/>
      <point x="331" y="0" type="line"/>
      <point x="628" y="1530" type="line"/>
      <point x="292" y="1470" type="line"/>
    </contour>
  </outline>
</glyph>
<glyph name="imacron" format="2">
  <advance width="1555"/>
  <unicode hex="012B"/>
  <outline>
    <contour>
      <point x="581" y="0" type="line"/>
      <point x="906" y="0" type="line"/>
      <point x="1075" y="867" type="line"/>
      <point x="931" y="1082" type="line"/>
      <point x="302" y="1082" type="line"/>
      <point x="214" y="781" type="line"/>
      <point x="792" y="781" type="line"/>
      <point x="744" y="836" type="line"/>
    </contour>
    <contour>
      <point x="393" y="1299" type="line"/>
      <point x="1254" y="1299" type="line"/>
      <point x="1291" y="1492" type="line"/>
      <point x="430" y="1492" type="line"/>
    </contour>
  </outline>
</glyph>
<glyph name="Idotaccent" format="2">
  <advance width="1555"/>
  <unicode hex="0130"/>
  <outline>
    <contour>
      <point x="507" y="0" type="line"/>
      <point x="837" y="0" type="line"/>
      <point x="1121" y="1460" type="line"/>
      <point x="791" y="1460" type="line"/>
    </contour>
    <contour>
      <point x="115" y="0" type="line"/>
      <point x="1229" y="0" type="line"/>
      <point x="1302" y="271" type="line"/>
      <point x="148" y="271" type="line"/>
    </contour>
    <contour>
      <point x="326" y="1189" type="line"/>
      <point x="1480" y="1189" type="line"/>
      <point x="1513" y="1460" type="line"/>
      <point x="399" y="1460" type="line"/>
    </contour>
    <contour>
      <point x="989" y="1629" type="line"/>
      <point x="1196" y="1797" type="line"/>
      <point x="1054" y="1964" type="line"/>
      <point x="846" y="1797" type="line"/>
    </contour>
  </outline>
</glyph>
<glyph name="idotless" format="2">
  <advance width="1555"/>
  <unicode hex="0131"/>
  <outline>
    <contour>
      <point x="607" y="0" type="line"/>
      <point x="932" y="0" type="line"/>
      <point x="1101" y="867" type="line"/>
      <point x="957" y="1082" type="line"/>
      <point x="328" y="1082" type="line"/>
      <point x="240" y="781" type="line"/>
      <point x="818" y="781" type="line"/>
      <point x="770" y="836" type="line"/>
    </contour>
  </outline>
</glyph>
<glyph name="lacute" format="2">
  <advance width="1555"/>
  <unicode hex="013A"/>
  <outline>
    <contour>
      <point x="709" y="-1" type="line"/>
      <point x="1247" y="-1" type="line"/>
      <point x="1335" y="300" type="line"/>
      <point x="935" y="300" type="line"/>
      <point x="826" y="432" type="line"/>
      <point x="998" y="1315" type="line"/>
      <point x="854" y="1530" type="line"/>
      <point x="299" y="1530" type="line"/>
      <point x="211" y="1229" type="line"/>
      <point x="715" y="1229" type="line"/>
      <point x="667" y="1284" type="line"/>
      <point x="479" y="318" type="line"/>
    </contour>
    <contour>
      <point x="1008" y="1689" type="line"/>
      <point x="729" y="1689" type="line"/>
      <point x="1004" y="1988" type="line"/>
      <point x="1357" y="1988" type="line"/>
    </contour>
  </outline>
</glyph>
<glyph name="Ldot" format="2">
  <advance width="1555"/>
  <unicode hex="013F"/>
  <outline>
    <contour>
      <point x="169" y="0" type="line"/>
      <point x="498" y="0" type="line"/>
      <point x="782" y="1460" type="line"/>
      <point x="453" y="1460" type="line"/>
    </contour>
    <contour>
      <point x="329" y="0" type="line"/>
      <point x="1248" y="0" type="line"/>
      <point x="1331" y="271" type="line"/>
      <point x="382" y="271" type="line"/>
    </contour>
    <contour>
      <point x="1246" y="634" type="line"/>
      <point x="1505" y="844" type="line"/>
      <point x="1328" y="1053" type="line"/>
      <point x="1068" y="844" type="line"/>
    </contour>
  </outline>
</glyph>
<glyph name="Nacute" format="2">
  <advance width="1555"/>
  <unicode hex="0143"/>
  <outline>
    <contour>
      <point x="53" y="0" type="line"/>
      <point x="360" y="0" type="line"/>
      <point x="521" y="830" type="line"/>
      <point x="533" y="830" type="line"/>
      <point x="1089" y="0" type="line"/>
      <point x="1291" y="0" type="line"/>
      <point x="1575" y="1460" type="line"/>
      <point x="1268" y="1460" type="line"/>
      <point x="1099" y="591" type="line"/>
      <point x="1087" y="591" type="line"/>
      <point x="528" y="1460" type="line"/>
      <point x="337" y="1460" type="line"/>
    </contour>
    <contour>
      <point x="1130" y="1619" type="line"/>
      <point x="851" y="1619" type="line"/>
      <point x="1126" y="1918" type="line"/>
      <point x="1479" y="1918" type="line"/>
    </contour>
  </outline>
</glyph>
<glyph name="eng" format="2">
  <advance width="1555"/>
  <unicode hex="014B"/>
  <outline>
    <contour>
      <point x="1333" y="50" type="line"/>
      <point x="1008" y="50" type="line"/>
      <point x="987" y="-57" type="line"/>
      <point x="939" y="-99" type="line"/>
      <point x="739" y="-99" type="line"/>
      <point x="710" y="-400" type="line"/>
      <point x="1050" y="-400" type="line"/>
      <point x="1290" y="-171" type="line"/>
    </contour>
    <contour>
      <point x="998" y="0" type="line"/>
      <point x="1323" y="0" type="line"/>
      <point x="1482" y="820" type="line"/>
      <point x="1167" y="1106" type="line"/>
      <point x="385" y="928" type="line"/>
      <point x="350" y="747" type="line"/>
      <point x="988" y="823" type="line"/>
      <point x="1142" y="740" type="line"/>
    </contour>
    <contour>
      <point x="21" y="0" type="line"/>
      <point x="346" y="0" type="line"/>
      <point x="519" y="892" type="line"/>
      <point x="476" y="1082" type="line"/>
      <point x="231" y="1082" type="line"/>
    </contour>
  </outline>
</glyph>
<glyph name="racute" format="2">
  <advance width="1555"/>
  <unicode hex="0155"/>
  <outline>
    <contour>
      <point x="1135" y="584" type="line"/>
      <point x="1461" y="630" type="line"/>
      <point x="1504" y="851" type="line"/>
      <point x="1184" y="1106" type="line"/>
      <point x="363" y="878" type="line"/>
      <point x="335" y="737" type="line"/>
      <point x="1015" y="813" type="line"/>
      <point x="1164" y="735" type="line"/>
    </contour>
    <contour>
      <point x="34" y="0" type="line"/>
      <point x="359" y="0" type="line"/>
      <point x="536" y="909" type="line"/>
      <point x="489" y="1082" type="line"/>
      <point x="244" y="1082" type="line"/>
    </contour>
    <contour>
      <point x="1076" y="1275" type="line"/>
      <point x="797" y="1275" type="line"/>
      <point x="1085" y="1643" type="line"/>
      <point x="1438" y="1643" type="line"/>
    </contour>
  </outline>
</glyph>
<glyph name="Sacute" format="2">
  <advance width="1555"/>
  <unicode hex="015A"/>
  <outline>
    <contour>
      <point x="118" y="0" type="line"/>
      <point x="959" y="0" type="line"/>
      <point x="1298" y="301" type="line"/>
      <point x="1342" y="531" type="line"/>
      <point x="666" y="1001" type="line"/>
      <point x="680" y="1075" type="line"/>
      <point x="771" y="1159" type="line"/>
      <point x="1454" y="1159" type="line"/>
      <point x="1483" y="1460" type="line"/>
      <point x="662" y="1460" type="line"/>
      <point x="323" y="1159" type="line"/>
      <point x="279" y="929" type="line"/>
      <point x="956" y="459" type="line"/>
      <point x="942" y="385" type="line"/>
      <point x="851" y="301" type="line"/>
      <point x="147" y="301" type="line"/>
    </contour>
    <contour>
      <point x="1128" y="1619" type="line"/>
      <point x="849" y="1619" type="line"/>
      <point x="1124" y="1918" type="line"/>
      <point x="1477" y="1918" type="line"/>
    </contour>
  </outline>
</glyph>
<glyph name="Scaron" format="2">
  <advance width="1555"/>
  <unicode hex="0160"/>
  <outline>
    <contour>
      <point x="118" y="0" type="line"/>
      <point x="959" y="0" type="line"/>
      <point x="1298" y="301" type="line"/>
      <point x="1342" y="531" type="line"/>
      <point x="666" y="1001" type="line"/>
      <point x="680" y="1075" type="line"/>
      <point x="771" y="1159" type="line"/>
      <point x="1454" y="1159" type="line"/>
      <point x="1483" y="1460" type="line"/>
      <point x="662" y="1460" type="line"/>
      <point x="323" y="1159" type="line"/>
      <point x="279" y="929" type="line"/>
      <point x="956" y="459" type="line"/>
      <point x="942" y="385" type="line"/>
      <point x="851" y="301" type="line"/>
      <point x="147" y="301" type="line"/>
    </contour>
    <contour>
      <point x="560" y="1908" type="line"/>
      <point x="874" y="1908" type="line"/>
      <point x="1026" y="1662" type="line"/>
      <point x="958" y="1662" type="line"/>
      <point x="1207" y="1908" type="line"/>
      <point x="1521" y="1908" type="line"/>
      <point x="1177" y="1620" type="line"/>
      <point x="791" y="1620" type="line"/>
    </contour>
  </outline>
</glyph>
<glyph name="tcaron" format="2">
  <advance width="1555"/>
  <unicode hex="0165"/>
  <outline>
    <contour>
      <point x="609" y="-1" type="line"/>
      <point x="1242" y="-1" type="line"/>
      <point x="1296" y="280" type="line"/>
      <point x="833" y="280" type="line"/>
      <point x="743" y="432" type="line"/>
      <point x="920" y="1341" type="line"/>
      <point x="583" y="1281" type="line"/>
      <point x="396" y="318" type="line"/>
    </contour>
    <contour>
      <point x="169" y="695" type="line"/>
      <point x="1377" y="695" type="line"/>
      <point x="1427" y="953" type="line"/>
      <point x="219" y="953" type="line"/>
    </contour>
    <contour>
      <point x="1360" y="1242" type="line"/>
      <point x="1627" y="1242" type="line"/>
      <point x="1745" y="1638" type="line"/>
      <point x="1454" y="1638" type="line"/>
    </contour>
  </outline>
</glyph>
<glyph name="Uhungarumlaut" format="2">
  <advance width="1555"/>
  <unicode hex="0170"/>
  <outline>
    <contour>
      <point x="300" y="0" type="line"/>
      <point x="1054" y="0" type="line"/>
      <point x="1348" y="295" type="line"/>
      <point x="1575" y="1460" type="line"/>
      <point x="1240" y="1460" type="line"/>
      <point x="1033" y="396" type="line"/>
      <point x="909" y="271" type="line"/>
      <point x="541" y="271" type="line"/>
      <point x="465" y="396" type="line"/>
      <point x="672" y="1460" type="line"/>
      <point x="337" y="1460" type="line"/>
      <point x="112" y="305" type="line"/>
    </contour>
    <contour>
      <point x="591" y="1620" type="line"/>
      <point x="843" y="1620" type="line"/>
      <point x="1109" y="1919" type="line"/>
      <point x="814" y="1919" type="line"/>
    </contour>
    <contour>
      <point x="1116" y="1620" type="line"/>
      <point x="1366" y="1620" type="line"/>
      <point x="1633" y="1919" type="line"/>
      <point x="1338" y="1919" type="line"/>
    </contour>
  </outline>
</glyph>
<glyph name="Wcircumflex" format="2">
  <advance width="1555"/>
  <unicode hex="0174"/>
  <outline>
    <contour>
      <point x="324" y="0" type="line"/>
      <point x="552" y="0" type="line"/>
      <point x="814" y="578" type="line"/>
      <point x="757" y="578" type="line"/>
      <point x="786" y="0" type="line"/>
      <point x="1022" y="0" type="line"/>
      <point x="1369" y="687" type="line"/>
      <point x="1519" y="1460" type="line"/>
      <point x="1249" y="1460" type="line"/>
      <point x="1103" y="711" type="line"/>
      <point x="919" y="306" type="line"/>
      <point x="936" y="306" type="line"/>
      <point x="932" y="771" type="line"/>
      <point x="983" y="1032" type="line"/>
      <point x="760" y="1032" type="line"/>
      <point x="709" y="771" type="line"/>
      <point x="523" y="306" type="line"/>
      <point x="540" y="306" type="line"/>
      <point x="514" y="711" type="line"/>
      <point x="660" y="1460" type="line"/>
      <point x="395" y="1460" type="line"/>
      <point x="245" y="687" type="line"/>
    </contour>
    <contour>
      <point x="507" y="1620" type="line"/>
      <point x="821" y="1620" type="line"/>
      <point x="1069" y="1866" type="line"/>
      <point x="1001" y="1866" type="line"/>
      <point x="1154" y="1620" type="line"/>
      <point x="1468" y="1620" type="line"/>
      <point x="1236" y="1908" type="line"/>
      <point x="850" y="1908" type="line"/>
    </contour>
  </outline>
</glyph>
<glyph name="Ydieresis" format="2">
  <advance width="1555"/>
  <unicode hex="0178"/>
  <outline>
    <contour>
      <point x="609" y="507" type="line"/>
      <point x="935" y="507" type="line"/>
      <point x="1504" y="1044" type="line"/>
      <point x="1585" y="1460" type="line"/>
      <point x="1250" y="1460" type="line"/>
      <point x="1189" y="1146" type="line"/>
      <point x="779" y="756" type="line"/>
      <point x="851" y="756" type="line"/>
      <point x="592" y="1146" type="line"/>
      <point x="653" y="1460" type="line"/>
      <point x="328" y="1460" type="line"/>
      <point x="247" y="1044" type="line"/>
    </contour>
    <contour>
      <point x="508" y="0" type="line"/>
      <point x="837" y="0" type="line"/>
      <point x="964" y="651" type="line"/>
      <point x="635" y="651" type="line"/>
    </contour>
    <contour>
      <point x="657" y="1629" type="line"/>
      <point x="861" y="1797" type="line"/>
      <point x="723" y="1964" type="line"/>
      <point x="518" y="1797" type="line"/>
    </contour>
    <contour>
      <point x="1330" y="1629" type="line"/>
      <point x="1534" y="1797" type="line"/>
      <point x="1396" y="1964" type="line"/>
      <point x="1191" y="1797" type="line"/>
    </contour>
  </outline>
</glyph>
<glyph name="Zdotaccent" format="2">
  <advance width="1555"/>
  <unicode hex="017B"/>
  <outline>
    <contour>
      <point x="110" y="0" type="line"/>
      <point x="1257" y="0" type="line"/>
      <point x="1369" y="266" type="line"/>
      <point x="375" y="266" type="line"/>
      <point x="423" y="160" type="line"/>
      <point x="1503" y="1245" type="line"/>
      <point x="1484" y="1460" type="line"/>
      <point x="399" y="1460" type="line"/>
      <point x="287" y="1196" type="line"/>
      <point x="1247" y="1196" type="line"/>
      <point x="1163" y="1291" type="line"/>
      <point x="94" y="226" type="line"/>
    </contour>
    <contour>
      <point x="1020" y="1629" type="line"/>
      <point x="1227" y="1797" type="line"/>
      <point x="1085" y="1964" type="line"/>
      <point x="877" y="1797" type="line"/>
    </contour>
  </outline>
</glyph>
<glyph name="zcaron" format="2">
  <advance width="1555"/>
  <unicode hex="017E"/>
  <outline>
    <contour>
      <point x="128" y="0" type="line"/>
      <point x="1265" y="0" type="line"/>
      <point x="1347" y="267" type="line"/>
      <point x="348" y="267" type="line"/>
      <point x="421" y="144" type="line"/>
      <point x="1421" y="867" type="line"/>
      <point x="1382" y="1082" type="line"/>
      <point x="281" y="1082" type="line"/>
      <point x="200" y="816" type="line"/>
      <point x="1173" y="816" type="line"/>
      <point x="1011" y="858" type="line"/>
      <point x="92" y="227" type="line"/>
    </contour>
    <contour>
      <point x="499" y="1643" type="line"/>
      <point x="793" y="1643" type="line"/>
      <point x="976" y="1347" type="line"/>
      <point x="908" y="1347" type="line"/>
      <point x="1206" y="1643" type="line"/>
      <point x="1500" y="1643" type="line"/>
      <point x="1121" y="1275" type="line"/>
      <point x="735" y="1275" type="line"/>
    </contour>
  </outline>
</glyph>
<glyph name="Gcaron" format="2">
  <advance width="1555"/>
  <unicode hex="01E6"/>
  <outline>
    <contour>
      <point x="423" y="0" type="line"/>
      <point x="1006" y="0" type="line"/>
      <point x="1391" y="341" type="line"/>
      <point x="1486" y="829" type="line"/>
      <point x="850" y="829" type="line"/>
      <point x="802" y="582" type="line"/>
      <point x="1240" y="582" type="line"/>
      <point x="1185" y="669" type="line"/>
      <point x="1147" y="471" type="line"/>
      <point x="945" y="301" type="line"/>
      <point x="642" y="301" type="line"/>
      <point x="446" y="632" type="line"/>
      <point x="480" y="808" type="line"/>
      <point x="832" y="1159" type="line"/>
      <point x="1480" y="1159" type="line"/>
      <point x="1509" y="1460" type="line"/>
      <point x="721" y="1460" type="line"/>
      <point x="179" y="932" type="line"/>
      <point x="101" y="528" type="line"/>
    </contour>
    <contour>
      <point x="653" y="1908" type="line"/>
      <point x="967" y="1908" type="line"/>
      <point x="1119" y="1662" type="line"/>
      <point x="1051" y="1662" type="line"/>
      <point x="1300" y="1908" type="line"/>
      <point x="1614" y="1908" type="line"/>
      <point x="1270" y="1620" type="line"/>
      <point x="884" y="1620" type="line"/>
    </contour>
  </outline>
</glyph>
<glyph name="oogonek" format="2">
  <advance width="1555"/>
  <unicode hex="01EB"/>
  <outline>
    <contour>
      <point x="475" y="0" type="line"/>
      <point x="870" y="0" type="line"/>
      <point x="1413" y="376" type="line"/>
      <point x="1477" y="706" type="line"/>
      <point x="1086" y="1082" type="line"/>
      <point x="685" y="1082" type="line"/>
      <point x="142" y="706" type="line"/>
      <point x="78" y="376" type="line"/>
    </contour>
    <contour>
      <point x="642" y="281" type="line"/>
      <point x="403" y="477" type="line"/>
      <point x="428" y="605" type="line"/>
      <point x="763" y="801" type="line"/>
      <point x="914" y="801" type="line"/>
      <point x="1153" y="605" type="line"/>
      <point x="1128" y="477" type="line"/>
      <point x="793" y="281" type="line"/>
    </contour>
    <contour>
      <point x="401" y="-146" type="line"/>
      <point x="367" y="-320" type="line"/>
      <point x="551" y="-443" type="line"/>
      <point x="765" y="-443" type="line"/>
      <point x="804" y="-240" type="line"/>
      <point x="682" y="-240" type="line"/>
      <point x="636" y="-210" type="line"/>
      <point x="643" y="-173" type="line"/>
      <point x="870" y="0" type="line"/>
      <point x="762" y="44" type="line"/>
    </contour>
  </outline>
</glyph>
<glyph name="aeacute" format="2">
  <advance width="1555"/>
  <unicode hex="01FD"/>
  <outline>
    <contour>
      <point x="816" y="1082" type="line"/>
      <point x="294" y="1082" type="line"/>
      <point x="221" y="859" type="line"/>
      <point x="656" y="859" type="line"/>
      <point x="694" y="764" type="line"/>
      <point x="680" y="693" type="line"/>
      <point x="898" y="693" type="line"/>
      <point x="925" y="833" type="line"/>
    </contour>
    <contour>
      <point x="371" y="643" type="line"/>
      <point x="84" y="477" type="line"/>
      <point x="29" y="193" type="line"/>
      <point x="264" y="-10" type="line"/>
      <point x="637" y="122" type="line"/>
      <point x="752" y="122" type="line"/>
      <point x="787" y="302" type="line"/>
      <point x="691" y="302" type="line"/>
      <point x="391" y="211" type="line"/>
      <point x="273" y="294" type="line"/>
      <point x="292" y="393" type="line"/>
      <point x="404" y="453" type="line"/>
      <point x="730" y="453" type="line"/>
      <point x="767" y="643" type="line"/>
    </contour>
    <contour>
      <point x="1014" y="1082" type="line"/>
      <point x="685" y="722" type="line"/>
      <point x="587" y="218" type="line"/>
      <point x="824" y="0" type="line"/>
      <point x="1283" y="0" type="line"/>
      <point x="1356" y="221" type="line"/>
      <point x="957" y="221" type="line"/>
      <point x="831" y="343" type="line"/>
      <point x="892" y="659" type="line"/>
      <point x="1069" y="851" type="line"/>
      <point x="1258" y="851" type="line"/>
      <point x="1307" y="813" type="line"/>
      <point x="1284" y="697" type="line"/>
      <point x="1214" y="643" type="line"/>
      <point x="849" y="643" type="line"/>
      <point x="812" y="453" type="line"/>
      <point x="1302" y="453" type="line"/>
      <point x="1465" y="569" type="line"/>
      <point x="1533" y="921" type="line"/>
      <point x="1350" y="1082" type="line"/>
    </contour>
    <contour>
      <point x="1064" y="1275" type="line"/>
      <point x="785" y="1275" type="line"/>
      <point x="1073" y="1643" type="line"/>
      <point x="1426" y="1643" type="line"/>
    </contour>
  </outline>
</glyph>
<glyph name="scommaaccent" format="2">
  <advance width="1555"/>
  <unicode hex="0219"/>
  <outline>
    <contour>
      <point x="82" y="0" type="line"/>
      <point x="1075" y="0" type="line"/>
      <point x="1312" y="226" type="line"/>
      <point x="1350" y="421" type="line"/>
      <point x="576" y="769" type="line"/>
      <point x="588" y="826" type="line"/>
      <point x="642" y="846" type="line"/>
      <point x="1450" y="846" type="line"/>
      <point x="1466" y="1082" type="line"/>
      <point x="480" y="1082" type="line"/>
      <point x="243" y="856" type="line"/>
      <point x="207" y="670" type="line"/>
      <point x="985" y="322" type="line"/>
      <point x="972" y="257" type="line"/>
      <point x="917" y="236" type="line"/>
      <point x="98" y="236" type="line"/>
    </contour>
    <contour>
      <point x="417" y="-494" type="line"/>
      <point x="658" y="-494" type="line"/>
      <point x="673" y="-418" type="line"/>
      <point x="373" y="-721" type="line"/>
      <point x="485" y="-786" type="line"/>
      <point x="758" y="-504" type="line"/>
      <point x="827" y="-151" type="line"/>
      <point x="484" y="-151" type="line"/>
    </contour>
  </outline>
</glyph>
<glyph name="jdotless" format="2">
  <advance width="1555"/>
  <unicode hex="0237"/>
  <outline>
    <contour>
      <point x="27" y="-400" type="line"/>
      <point x="615" y="-400" type="line"/>
      <point x="952" y="-81" type="line"/>
      <point x="1137" y="867" type="line"/>
      <point x="993" y="1082" type="line"/>
      <point x="369" y="1082" type="line"/>
      <point x="281" y="781" type="line"/>
      <point x="854" y="781" type="line"/>
      <point x="806" y="836" type="line"/>
      <point x="649" y="33" type="line"/>
      <point x="504" y="-99" type="line"/>
      <point x="56" y="-99" type="line"/>
    </contour>
  </outline>
</glyph>
<glyph name="nhookleft" format="2">
  <advance width="1555"/>
  <unicode hex="0272"/>
  <outline>
    <contour>
      <point x="350" y="50" type="line"/>
      <point x="25" y="50" type="line"/>
      <point x="4" y="-57" type="line"/>
      <point x="-44" y="-99" type="line"/>
      <point x="-192" y="-99" type="line"/>
      <point x="-221" y="-400" type="line"/>
      <point x="67" y="-400" type="line"/>
      <point x="307" y="-171" type="line"/>
    </contour>
    <contour>
      <point x="992" y="0" type="line"/>
      <point x="1317" y="0" type="line"/>
      <point x="1476" y="820" type="line"/>
      <point x="1161" y="1106" type="line"/>
      <point x="379" y="928" type="line"/>
      <point x="344" y="747" type="line"/>
      <point x="982" y="823" type="line"/>
      <point x="1136" y="740" type="line"/>
    </contour>
    <contour>
      <point x="15" y="0" type="line"/>
      <point x="340" y="0" type="line"/>
      <point x="513" y="892" type="line"/>
      <point x="470" y="1082" type="line"/>
      <point x="225" y="1082" type="line"/>
    </contour>
  </outline>
</glyph>
<glyph name="breve" format="2">
  <advance width="1555"/>
  <unicode hex="02D8"/>
  <outline>
    <contour>
      <point x="688" y="1275" type="line"/>
      <point x="1153" y="1275" type="line"/>
      <point x="1402" y="1460" type="line"/>
      <point x="1437" y="1643" type="line"/>
      <point x="1234" y="1643" type="line"/>
      <point x="1213" y="1532" type="line"/>
      <point x="1095" y="1440" type="line"/>
      <point x="810" y="1440" type="line"/>
      <point x="728" y="1532" type="line"/>
      <point x="749" y="1643" type="line"/>
      <point x="546" y="1643" type="line"/>
      <point x="511" y="1459" type="line"/>
    </contour>
  </outline>
</glyph>
<glyph name="dotaccent" format="2">
  <advance width="1555"/>
  <unicode hex="02D9"/>
  <outline>
    <contour>
      <point x="911" y="1231" type="line"/>
      <point x="1170" y="1441" type="line"/>
      <point x="993" y="1650" type="line"/>
      <point x="733" y="1441" type="line"/>
    </contour>
  </outline>
</glyph>
<glyph name="hungarumlaut" format="2">
  <advance width="1555"/>
  <unicode hex="02DD"/>
  <outline>
    <contour>
      <point x="533" y="1275" type="line"/>
      <point x="785" y="1275" type="line"/>
      <point x="1064" y="1643" type="line"/>
      <point x="769" y="1643" type="line"/>
    </contour>
    <contour>
      <point x="1058" y="1275" type="line"/>
      <point x="1308" y="1275" type="line"/>
      <point x="1588" y="1643" type="line"/>
      <point x="1293" y="1643" type="line"/>
    </contour>
  </outline>
</glyph>
<glyph name="acutecomb" format="2">
  <unicode hex="0301"/>
  <outline>
    <contour>
      <point x="1088" y="1275" type="line"/>
      <point x="809" y="1275" type="line"/>
      <point x="1097" y="1643" type="line"/>
      <point x="1450" y="1643" type="line"/>
    </contour>
  </outline>
</glyph>
<glyph name="circumflexcomb" format="2">
  <unicode hex="0302"/>
  <outline>
    <contour>
      <point x="420" y="1275" type="line"/>
      <point x="714" y="1275" type="line"/>
      <point x="1011" y="1571" type="line"/>
      <point x="943" y="1571" type="line"/>
      <point x="1127" y="1275" type="line"/>
      <point x="1421" y="1275" type="line"/>
      <point x="1184" y="1643" type="line"/>
      <point x="798" y="1643" type="line"/>
    </contour>
  </outline>
</glyph>
<glyph name="tildecomb" format="2">
  <unicode hex="0303"/>
  <outline>
    <contour>
      <point x="958" y="1613" type="line"/>
      <point x="644" y="1613" type="line"/>
      <point x="455" y="1430" type="line"/>
      <point x="421" y="1257" type="line"/>
      <point x="624" y="1257" type="line"/>
      <point x="644" y="1358" type="line"/>
      <point x="732" y="1450" type="line"/>
      <point x="814" y="1450" type="line"/>
      <point x="946" y="1257" type="line"/>
      <point x="1260" y="1257" type="line"/>
      <point x="1449" y="1440" type="line"/>
      <point x="1483" y="1613" type="line"/>
      <point x="1280" y="1613" type="line"/>
      <point x="1258" y="1502" type="line"/>
      <point x="1172" y="1420" type="line"/>
      <point x="1090" y="1420" type="line"/>
    </contour>
  </outline>
</glyph>
<glyph name="dotaccentcomb" format="2">
  <unicode hex="0307"/>
  <outline>
    <contour>
      <point x="911" y="1231" type="line"/>
      <point x="1170" y="1441" type="line"/>
      <point x="993" y="1650" type="line"/>
      <point x="733" y="1441" type="line"/>
    </contour>
  </outline>
</glyph>
<glyph name="dieresiscomb" format="2">
  <unicode hex="0308"/>
  <outline>
    <contour>
      <point x="575" y="1231" type="line"/>
      <point x="828" y="1441" type="line"/>
      <point x="656" y="1650" type="line"/>
      <point x="402" y="1441" type="line"/>
    </contour>
    <contour>
      <point x="1248" y="1231" type="line"/>
      <point x="1501" y="1441" type="line"/>
      <point x="1329" y="1650" type="line"/>
      <point x="1075" y="1441" type="line"/>
    </contour>
  </outline>
</glyph>
<glyph name="hungarumlautcomb" format="2">
  <unicode hex="030B"/>
  <outline>
    <contour>
      <point x="533" y="1275" type="line"/>
      <point x="785" y="1275" type="line"/>
      <point x="1064" y="1643" type="line"/>
      <point x="769" y="1643" type="line"/>
    </contour>
    <contour>
      <point x="1058" y="1275" type="line"/>
      <point x="1308" y="1275" type="line"/>
      <point x="1588" y="1643" type="line"/>
      <point x="1293" y="1643" type="line"/>
    </contour>
  </outline>
</glyph>
<glyph name="caroncomb" format="2">
  <unicode hex="030C"/>
  <outline>
    <contour>
      <point x="491" y="1643" type="line"/>
      <point x="785" y="1643" type="line"/>
      <point x="968" y="1347" type="line"/>
      <point x="900" y="1347" type="line"/>
      <point x="1198" y="1643" type="line"/>
      <point x="1492" y="1643" type="line"/>
      <point x="1113" y="1275" type="line"/>
      <point x="727" y="1275" type="line"/>
    </contour>
  </outline>
</glyph>
<glyph name="dotbelowcomb" format="2">
  <unicode hex="0323"/>
  <outline>
    <contour>
      <point x="569" y="-528" type="line"/>
      <point x="828" y="-318" type="line"/>
      <point x="651" y="-109" type="line"/>
      <point x="391" y="-318" type="line"/>
    </contour>
  </outline>
</glyph>
<glyph name="commaaccentcomb" format="2">
  <unicode hex="0326"/>
  <outline>
    <contour>
      <point x="404" y="-494" type="line"/>
      <point x="645" y="-494" type="line"/>
      <point x="660" y="-418" type="line"/>
      <point x="360" y="-721" type="line"/>
      <point x="472" y="-786" type="line"/>
      <point x="745" y="-504" type="line"/>
      <point x="814" y="-151" type="line"/>
      <point x="471" y="-151" type="line"/>
    </contour>
  </outline>
</glyph>
<glyph name="odotbelow" format="2">
  <advance width="1555"/>
  <unicode hex="1ECD"/>
  <outline>
    <contour>
      <point x="475" y="0" type="line"/>
      <point x="870" y="0" type="line"/>
      <point x="1413" y="376" type="line"/>
      <point x="1477" y="706" type="line"/>
      <point x="1086" y="1082" type="line"/>
      <point x="685" y="1082" type="line"/>
      <point x="142" y="706" type="line"/>
      <point x="78" y="376" type="line"/>
    </contour>
    <contour>
      <point x="642" y="281" type="line"/>
      <point x="403" y="477" type="line"/>
      <point x="428" y="605" type="line"/>
      <point x="763" y="801" type="line"/>
      <point x="914" y="801" type="line"/>
      <point x="1153" y="605" type="line"/>
      <point x="1128" y="477" type="line"/>
      <point x="793" y="281" type="line"/>
    </contour>
    <contour>
      <point x="570" y="-528" type="line"/>
      <point x="829" y="-318" type="line"/>
      <point x="652" y="-109" type="line"/>
      <point x="392" y="-318" type="line"/>
    </contour>
  </outline>
</glyph>
<glyph name="udotbelow" format="2">
  <advance width="1555"/>
  <unicode hex="1EE5"/>
  <outline>
    <contour>
      <point x="556" y="1082" type="line"/>
      <point x="231" y="1082" type="line"/>
      <point x="72" y="262" type="line"/>
      <point x="387" y="-24" type="line"/>
      <point x="1169" y="154" type="line"/>
      <point x="1204" y="335" type="line"/>
      <point x="566" y="259" type="line"/>
      <point x="412" y="342" type="line"/>
    </contour>
    <contour>
      <point x="1533" y="1082" type="line"/>
      <point x="1208" y="1082" type="line"/>
      <point x="1035" y="190" type="line"/>
      <point x="1078" y="0" type="line"/>
      <point x="1323" y="0" type="line"/>
    </contour>
    <contour>
      <point x="570" y="-528" type="line"/>
      <point x="829" y="-318" type="line"/>
      <point x="652" y="-109" type="line"/>
      <point x="392" y="-318" type="line"/>
    </contour>
  </outline>
</glyph>
<glyph name="daggerdbl" format="2">
  <advance width="1555"/>
  <unicode hex="2021"/>
  <outline>
    <contour>
      <point x="796" y="-220" type="line"/>
      <point x="1123" y="1460" type="line"/>
      <point x="793" y="1460" type="line"/>
      <point x="466" y="-220" type="line"/>
    </contour>
    <contour>
      <point x="317" y="809" type="line"/>
      <point x="1343" y="809" type="line"/>
      <point x="1396" y="1080" type="line"/>
      <point x="370" y="1080" type="line"/>
    </contour>
    <contour>
      <point x="191" y="160" type="line"/>
      <point x="1217" y="160" type="line"/>
      <point x="1270" y="431" type="line"/>
      <point x="244" y="431" type="line"/>
    </contour>
  </outline>
</glyph>
<glyph name="ellipsis" format="2">
  <advance width="1555"/>
  <unicode hex="2026"/>
  <outline>
    <contour>
      <point x="173" y="-27" type="curve" smooth="yes"/>
      <point x="276" y="-27"/>
      <point x="370" y="43"/>
      <point x="394" y="164" type="curve" smooth="yes"/>
      <point x="418" y="287"/>
      <point x="342" y="364"/>
      <point x="239" y="364" type="curve" smooth="yes"/>
      <point x="134" y="364"/>
      <point x="40" y="297"/>
      <point x="16" y="175" type="curve" smooth="yes"/>
      <point x="-8" y="53"/>
      <point x="68" y="-27"/>
    </contour>
    <contour>
      <point x="674" y="-27" type="curve" smooth="yes"/>
      <point x="777" y="-27"/>
      <point x="871" y="43"/>
      <point x="895" y="164" type="curve" smooth="yes"/>
      <point x="919" y="287"/>
      <point x="843" y="364"/>
      <point x="740" y="364" type="curve" smooth="yes"/>
      <point x="635" y="364"/>
      <point x="541" y="297"/>
      <point x="517" y="175" type="curve" smooth="yes"/>
      <point x="493" y="53"/>
      <point x="569" y="-27"/>
    </contour>
    <contour>
      <point x="1175" y="-27" type="curve" smooth="yes"/>
      <point x="1278" y="-27"/>
      <point x="1372" y="43"/>
      <point x="1396" y="164" type="curve" smooth="yes"/>
      <point x="1420" y="287"/>
      <point x="1344" y="364"/>
      <point x="1241" y="364" type="curve" smooth="yes"/>
      <point x="1136" y="364"/>
      <point x="1042" y="297"/>
      <point x="1018" y="175" type="curve" smooth="yes"/>
      <point x="994" y="53"/>
      <point x="1070" y="-27"/>
    </contour>
  </outline>
</glyph>
<glyph name="guilsinglleft" format="2">
  <advance width="1555"/>
  <unicode hex="2039"/>
  <outline>
    <contour>
      <point x="998" y="116" type="line"/>
      <point x="712" y="684" type="line"/>
      <point x="420" y="539" type="line"/>
      <point x="686" y="-24" type="line"/>
    </contour>
    <contour>
      <point x="907" y="1106" type="line"/>
      <point x="420" y="539" type="line"/>
      <point x="658" y="396" type="line"/>
      <point x="1159" y="948" type="line"/>
    </contour>
  </outline>
</glyph>
<glyph name="guilsinglright" format="2">
  <advance width="1555"/>
  <unicode hex="203A"/>
  <outline>
    <contour>
      <point x="558" y="966" type="line"/>
      <point x="843" y="398" type="line"/>
      <point x="1136" y="543" type="line"/>
      <point x="869" y="1106" type="line"/>
    </contour>
    <contour>
      <point x="648" y="-24" type="line"/>
      <point x="1136" y="543" type="line"/>
      <point x="897" y="686" type="line"/>
      <point x="396" y="134" type="line"/>
    </contour>
  </outline>
</glyph>
<glyph name="oneinferior" format="2">
  <advance width="1555"/>
  <unicode hex="2081"/>
  <outline>
    <contour>
      <point x="505" y="211" type="curve"/>
      <point x="473" y="45" type="line"/>
      <point x="604" y="45"/>
      <point x="756" y="193"/>
      <point x="771" y="275" type="curve"/>
      <point x="658" y="275" type="line"/>
      <point x="628" y="226"/>
      <point x="552" y="211"/>
    </contour>
    <contour>
      <point x="715" y="-280" type="line"/>
      <point x="822" y="275" type="line"/>
      <point x="658" y="275" type="line"/>
      <point x="551" y="-280" type="line"/>
    </contour>
    <contour>
      <point x="395" y="-280" type="line"/>
      <point x="866" y="-280" type="line"/>
      <point x="891" y="-150" type="line"/>
      <point x="420" y="-150" type="line"/>
    </contour>
  </outline>
</glyph>
<glyph name="fourinferior" format="2">
  <advance width="1555"/>
  <unicode hex="2084"/>
  <outline>
    <contour>
      <point x="813" y="-280" type="line"/>
      <point x="920" y="275" type="line"/>
      <point x="747" y="275" type="line"/>
      <point x="402" y="-39" type="line"/>
      <point x="377" y="-169" type="line"/>
      <point x="913" y="-169" type="line"/>
      <point x="938" y="-39" type="line"/>
      <point x="809" y="-39" type="line"/>
      <point x="752" y="-49" type="line"/>
      <point x="504" y="-49" type="line"/>
      <point x="526" y="-75" type="line"/>
      <point x="760" y="124" type="line"/>
      <point x="735" y="134" type="line"/>
      <point x="655" y="-280" type="line"/>
    </contour>
  </outline>
</glyph>
<glyph name="colonsign" format="2">
  <advance width="1555"/>
  <unicode hex="20A1"/>
  <outline>
    <contour>
      <point x="553" y="-295" type="line"/>
      <point x="439" y="-295" type="line"/>
      <point x="1121" y="1755" type="line"/>
      <point x="1235" y="1755" type="line"/>
    </contour>
    <contour>
      <point x="827" y="-295" type="line"/>
      <point x="713" y="-295" type="line"/>
      <point x="1395" y="1755" type="line"/>
      <point x="1509" y="1755" type="line"/>
    </contour>
    <contour>
      <point x="1594" y="1379" type="curve"/>
      <point x="1452" y="1102" type="line"/>
      <point x="1336" y="1157"/>
      <point x="1223" y="1185"/>
      <point x="1075" y="1185" type="curve" smooth="yes"/>
      <point x="849" y="1185"/>
      <point x="600" y="1120"/>
      <point x="526" y="740" type="curve" smooth="yes"/>
      <point x="452" y="361"/>
      <point x="672" y="275"/>
      <point x="898" y="275" type="curve" smooth="yes"/>
      <point x="1046" y="275"/>
      <point x="1172" y="313"/>
      <point x="1312" y="379" type="curve"/>
      <point x="1343" y="94" type="line"/>
      <point x="1178" y="18"/>
      <point x="1015" y="-24"/>
      <point x="811" y="-24" type="curve" smooth="yes"/>
      <point x="339" y="-24"/>
      <point x="45" y="209"/>
      <point x="150" y="750" type="curve" smooth="yes"/>
      <point x="257" y="1301"/>
      <point x="614" y="1484"/>
      <point x="1097" y="1484" type="curve" smooth="yes"/>
      <point x="1290" y="1484"/>
      <point x="1457" y="1453"/>
    </contour>
  </outline>
</glyph>
<glyph name="ruble" format="2">
  <advance width="1555"/>
  <unicode hex="20BD"/>
  <outline>
    <contour>
      <point x="530" y="0" type="line"/>
      <point x="814" y="1460" type="line"/>
      <point x="477" y="1460" type="line"/>
      <point x="193" y="0" type="line"/>
    </contour>
    <contour>
      <point x="120" y="793" type="line"/>
      <point x="75" y="563" type="line"/>
      <point x="694" y="563" type="line" smooth="yes"/>
      <point x="1196" y="563"/>
      <point x="1401" y="784"/>
      <point x="1454" y="1053" type="curve" smooth="yes"/>
      <point x="1512" y="1351"/>
      <point x="1334" y="1460"/>
      <point x="1042" y="1460" type="curve" smooth="yes"/>
      <point x="700" y="1460" type="line"/>
      <point x="657" y="1238" type="line"/>
      <point x="892" y="1238" type="line" smooth="yes"/>
      <point x="1063" y="1238"/>
      <point x="1137" y="1182"/>
      <point x="1109" y="1037" type="curve" smooth="yes"/>
      <point x="1081" y="893"/>
      <point x="976" y="793"/>
      <point x="789" y="793" type="curve" smooth="yes"/>
    </contour>
    <contour>
      <point x="1071" y="179" type="line"/>
      <point x="1116" y="409" type="line"/>
      <point x="46" y="409" type="line"/>
      <point x="1" y="179" type="line"/>
    </contour>
  </outline>
</glyph>
<glyph name="literSign" format="2">
  <advance width="1555"/>
  <unicode hex="2113"/>
  <outline>
    <contour>
      <point x="845" y="-22" type="curve" smooth="yes"/>
      <point x="1013" y="-22"/>
      <point x="1117" y="7"/>
      <point x="1266" y="51" type="curve"/>
      <point x="1262" y="295" type="line"/>
      <point x="1167" y="264"/>
      <point x="1061" y="244"/>
      <point x="974" y="244" type="curve" smooth="yes"/>
      <point x="767" y="244"/>
      <point x="703" y="357"/>
      <point x="782" y="759" type="curve" smooth="yes"/>
      <point x="859" y="1157"/>
      <point x="961" y="1244"/>
      <point x="1085" y="1244" type="curve" smooth="yes"/>
      <point x="1191" y="1244"/>
      <point x="1213" y="1179"/>
      <point x="1195" y="1085" type="curve" smooth="yes"/>
      <point x="1134" y="773"/>
      <point x="718" y="596"/>
      <point x="127" y="387" type="curve"/>
      <point x="162" y="208" type="line"/>
      <point x="763" y="426"/>
      <point x="1322" y="625"/>
      <point x="1416" y="1106" type="curve" smooth="yes"/>
      <point x="1460" y="1330"/>
      <point x="1366" y="1484"/>
      <point x="1086" y="1484" type="curve" smooth="yes"/>
      <point x="776" y="1484"/>
      <point x="554" y="1319"/>
      <point x="438" y="719" type="curve" smooth="yes"/>
      <point x="318" y="103"/>
      <point x="502" y="-22"/>
    </contour>
  </outline>
</glyph>
<glyph name="numero" format="2">
  <advance width="1555"/>
  <unicode hex="2116"/>
  <outline>
    <contour>
      <point x="478" y="0" type="line"/>
      <point x="775" y="0" type="line"/>
      <point x="1059" y="1460" type="line"/>
      <point x="817" y="1460" type="line"/>
      <point x="630" y="498" type="line"/>
      <point x="610" y="498" type="line"/>
      <point x="558" y="1460" type="line"/>
      <point x="259" y="1460" type="line"/>
      <point x="-25" y="0" type="line"/>
      <point x="217" y="0" type="line"/>
      <point x="401" y="947" type="line"/>
      <point x="421" y="947" type="line"/>
    </contour>
    <contour>
      <point x="1630" y="1080" type="curve" smooth="yes"/>
      <point x="1683" y="1355"/>
      <point x="1578" y="1484"/>
      <point x="1431" y="1484" type="curve" smooth="yes"/>
      <point x="1284" y="1484"/>
      <point x="1153" y="1375"/>
      <point x="1100" y="1100" type="curve" smooth="yes"/>
      <point x="1046" y="825"/>
      <point x="1154" y="710"/>
      <point x="1301" y="710" type="curve" smooth="yes"/>
      <point x="1448" y="710"/>
      <point x="1576" y="805"/>
    </contour>
    <contour>
      <point x="1469" y="1095" type="curve" smooth="yes"/>
      <point x="1443" y="962"/>
      <point x="1394" y="910"/>
      <point x="1330" y="910" type="curve" smooth="yes"/>
      <point x="1266" y="910"/>
      <point x="1237" y="962"/>
      <point x="1263" y="1095" type="curve" smooth="yes"/>
      <point x="1289" y="1229"/>
      <point x="1339" y="1285"/>
      <point x="1403" y="1285" type="curve" smooth="yes"/>
      <point x="1467" y="1285"/>
      <point x="1495" y="1229"/>
    </contour>
    <contour>
      <point x="1194" y="213" type="curve" smooth="yes"/>
      <point x="1287" y="213"/>
      <point x="1369" y="282"/>
      <point x="1391" y="395" type="curve" smooth="yes"/>
      <point x="1413" y="508"/>
      <point x="1358" y="575"/>
      <point x="1265" y="575" type="curve" smooth="yes"/>
      <point x="1172" y="575"/>
      <point x="1091" y="508"/>
      <point x="1069" y="395" type="curve" smooth="yes"/>
      <point x="1047" y="282"/>
      <point x="1101" y="213"/>
    </contour>
  </outline>
</glyph>
<glyph name="versicle" format="2">
  <advance width="9330"/>
  <unicode hex="2123"/>
  <outline>
    <contour>
      <point x="507" y="0" type="line"/>
      <point x="837" y="0" type="line"/>
      <point x="1443" y="639" type="line"/>
      <point x="1529" y="1082" type="line"/>
      <point x="1209" y="1082" type="line"/>
      <point x="1138" y="713" type="line"/>
      <point x="657" y="176" type="line"/>
      <point x="741" y="176" type="line"/>
      <point x="485" y="693" type="line"/>
      <point x="560" y="1082" type="line"/>
      <point x="235" y="1082" type="line"/>
      <point x="149" y="639" type="line"/>
    </contour>
    <contour>
      <point x="2097" y="0" type="line"/>
      <point x="2427" y="0" type="line"/>
      <point x="2711" y="1460" type="line"/>
      <point x="2461" y="1460" type="line"/>
      <point x="1977" y="1351" type="line"/>
      <point x="1920" y="1062" type="line"/>
      <point x="2448" y="1177" type="line"/>
      <point x="2347" y="1288" type="line"/>
    </contour>
    <contour>
      <point x="1636" y="0" type="line"/>
      <point x="2850" y="0" type="line"/>
      <point x="2903" y="271" type="line"/>
      <point x="1689" y="271" type="line"/>
    </contour>
    <contour>
      <point x="3782" y="-41" type="curve" smooth="yes"/>
      <point x="3911" y="-41"/>
      <point x="4028" y="41"/>
      <point x="4056" y="184" type="curve" smooth="yes"/>
      <point x="4084" y="328"/>
      <point x="3988" y="419"/>
      <point x="3859" y="419" type="curve" smooth="yes"/>
      <point x="3728" y="419"/>
      <point x="3611" y="340"/>
      <point x="3583" y="196" type="curve" smooth="yes"/>
      <point x="3555" y="53"/>
      <point x="3651" y="-41"/>
    </contour>
    <contour>
      <point x="5359" y="616" type="line"/>
      <point x="5556" y="616" type="line"/>
      <point x="5600" y="846" type="line"/>
      <point x="5403" y="846" type="line"/>
    </contour>
    <contour>
      <point x="5136" y="0" type="line"/>
      <point x="5541" y="0" type="line"/>
      <point x="6125" y="528" type="line"/>
      <point x="6203" y="932" type="line"/>
      <point x="5808" y="1460" type="line"/>
      <point x="5420" y="1460" type="line"/>
      <point x="4834" y="932" type="line"/>
      <point x="4756" y="528" type="line"/>
    </contour>
    <contour>
      <point x="5339" y="311" type="line"/>
      <point x="5103" y="643" type="line"/>
      <point x="5133" y="797" type="line"/>
      <point x="5522" y="1149" type="line"/>
      <point x="5620" y="1149" type="line"/>
      <point x="5856" y="817" type="line"/>
      <point x="5826" y="663" type="line"/>
      <point x="5437" y="311" type="line"/>
    </contour>
    <contour>
      <point x="6914" y="616" type="line"/>
      <point x="7111" y="616" type="line"/>
      <point x="7155" y="846" type="line"/>
      <point x="6958" y="846" type="line"/>
    </contour>
    <contour>
      <point x="6691" y="0" type="line"/>
      <point x="7096" y="0" type="line"/>
      <point x="7680" y="528" type="line"/>
      <point x="7758" y="932" type="line"/>
      <point x="7363" y="1460" type="line"/>
      <point x="6975" y="1460" type="line"/>
      <point x="6389" y="932" type="line"/>
      <point x="6311" y="528" type="line"/>
    </contour>
    <contour>
      <point x="6894" y="311" type="line"/>
      <point x="6658" y="643" type="line"/>
      <point x="6688" y="797" type="line"/>
      <point x="7077" y="1149" type="line"/>
      <point x="7175" y="1149" type="line"/>
      <point x="7411" y="817" type="line"/>
      <point x="7381" y="663" type="line"/>
      <point x="6992" y="311" type="line"/>
    </contour>
    <contour>
      <point x="8469" y="616" type="line"/>
      <point x="8666" y="616" type="line"/>
      <point x="8710" y="846" type="line"/>
      <point x="8513" y="846" type="line"/>
    </contour>
    <contour>
      <point x="8246" y="0" type="line"/>
      <point x="8651" y="0" type="line"/>
      <point x="9235" y="528" type="line"/>
      <point x="9313" y="932" type="line"/>
      <point x="8918" y="1460" type="line"/>
      <point x="8530" y="1460" type="line"/>
      <point x="7944" y="932" type="line"/>
      <point x="7866" y="528" type="line"/>
    </contour>
    <contour>
      <point x="8449" y="311" type="line"/>
      <point x="8213" y="643" type="line"/>
      <point x="8243" y="797" type="line"/>
      <point x="8632" y="1149" type="line"/>
      <point x="8730" y="1149" type="line"/>
      <point x="8966" y="817" type="line"/>
      <point x="8936" y="663" type="line"/>
      <point x="8547" y="311" type="line"/>
    </contour>
  </outline>
</glyph>
<glyph name="leftArrow" format="2">
  <advance width="1555"/>
  <unicode hex="2190"/>
  <outline>
    <contour>
      <point x="237" y="731" type="line"/>
      <point x="676" y="185" type="line"/>
      <point x="883" y="358" type="line"/>
      <point x="554" y="760" type="line"/>
      <point x="542" y="701" type="line"/>
      <point x="1027" y="1103" type="line"/>
      <point x="888" y="1276" type="line"/>
    </contour>
    <contour>
      <point x="489" y="596" type="line"/>
      <point x="1311" y="596" type="line"/>
      <point x="1363" y="865" type="line"/>
      <point x="541" y="865" type="line"/>
    </contour>
    <contour>
      <point x="747" y="948" type="line"/>
      <point x="611" y="731" type="line"/>
      <point x="665" y="513" type="line"/>
      <point x="794" y="731" type="line"/>
    </contour>
  </outline>
</glyph>
<glyph name="rightArrow" format="2">
  <advance width="1555"/>
  <unicode hex="2192"/>
  <outline>
    <contour>
      <point x="1392" y="729" type="line"/>
      <point x="953" y="1275" type="line"/>
      <point x="746" y="1102" type="line"/>
      <point x="1075" y="700" type="line"/>
      <point x="1087" y="759" type="line"/>
      <point x="601" y="357" type="line"/>
      <point x="741" y="184" type="line"/>
    </contour>
    <contour>
      <point x="1140" y="864" type="line"/>
      <point x="318" y="864" type="line"/>
      <point x="266" y="595" type="line"/>
      <point x="1088" y="595" type="line"/>
    </contour>
    <contour>
      <point x="882" y="512" type="line"/>
      <point x="1018" y="729" type="line"/>
      <point x="964" y="947" type="line"/>
      <point x="835" y="729" type="line"/>
    </contour>
  </outline>
</glyph>
<glyph name="downArrow" format="2">
  <advance width="1555"/>
  <unicode hex="2193"/>
  <outline>
    <contour>
      <point x="705" y="170" type="line"/>
      <point x="1357" y="715" type="line"/>
      <point x="1218" y="888" type="line"/>
      <point x="736" y="481" type="line"/>
      <point x="795" y="481" type="line"/>
      <point x="473" y="888" type="line"/>
      <point x="266" y="715" type="line"/>
    </contour>
    <contour>
      <point x="894" y="448" type="line"/>
      <point x="1054" y="1270" type="line"/>
      <point x="785" y="1270" type="line"/>
      <point x="625" y="448" type="line"/>
    </contour>
    <contour>
      <point x="579" y="638" type="line"/>
      <point x="778" y="544" type="line"/>
      <point x="1014" y="640" type="line"/>
      <point x="813" y="727" type="line"/>
    </contour>
  </outline>
</glyph>
<glyph name="upDownArrow" format="2">
  <advance width="1555"/>
  <unicode hex="2195"/>
  <outline>
    <contour>
      <point x="687" y="72" type="line"/>
      <point x="1203" y="444" type="line"/>
      <point x="1104" y="599" type="line"/>
      <point x="691" y="298" type="line"/>
      <point x="771" y="298" type="line"/>
      <point x="474" y="599" type="line"/>
      <point x="315" y="444" type="line"/>
    </contour>
    <contour>
      <point x="953" y="398" type="line"/>
      <point x="773" y="513" type="line"/>
      <point x="547" y="398" type="line"/>
      <point x="726" y="275" type="line"/>
    </contour>
    <contour>
      <point x="943" y="1387" type="line"/>
      <point x="426" y="1015" type="line"/>
      <point x="525" y="860" type="line"/>
      <point x="939" y="1161" type="line"/>
      <point x="859" y="1161" type="line"/>
      <point x="1155" y="860" type="line"/>
      <point x="1314" y="1015" type="line"/>
    </contour>
    <contour>
      <point x="1020" y="1196" type="line"/>
      <point x="790" y="1196" type="line"/>
      <point x="609" y="262" type="line"/>
      <point x="839" y="262" type="line"/>
    </contour>
    <contour>
      <point x="676" y="1061" type="line"/>
      <point x="857" y="946" type="line"/>
      <point x="1082" y="1061" type="line"/>
      <point x="903" y="1184" type="line"/>
    </contour>
  </outline>
</glyph>
<glyph name="northWestArrow" format="2">
  <advance width="1555"/>
  <unicode hex="2196"/>
  <outline>
    <contour>
      <point x="499" y="1147" type="line"/>
      <point x="348" y="376" type="line"/>
      <point x="593" y="376" type="line"/>
      <point x="700" y="948" type="line"/>
      <point x="651" y="906" type="line"/>
      <point x="1223" y="903" type="line"/>
      <point x="1270" y="1147" type="line"/>
    </contour>
    <contour>
      <point x="543" y="855" type="line"/>
      <point x="1011" y="274" type="line"/>
      <point x="1239" y="464" type="line"/>
      <point x="770" y="1045" type="line"/>
    </contour>
    <contour>
      <point x="949" y="970" type="line"/>
      <point x="712" y="883" type="line"/>
      <point x="582" y="661" type="line"/>
      <point x="816" y="753" type="line"/>
    </contour>
  </outline>
</glyph>
<glyph name="southWestArrow" format="2">
  <advance width="1555"/>
  <unicode hex="2199"/>
  <outline>
    <contour>
      <point x="336" y="313" type="line"/>
      <point x="1107" y="312" type="line"/>
      <point x="1154" y="557" type="line"/>
      <point x="581" y="553" type="line"/>
      <point x="616" y="512" type="line"/>
      <point x="730" y="1084" type="line"/>
      <point x="486" y="1084" type="line"/>
    </contour>
    <contour>
      <point x="647" y="414" type="line"/>
      <point x="1341" y="995" type="line"/>
      <point x="1189" y="1186" type="line"/>
      <point x="494" y="604" type="line"/>
    </contour>
    <contour>
      <point x="607" y="797" type="line"/>
      <point x="651" y="577" type="line"/>
      <point x="856" y="491" type="line"/>
      <point x="806" y="707" type="line"/>
    </contour>
  </outline>
</glyph>
<glyph name="anticlockwiseOpenCircleArrow" format="2">
  <advance width="1555"/>
  <unicode hex="21BA"/>
  <outline>
    <contour>
      <point x="828" y="1376" type="line"/>
      <point x="705" y="742" type="line"/>
      <point x="936" y="742" type="line"/>
      <point x="1028" y="1219" type="line"/>
      <point x="942" y="1147" type="line"/>
      <point x="1419" y="1146" type="line"/>
      <point x="1464" y="1377" type="line"/>
    </contour>
    <contour>
      <point x="1227" y="1210" type="line"/>
      <point x="935" y="1210" type="line"/>
      <point x="878" y="918" type="line"/>
      <point x="1103" y="993" type="line"/>
    </contour>
    <contour>
      <point x="895" y="998" type="line"/>
      <point x="1047" y="967"/>
      <point x="1130" y="833"/>
      <point x="1097" y="662" type="curve" smooth="yes"/>
      <point x="1063" y="489"/>
      <point x="924" y="360"/>
      <point x="742" y="360" type="curve" smooth="yes"/>
      <point x="561" y="360"/>
      <point x="471" y="489"/>
      <point x="504" y="660" type="curve" smooth="yes"/>
      <point x="520" y="741"/>
      <point x="558" y="800"/>
      <point x="592" y="845" type="curve"/>
      <point x="402" y="967" type="line"/>
      <point x="330" y="880"/>
      <point x="279" y="781"/>
      <point x="255" y="660" type="curve" smooth="yes"/>
      <point x="192" y="333"/>
      <point x="388" y="127"/>
      <point x="699" y="127" type="curve" smooth="yes"/>
      <point x="1011" y="127"/>
      <point x="1283" y="337"/>
      <point x="1345" y="657" type="curve" smooth="yes"/>
      <point x="1401" y="945"/>
      <point x="1251" y="1138"/>
      <point x="1000" y="1233" type="curve"/>
    </contour>
  </outline>
</glyph>
<glyph name="clockwiseOpenCircleArrow" format="2">
  <advance width="1555"/>
  <unicode hex="21BB"/>
  <outline>
    <contour>
      <point x="1051" y="1376" type="line"/>
      <point x="417" y="1377" type="line"/>
      <point x="372" y="1146" type="line"/>
      <point x="849" y="1147" type="line"/>
      <point x="791" y="1219" type="line"/>
      <point x="697" y="742" type="line"/>
      <point x="928" y="742" type="line"/>
    </contour>
    <contour>
      <point x="588" y="1210" type="line"/>
      <point x="628" y="993" type="line"/>
      <point x="823" y="918" type="line"/>
      <point x="880" y="1210" type="line"/>
    </contour>
    <contour>
      <point x="838" y="998" type="curve"/>
      <point x="825" y="1233" type="line"/>
      <point x="536" y="1138"/>
      <point x="312" y="945"/>
      <point x="256" y="657" type="curve" smooth="yes"/>
      <point x="194" y="337"/>
      <point x="384" y="127"/>
      <point x="696" y="127" type="curve" smooth="yes"/>
      <point x="1007" y="127"/>
      <point x="1283" y="333"/>
      <point x="1346" y="660" type="curve" smooth="yes"/>
      <point x="1370" y="781"/>
      <point x="1357" y="880"/>
      <point x="1319" y="967" type="curve"/>
      <point x="1081" y="845" type="line"/>
      <point x="1099" y="800"/>
      <point x="1113" y="741"/>
      <point x="1097" y="660" type="curve" smooth="yes"/>
      <point x="1064" y="489"/>
      <point x="924" y="360"/>
      <point x="743" y="360" type="curve" smooth="yes"/>
      <point x="561" y="360"/>
      <point x="472" y="489"/>
      <point x="506" y="662" type="curve" smooth="yes"/>
      <point x="539" y="833"/>
      <point x="674" y="967"/>
    </contour>
  </outline>
</glyph>
<glyph name="universal" format="2">
  <advance width="1555"/>
  <unicode hex="2200"/>
  <outline>
    <contour>
      <point x="148" y="1082" type="line"/>
      <point x="518" y="0" type="line"/>
      <point x="850" y="0" type="line"/>
      <point x="1617" y="1082" type="line"/>
      <point x="1272" y="1082" type="line"/>
      <point x="753" y="312" type="line"/>
      <point x="738" y="312" type="line"/>
      <point x="492" y="1082" type="line"/>
    </contour>
    <contour>
      <point x="1242" y="924" type="line"/>
      <point x="475" y="924" type="line"/>
      <point x="429" y="690" type="line"/>
      <point x="1196" y="690" type="line"/>
    </contour>
  </outline>
</glyph>
<glyph name="increment" format="2">
  <advance width="1555"/>
  <unicode hex="2206"/>
  <outline>
    <contour>
      <point x="1357" y="271" type="line"/>
      <point x="1121" y="1460" type="line"/>
      <point x="769" y="1460" type="line"/>
      <point x="94" y="271" type="line"/>
      <point x="426" y="215" type="line"/>
      <point x="440" y="286" type="line"/>
      <point x="858" y="1053" type="line"/>
      <point x="873" y="1053" type="line"/>
      <point x="1009" y="286" type="line"/>
      <point x="997" y="224" type="line"/>
    </contour>
    <contour>
      <point x="41" y="0" type="line"/>
      <point x="1304" y="0" type="line"/>
      <point x="1357" y="271" type="line"/>
      <point x="94" y="271" type="line"/>
    </contour>
  </outline>
</glyph>
<glyph name="product" format="2">
  <advance width="1555"/>
  <unicode hex="220F"/>
  <outline>
    <contour>
      <point x="384" y="-400" type="line"/>
      <point x="746" y="1460" type="line"/>
      <point x="436" y="1460" type="line"/>
      <point x="74" y="-400" type="line"/>
    </contour>
    <contour>
      <point x="221" y="1189" type="line"/>
      <point x="1586" y="1189" type="line"/>
      <point x="1639" y="1460" type="line"/>
      <point x="274" y="1460" type="line"/>
    </contour>
    <contour>
      <point x="1115" y="-400" type="line"/>
      <point x="1477" y="1460" type="line"/>
      <point x="1167" y="1460" type="line"/>
      <point x="805" y="-400" type="line"/>
    </contour>
  </outline>
</glyph>
<glyph name="angle" format="2">
  <advance width="1555"/>
  <unicode hex="2220"/>
  <outline>
    <contour>
      <point x="1150" y="0" type="line"/>
      <point x="1203" y="271" type="line"/>
      <point x="619" y="271" type="line"/>
      <point x="613" y="285" type="line"/>
      <point x="1143" y="957" type="line"/>
      <point x="916" y="1094" type="line"/>
      <point x="136" y="99" type="line"/>
      <point x="158" y="0" type="line"/>
    </contour>
  </outline>
</glyph>
<glyph name="logicaland" format="2">
  <advance width="1555"/>
  <unicode hex="2227"/>
  <outline>
    <contour>
      <point x="1380" y="194" type="line"/>
      <point x="987" y="1276" type="line"/>
      <point x="826" y="1276" type="line"/>
      <point x="42" y="194" type="line"/>
      <point x="387" y="194" type="line"/>
      <point x="809" y="825" type="line"/>
      <point x="825" y="825" type="line"/>
      <point x="1027" y="194" type="line"/>
    </contour>
  </outline>
</glyph>
<glyph name="logicalor" format="2">
  <advance width="1555"/>
  <unicode hex="2228"/>
  <outline>
    <contour>
      <point x="249" y="1266" type="line"/>
      <point x="642" y="184" type="line"/>
      <point x="803" y="184" type="line"/>
      <point x="1587" y="1266" type="line"/>
      <point x="1242" y="1266" type="line"/>
      <point x="819" y="635" type="line"/>
      <point x="803" y="635" type="line"/>
      <point x="602" y="1266" type="line"/>
    </contour>
  </outline>
</glyph>
<glyph name="approxequal" format="2">
  <advance width="1555"/>
  <unicode hex="2248"/>
  <outline>
    <contour>
      <point x="1068" y="738" type="curve" smooth="yes"/>
      <point x="1234" y="738"/>
      <point x="1391" y="849"/>
      <point x="1483" y="1199" type="curve"/>
      <point x="1249" y="1234" type="line"/>
      <point x="1201" y="1088"/>
      <point x="1158" y="1026"/>
      <point x="1079" y="1026" type="curve" smooth="yes"/>
      <point x="928" y="1026"/>
      <point x="901" y="1254"/>
      <point x="663" y="1254" type="curve" smooth="yes"/>
      <point x="496" y="1254"/>
      <point x="341" y="1141"/>
      <point x="249" y="793" type="curve"/>
      <point x="483" y="758" type="line"/>
      <point x="531" y="904"/>
      <point x="574" y="966"/>
      <point x="653" y="966" type="curve" smooth="yes"/>
      <point x="804" y="966"/>
      <point x="831" y="738"/>
    </contour>
    <contour>
      <point x="943" y="94" type="curve" smooth="yes"/>
      <point x="1109" y="94"/>
      <point x="1266" y="205"/>
      <point x="1358" y="555" type="curve"/>
      <point x="1124" y="590" type="line"/>
      <point x="1076" y="444"/>
      <point x="1033" y="382"/>
      <point x="954" y="382" type="curve" smooth="yes"/>
      <point x="803" y="382"/>
      <point x="776" y="610"/>
      <point x="538" y="610" type="curve" smooth="yes"/>
      <point x="371" y="610"/>
      <point x="216" y="497"/>
      <point x="124" y="149" type="curve"/>
      <point x="358" y="114" type="line"/>
      <point x="406" y="260"/>
      <point x="449" y="322"/>
      <point x="528" y="322" type="curve" smooth="yes"/>
      <point x="679" y="322"/>
      <point x="706" y="94"/>
    </contour>
  </outline>
</glyph>
<glyph name="upBlackSmallTriangle" format="2">
  <advance width="1555"/>
  <unicode hex="25B4"/>
  <outline>
    <contour>
      <point x="352" y="392" type="line"/>
      <point x="1145" y="392" type="line"/>
      <point x="883" y="1086" type="line"/>
    </contour>
  </outline>
</glyph>
<glyph name="rightBlackTriangle" format="2">
  <advance width="1555"/>
  <unicode hex="25B6"/>
  <outline>
    <contour>
      <point x="517" y="1271" type="line"/>
      <point x="306" y="185" type="line"/>
      <point x="1364" y="729" type="line"/>
    </contour>
  </outline>
</glyph>
<glyph name="rightBlackSmallTriangle" format="2">
  <advance width="1555"/>
  <unicode hex="25B8"/>
  <outline>
    <contour>
      <point x="596" y="1125" type="line"/>
      <point x="442" y="332" type="line"/>
      <point x="1213" y="729" type="line"/>
    </contour>
  </outline>
</glyph>
<glyph name="downBlackSmallTriangle" format="2">
  <advance width="1555"/>
  <unicode hex="25BE"/>
  <outline>
    <contour>
      <point x="1275" y="1061" type="line"/>
      <point x="482" y="1061" type="line"/>
      <point x="744" y="367" type="line"/>
    </contour>
  </outline>
</glyph>
<glyph name="leftBlackTriangle" format="2">
  <advance width="1555"/>
  <unicode hex="25C0"/>
  <outline>
    <contour>
      <point x="1111" y="185" type="line"/>
      <point x="1322" y="1271" type="line"/>
      <point x="264" y="727" type="line"/>
    </contour>
  </outline>
</glyph>
<glyph name="rightTipDownArrow" format="2">
  <advance width="1555"/>
  <unicode hex="2B0E"/>
  <outline>
    <contour>
      <point x="777" y="113" type="line"/>
      <point x="1428" y="658" type="line"/>
      <point x="1289" y="831" type="line"/>
      <point x="807" y="424" type="line"/>
      <point x="866" y="424" type="line"/>
      <point x="544" y="831" type="line"/>
      <point x="337" y="658" type="line"/>
    </contour>
    <contour>
      <point x="696" y="391" type="line"/>
      <point x="965" y="391" type="line"/>
      <point x="1147" y="1325" type="line"/>
      <point x="878" y="1325" type="line"/>
    </contour>
    <contour>
      <point x="1085" y="581" type="line"/>
      <point x="885" y="670" type="line"/>
      <point x="650" y="583" type="line"/>
      <point x="850" y="487" type="line"/>
    </contour>
    <contour>
      <point x="1093" y="1048" type="line"/>
      <point x="1147" y="1325" type="line"/>
      <point x="363" y="1325" type="line"/>
      <point x="309" y="1048" type="line"/>
    </contour>
  </outline>
</glyph>
<glyph name="brick" format="2">
  <advance width="1555"/>
  <unicode hex="1F9F1"/>
  <outline>
    <contour>
      <point x="1302" y="-400" type="line"/>
      <point x="2810" y="-400" type="line"/>
      <point x="3185" y="1530" type="line"/>
      <point x="1677" y="1530" type="line"/>
    </contour>
  </outline>
</glyph>
<glyph name="Atilde.alt1" format="2">
  <advance width="1555"/>
  <outline>
    <contour>
      <point x="53" y="0" type="line"/>
      <point x="380" y="0" type="line"/>
      <point x="534" y="791" type="line"/>
      <point x="978" y="1261" type="line"/>
      <point x="886" y="1261" type="line"/>
      <point x="1124" y="821" type="line"/>
      <point x="964" y="0" type="line"/>
      <point x="1291" y="0" type="line"/>
      <point x="1472" y="933" type="line"/>
      <point x="1159" y="1460" type="line"/>
      <point x="753" y="1460" type="line"/>
      <point x="234" y="933" type="line"/>
    </contour>
    <contour>
      <point x="319" y="303" type="line"/>
      <point x="1172" y="303" type="line"/>
      <point x="1217" y="537" type="line"/>
      <point x="364" y="537" type="line"/>
    </contour>
    <contour>
      <point x="1028" y="1911" type="line"/>
      <point x="730" y="1911" type="line"/>
      <point x="548" y="1758" type="line"/>
      <point x="520" y="1615" type="line"/>
      <point x="723" y="1615" type="line"/>
      <point x="737" y="1686" type="line"/>
      <point x="811" y="1758" type="line"/>
      <point x="889" y="1758" type="line"/>
      <point x="1001" y="1615" type="line"/>
      <point x="1299" y="1615" type="line"/>
      <point x="1482" y="1768" type="line"/>
      <point x="1509" y="1911" type="line"/>
      <point x="1306" y="1911" type="line"/>
      <point x="1291" y="1830" type="line"/>
      <point x="1219" y="1768" type="line"/>
      <point x="1141" y="1768" type="line"/>
    </contour>
  </outline>
</glyph>
<glyph name="B.alt3" format="2">
  <advance width="1555"/>
  <outline>
    <contour>
      <point x="191" y="0" type="line"/>
      <point x="986" y="0" type="line"/>
      <point x="1410" y="280" type="line"/>
      <point x="1470" y="584" type="line"/>
      <point x="1146" y="836" type="line"/>
      <point x="1117" y="688" type="line"/>
      <point x="1479" y="889" type="line"/>
      <point x="1538" y="1193" type="line"/>
      <point x="1270" y="1460" type="line"/>
      <point x="475" y="1460" type="line"/>
      <point x="428" y="1219" type="line"/>
      <point x="1097" y="1219" type="line"/>
      <point x="1243" y="1089" type="line"/>
      <point x="1228" y="1013" type="line"/>
      <point x="988" y="863" type="line"/>
      <point x="359" y="863" type="line"/>
      <point x="312" y="622" type="line"/>
      <point x="981" y="622" type="line"/>
      <point x="1124" y="480" type="line"/>
      <point x="1110" y="404" type="line"/>
      <point x="867" y="241" type="line"/>
      <point x="238" y="241" type="line"/>
    </contour>
    <contour>
      <point x="60" y="0" type="line"/>
      <point x="397" y="0" type="line"/>
      <point x="681" y="1460" type="line"/>
      <point x="344" y="1460" type="line"/>
    </contour>
  </outline>
</glyph>
<glyph name="Ccaron.alt1" format="2">
  <advance width="1555"/>
  <outline>
    <contour>
      <point x="463" y="0" type="line"/>
      <point x="1213" y="0" type="line"/>
      <point x="1312" y="301" type="line"/>
      <point x="677" y="301" type="line"/>
      <point x="464" y="635" type="line"/>
      <point x="496" y="795" type="line"/>
      <point x="863" y="1159" type="line"/>
      <point x="1478" y="1159" type="line"/>
      <point x="1497" y="1460" type="line"/>
      <point x="747" y="1460" type="line"/>
      <point x="197" y="932" type="line"/>
      <point x="119" y="528" type="line"/>
    </contour>
    <contour>
      <point x="661" y="1908" type="line"/>
      <point x="975" y="1908" type="line"/>
      <point x="1127" y="1662" type="line"/>
      <point x="1059" y="1662" type="line"/>
      <point x="1308" y="1908" type="line"/>
      <point x="1622" y="1908" type="line"/>
      <point x="1278" y="1620" type="line"/>
      <point x="892" y="1620" type="line"/>
    </contour>
  </outline>
</glyph>
<glyph name="Ccedilla.alt5" format="2">
  <advance width="1555"/>
  <outline>
    <contour>
      <point x="463" y="0" type="line"/>
      <point x="1213" y="0" type="line"/>
      <point x="1312" y="301" type="line"/>
      <point x="677" y="301" type="line"/>
      <point x="464" y="635" type="line"/>
      <point x="496" y="795" type="line"/>
      <point x="863" y="1159" type="line"/>
      <point x="1478" y="1159" type="line"/>
      <point x="1497" y="1460" type="line"/>
      <point x="747" y="1460" type="line"/>
      <point x="197" y="932" type="line"/>
      <point x="119" y="528" type="line"/>
    </contour>
    <contour>
      <point x="434" y="-687" type="line"/>
      <point x="628" y="-687" type="line"/>
      <point x="900" y="-534" type="line"/>
      <point x="952" y="-270" type="line"/>
      <point x="735" y="-139" type="line"/>
      <point x="706" y="-139" type="line"/>
      <point x="749" y="-200" type="line"/>
      <point x="797" y="48" type="line"/>
      <point x="617" y="48" type="line"/>
      <point x="549" y="-305" type="line"/>
      <point x="635" y="-305" type="line"/>
      <point x="749" y="-370" type="line"/>
      <point x="737" y="-434" type="line"/>
      <point x="597" y="-499" type="line"/>
      <point x="471" y="-499" type="line"/>
    </contour>
  </outline>
</glyph>
<glyph name="Cdotaccent.alt5" format="2">
  <advance width="1555"/>
  <outline>
    <contour>
      <point x="463" y="0" type="line"/>
      <point x="1213" y="0" type="line"/>
      <point x="1312" y="301" type="line"/>
      <point x="677" y="301" type="line"/>
      <point x="464" y="635" type="line"/>
      <point x="496" y="795" type="line"/>
      <point x="863" y="1159" type="line"/>
      <point x="1478" y="1159" type="line"/>
      <point x="1497" y="1460" type="line"/>
      <point x="747" y="1460" type="line"/>
      <point x="197" y="932" type="line"/>
      <point x="119" y="528" type="line"/>
    </contour>
    <contour>
      <point x="1087" y="1629" type="line"/>
      <point x="1294" y="1797" type="line"/>
      <point x="1152" y="1964" type="line"/>
      <point x="944" y="1797" type="line"/>
    </contour>
  </outline>
</glyph>
<glyph name="Dcaron.alt5" format="2">
  <advance width="1555"/>
  <outline>
    <contour>
      <point x="177" y="0" type="line"/>
      <point x="904" y="0" type="line"/>
      <point x="1449" y="539" type="line"/>
      <point x="1527" y="943" type="line"/>
      <point x="1188" y="1460" type="line"/>
      <point x="461" y="1460" type="line"/>
      <point x="372" y="1159" type="line"/>
      <point x="982" y="1159" type="line"/>
      <point x="1182" y="841" type="line"/>
      <point x="1150" y="672" type="line"/>
      <point x="796" y="301" type="line"/>
      <point x="206" y="301" type="line"/>
    </contour>
    <contour>
      <point x="41" y="0" type="line"/>
      <point x="370" y="0" type="line"/>
      <point x="654" y="1460" type="line"/>
      <point x="325" y="1460" type="line"/>
    </contour>
    <contour>
      <point x="451" y="1908" type="line"/>
      <point x="765" y="1908" type="line"/>
      <point x="917" y="1662" type="line"/>
      <point x="849" y="1662" type="line"/>
      <point x="1098" y="1908" type="line"/>
      <point x="1412" y="1908" type="line"/>
      <point x="1068" y="1620" type="line"/>
      <point x="682" y="1620" type="line"/>
    </contour>
  </outline>
</glyph>
<glyph name="E.alt5" format="2">
  <advance width="1555"/>
  <outline>
    <contour>
      <point x="429" y="0" type="line"/>
      <point x="713" y="1460" type="line"/>
      <point x="384" y="1460" type="line"/>
      <point x="100" y="0" type="line"/>
    </contour>
    <contour>
      <point x="1290" y="271" type="line"/>
      <point x="314" y="271" type="line"/>
      <point x="261" y="0" type="line"/>
      <point x="1207" y="0" type="line"/>
    </contour>
    <contour>
      <point x="1216" y="866" type="line"/>
      <point x="459" y="866" type="line"/>
      <point x="409" y="609" type="line"/>
      <point x="1166" y="609" type="line"/>
    </contour>
    <contour>
      <point x="1438" y="1189" type="line"/>
      <point x="1461" y="1460" type="line"/>
      <point x="545" y="1460" type="line"/>
      <point x="492" y="1189" type="line"/>
    </contour>
  </outline>
</glyph>
<glyph name="Edieresis.alt1" format="2">
  <advance width="1555"/>
  <outline>
    <contour>
      <point x="429" y="0" type="line"/>
      <point x="713" y="1460" type="line"/>
      <point x="384" y="1460" type="line"/>
      <point x="100" y="0" type="line"/>
    </contour>
    <contour>
      <point x="1290" y="271" type="line"/>
      <point x="314" y="271" type="line"/>
      <point x="261" y="0" type="line"/>
      <point x="1207" y="0" type="line"/>
    </contour>
    <contour>
      <point x="1216" y="866" type="line"/>
      <point x="459" y="866" type="line"/>
      <point x="409" y="609" type="line"/>
      <point x="1166" y="609" type="line"/>
    </contour>
    <contour>
      <point x="1438" y="1189" type="line"/>
      <point x="1461" y="1460" type="line"/>
      <point x="545" y="1460" type="line"/>
      <point x="492" y="1189" type="line"/>
    </contour>
    <contour>
      <point x="638" y="1629" type="line"/>
      <point x="842" y="1797" type="line"/>
      <point x="704" y="1964" type="line"/>
      <point x="499" y="1797" type="line"/>
    </contour>
    <contour>
      <point x="1311" y="1629" type="line"/>
      <point x="1515" y="1797" type="line"/>
      <point x="1377" y="1964" type="line"/>
      <point x="1172" y="1797" type="line"/>
    </contour>
  </outline>
</glyph>
<glyph name="Eng.alt5" format="2">
  <advance width="1555"/>
  <outline>
    <contour>
      <point x="968" y="-53" type="line"/>
      <point x="1273" y="0" type="line"/>
      <point x="1557" y="1460" type="line"/>
      <point x="1266" y="1460" type="line"/>
      <point x="1078" y="493" type="line"/>
      <point x="1066" y="493" type="line"/>
      <point x="685" y="1460" type="line"/>
      <point x="356" y="1460" type="line"/>
      <point x="72" y="0" type="line"/>
      <point x="362" y="0" type="line"/>
      <point x="547" y="953" type="line"/>
      <point x="559" y="953" type="line"/>
    </contour>
    <contour>
      <point x="998" y="-400" type="line"/>
      <point x="1240" y="-171" type="line"/>
      <point x="1281" y="40" type="line"/>
      <point x="954" y="40" type="line"/>
      <point x="935" y="-57" type="line"/>
      <point x="887" y="-99" type="line"/>
      <point x="687" y="-99" type="line"/>
      <point x="658" y="-400" type="line"/>
    </contour>
  </outline>
</glyph>
<glyph name="Etilde.alt5" format="2">
  <advance width="1555"/>
  <outline>
    <contour>
      <point x="429" y="0" type="line"/>
      <point x="713" y="1460" type="line"/>
      <point x="384" y="1460" type="line"/>
      <point x="100" y="0" type="line"/>
    </contour>
    <contour>
      <point x="1290" y="271" type="line"/>
      <point x="314" y="271" type="line"/>
      <point x="261" y="0" type="line"/>
      <point x="1207" y="0" type="line"/>
    </contour>
    <contour>
      <point x="1216" y="866" type="line"/>
      <point x="459" y="866" type="line"/>
      <point x="409" y="609" type="line"/>
      <point x="1166" y="609" type="line"/>
    </contour>
    <contour>
      <point x="1438" y="1189" type="line"/>
      <point x="1461" y="1460" type="line"/>
      <point x="545" y="1460" type="line"/>
      <point x="492" y="1189" type="line"/>
    </contour>
    <contour>
      <point x="1010" y="1911" type="line"/>
      <point x="712" y="1911" type="line"/>
      <point x="530" y="1758" type="line"/>
      <point x="502" y="1615" type="line"/>
      <point x="705" y="1615" type="line"/>
      <point x="719" y="1686" type="line"/>
      <point x="793" y="1758" type="line"/>
      <point x="871" y="1758" type="line"/>
      <point x="983" y="1615" type="line"/>
      <point x="1281" y="1615" type="line"/>
      <point x="1464" y="1768" type="line"/>
      <point x="1491" y="1911" type="line"/>
      <point x="1288" y="1911" type="line"/>
      <point x="1273" y="1830" type="line"/>
      <point x="1201" y="1768" type="line"/>
      <point x="1123" y="1768" type="line"/>
    </contour>
  </outline>
</glyph>
<glyph name="F.alt" format="2">
  <advance width="1555"/>
  <outline>
    <contour>
      <point x="93" y="0" type="line"/>
      <point x="422" y="0" type="line"/>
      <point x="706" y="1460" type="line"/>
      <point x="377" y="1460" type="line"/>
    </contour>
    <contour>
      <point x="379" y="539" type="line"/>
      <point x="1130" y="539" type="line"/>
      <point x="1180" y="796" type="line"/>
      <point x="429" y="796" type="line"/>
    </contour>
    <contour>
      <point x="475" y="1189" type="line"/>
      <point x="1475" y="1189" type="line"/>
      <point x="1498" y="1460" type="line"/>
      <point x="528" y="1460" type="line"/>
    </contour>
  </outline>
</glyph>
<glyph name="Gbreve.alt5" format="2">
  <advance width="1555"/>
  <outline>
    <contour>
      <point x="423" y="0" type="line"/>
      <point x="1006" y="0" type="line"/>
      <point x="1391" y="341" type="line"/>
      <point x="1486" y="829" type="line"/>
      <point x="850" y="829" type="line"/>
      <point x="802" y="582" type="line"/>
      <point x="1240" y="582" type="line"/>
      <point x="1185" y="669" type="line"/>
      <point x="1147" y="471" type="line"/>
      <point x="945" y="301" type="line"/>
      <point x="642" y="301" type="line"/>
      <point x="446" y="632" type="line"/>
      <point x="480" y="808" type="line"/>
      <point x="832" y="1159" type="line"/>
      <point x="1480" y="1159" type="line"/>
      <point x="1509" y="1460" type="line"/>
      <point x="721" y="1460" type="line"/>
      <point x="179" y="932" type="line"/>
      <point x="101" y="528" type="line"/>
    </contour>
    <contour>
      <point x="879" y="1610" type="line"/>
      <point x="1273" y="1610" type="line"/>
      <point x="1508" y="1773" type="line"/>
      <point x="1534" y="1908" type="line"/>
      <point x="1336" y="1908" type="line"/>
      <point x="1323" y="1840" type="line"/>
      <point x="1225" y="1773" type="line"/>
      <point x="991" y="1773" type="line"/>
      <point x="919" y="1840" type="line"/>
      <point x="932" y="1908" type="line"/>
      <point x="734" y="1908" type="line"/>
      <point x="707" y="1772" type="line"/>
    </contour>
  </outline>
</glyph>
<glyph name="Gcommaaccent.alt1" format="2">
  <advance width="1555"/>
  <outline>
    <contour>
      <point x="423" y="0" type="line"/>
      <point x="1006" y="0" type="line"/>
      <point x="1391" y="341" type="line"/>
      <point x="1486" y="829" type="line"/>
      <point x="850" y="829" type="line"/>
      <point x="802" y="582" type="line"/>
      <point x="1240" y="582" type="line"/>
      <point x="1185" y="669" type="line"/>
      <point x="1147" y="471" type="line"/>
      <point x="945" y="301" type="line"/>
      <point x="642" y="301" type="line"/>
      <point x="446" y="632" type="line"/>
      <point x="480" y="808" type="line"/>
      <point x="832" y="1159" type="line"/>
      <point x="1480" y="1159" type="line"/>
      <point x="1509" y="1460" type="line"/>
      <point x="721" y="1460" type="line"/>
      <point x="179" y="932" type="line"/>
      <point x="101" y="528" type="line"/>
    </contour>
    <contour>
      <point x="415" y="-494" type="line"/>
      <point x="656" y="-494" type="line"/>
      <point x="671" y="-418" type="line"/>
      <point x="371" y="-721" type="line"/>
      <point x="483" y="-786" type="line"/>
      <point x="756" y="-504" type="line"/>
      <point x="825" y="-151" type="line"/>
      <point x="482" y="-151" type="line"/>
    </contour>
  </outline>
</glyph>
<glyph name="Hbar.alt1" format="2">
  <advance width="1555"/>
  <outline>
    <contour>
      <point x="145" y="1082" type="line"/>
      <point x="1620" y="1082" type="line"/>
      <point x="1659" y="1283" type="line"/>
      <point x="184" y="1283" type="line"/>
    </contour>
    <contour>
      <point x="955" y="0" type="line"/>
      <point x="1292" y="0" type="line"/>
      <point x="1576" y="1460" type="line"/>
      <point x="1239" y="1460" type="line"/>
    </contour>
    <contour>
      <point x="54" y="0" type="line"/>
      <point x="391" y="0" type="line"/>
      <point x="675" y="1460" type="line"/>
      <point x="338" y="1460" type="line"/>
    </contour>
    <contour>
      <point x="308" y="602" type="line"/>
      <point x="1268" y="602" type="line"/>
      <point x="1321" y="873" type="line"/>
      <point x="361" y="873" type="line"/>
    </contour>
  </outline>
</glyph>
<glyph name="IJ.alt1" format="2">
  <advance width="1555"/>
  <outline>
    <contour>
      <point x="195" y="718" type="line"/>
      <point x="524" y="718" type="line"/>
      <point x="668" y="1460" type="line"/>
      <point x="339" y="1460" type="line"/>
    </contour>
    <contour>
      <point x="490" y="0" type="line"/>
      <point x="855" y="0" type="line"/>
      <point x="1345" y="275" type="line"/>
      <point x="1576" y="1460" type="line"/>
      <point x="1241" y="1460" type="line"/>
      <point x="1034" y="396" type="line"/>
      <point x="780" y="271" type="line"/>
      <point x="671" y="271" type="line"/>
      <point x="465" y="396" type="line"/>
      <point x="485" y="500" type="line"/>
      <point x="150" y="500" type="line"/>
      <point x="106" y="275" type="line"/>
    </contour>
    <contour>
      <point x="854" y="1184" type="line"/>
      <point x="1379" y="1184" type="line"/>
      <point x="1433" y="1460" type="line"/>
      <point x="938" y="1460" type="line"/>
    </contour>
  </outline>
</glyph>
<glyph name="Iacute.alt1" format="2">
  <advance width="1555"/>
  <outline>
    <contour>
      <point x="507" y="0" type="line"/>
      <point x="837" y="0" type="line"/>
      <point x="1121" y="1460" type="line"/>
      <point x="791" y="1460" type="line"/>
    </contour>
    <contour>
      <point x="115" y="0" type="line"/>
      <point x="1229" y="0" type="line"/>
      <point x="1302" y="271" type="line"/>
      <point x="148" y="271" type="line"/>
    </contour>
    <contour>
      <point x="326" y="1189" type="line"/>
      <point x="1480" y="1189" type="line"/>
      <point x="1513" y="1460" type="line"/>
      <point x="399" y="1460" type="line"/>
    </contour>
    <contour>
      <point x="1131" y="1619" type="line"/>
      <point x="852" y="1619" type="line"/>
      <point x="1127" y="1918" type="line"/>
      <point x="1480" y="1918" type="line"/>
    </contour>
  </outline>
</glyph>
<glyph name="Ibreve.alt5" format="2">
  <advance width="1555"/>
  <outline>
    <contour>
      <point x="507" y="0" type="line"/>
      <point x="837" y="0" type="line"/>
      <point x="1121" y="1460" type="line"/>
      <point x="791" y="1460" type="line"/>
    </contour>
    <contour>
      <point x="115" y="0" type="line"/>
      <point x="1229" y="0" type="line"/>
      <point x="1302" y="271" type="line"/>
      <point x="148" y="271" type="line"/>
    </contour>
    <contour>
      <point x="326" y="1189" type="line"/>
      <point x="1480" y="1189" type="line"/>
      <point x="1513" y="1460" type="line"/>
      <point x="399" y="1460" type="line"/>
    </contour>
    <contour>
      <point x="789" y="1610" type="line"/>
      <point x="1183" y="1610" type="line"/>
      <point x="1418" y="1773" type="line"/>
      <point x="1444" y="1908" type="line"/>
      <point x="1246" y="1908" type="line"/>
      <point x="1233" y="1840" type="line"/>
      <point x="1135" y="1773" type="line"/>
      <point x="901" y="1773" type="line"/>
      <point x="829" y="1840" type="line"/>
      <point x="842" y="1908" type="line"/>
      <point x="644" y="1908" type="line"/>
      <point x="617" y="1772" type="line"/>
    </contour>
  </outline>
</glyph>
<glyph name="Icircumflex.alt1" format="2">
  <advance width="1555"/>
  <outline>
    <contour>
      <point x="507" y="0" type="line"/>
      <point x="837" y="0" type="line"/>
      <point x="1121" y="1460" type="line"/>
      <point x="791" y="1460" type="line"/>
    </contour>
    <contour>
      <point x="115" y="0" type="line"/>
      <point x="1229" y="0" type="line"/>
      <point x="1302" y="271" type="line"/>
      <point x="148" y="271" type="line"/>
    </contour>
    <contour>
      <point x="326" y="1189" type="line"/>
      <point x="1480" y="1189" type="line"/>
      <point x="1513" y="1460" type="line"/>
      <point x="399" y="1460" type="line"/>
    </contour>
    <contour>
      <point x="507" y="1620" type="line"/>
      <point x="821" y="1620" type="line"/>
      <point x="1069" y="1866" type="line"/>
      <point x="1001" y="1866" type="line"/>
      <point x="1154" y="1620" type="line"/>
      <point x="1468" y="1620" type="line"/>
      <point x="1236" y="1908" type="line"/>
      <point x="850" y="1908" type="line"/>
    </contour>
  </outline>
</glyph>
<glyph name="Imacron.alt5" format="2">
  <advance width="1555"/>
  <outline>
    <contour>
      <point x="507" y="0" type="line"/>
      <point x="837" y="0" type="line"/>
      <point x="1121" y="1460" type="line"/>
      <point x="791" y="1460" type="line"/>
    </contour>
    <contour>
      <point x="115" y="0" type="line"/>
      <point x="1229" y="0" type="line"/>
      <point x="1302" y="271" type="line"/>
      <point x="148" y="271" type="line"/>
    </contour>
    <contour>
      <point x="326" y="1189" type="line"/>
      <point x="1480" y="1189" type="line"/>
      <point x="1513" y="1460" type="line"/>
      <point x="399" y="1460" type="line"/>
    </contour>
    <contour>
      <point x="571" y="1691" type="line"/>
      <point x="1432" y="1691" type="line"/>
      <point x="1469" y="1884" type="line"/>
      <point x="608" y="1884" type="line"/>
    </contour>
  </outline>
</glyph>
<glyph name="Jcircumflex.alt1" format="2">
  <advance width="1555"/>
  <outline>
    <contour>
      <point x="517" y="0" type="line"/>
      <point x="802" y="0" type="line"/>
      <point x="1399" y="448" type="line"/>
      <point x="1596" y="1460" type="line"/>
      <point x="1272" y="1460" type="line"/>
      <point x="1101" y="583" type="line"/>
      <point x="666" y="242" type="line"/>
      <point x="747" y="242" type="line"/>
      <point x="423" y="563" type="line"/>
      <point x="457" y="738" type="line"/>
      <point x="132" y="738" type="line"/>
      <point x="76" y="448" type="line"/>
    </contour>
    <contour>
      <point x="402" y="1184" type="line"/>
      <point x="1395" y="1184" type="line"/>
      <point x="1449" y="1460" type="line"/>
      <point x="486" y="1460" type="line"/>
    </contour>
    <contour>
      <point x="523" y="1620" type="line"/>
      <point x="837" y="1620" type="line"/>
      <point x="1085" y="1866" type="line"/>
      <point x="1017" y="1866" type="line"/>
      <point x="1170" y="1620" type="line"/>
      <point x="1484" y="1620" type="line"/>
      <point x="1252" y="1908" type="line"/>
      <point x="866" y="1908" type="line"/>
    </contour>
  </outline>
</glyph>
<glyph name="L.alt3" format="2">
  <advance width="1555"/>
  <outline>
    <contour>
      <point x="151" y="0" type="line"/>
      <point x="480" y="0" type="line"/>
      <point x="764" y="1460" type="line"/>
      <point x="435" y="1460" type="line"/>
    </contour>
    <contour>
      <point x="311" y="0" type="line"/>
      <point x="1230" y="0" type="line"/>
      <point x="1313" y="271" type="line"/>
      <point x="364" y="271" type="line"/>
    </contour>
  </outline>
</glyph>
<glyph name="L.alt4" format="2">
  <advance width="1555"/>
  <outline>
    <contour>
      <point x="151" y="0" type="line"/>
      <point x="480" y="0" type="line"/>
      <point x="764" y="1460" type="line"/>
      <point x="435" y="1460" type="line"/>
    </contour>
    <contour>
      <point x="311" y="0" type="line"/>
      <point x="1230" y="0" type="line"/>
      <point x="1313" y="271" type="line"/>
      <point x="364" y="271" type="line"/>
    </contour>
  </outline>
</glyph>
<glyph name="Lcommaaccent.alt1" format="2">
  <advance width="1555"/>
  <outline>
    <contour>
      <point x="151" y="0" type="line"/>
      <point x="480" y="0" type="line"/>
      <point x="764" y="1460" type="line"/>
      <point x="435" y="1460" type="line"/>
    </contour>
    <contour>
      <point x="311" y="0" type="line"/>
      <point x="1230" y="0" type="line"/>
      <point x="1313" y="271" type="line"/>
      <point x="364" y="271" type="line"/>
    </contour>
    <contour>
      <point x="461" y="-494" type="line"/>
      <point x="702" y="-494" type="line"/>
      <point x="717" y="-418" type="line"/>
      <point x="417" y="-721" type="line"/>
      <point x="529" y="-786" type="line"/>
      <point x="802" y="-504" type="line"/>
      <point x="871" y="-151" type="line"/>
      <point x="528" y="-151" type="line"/>
    </contour>
  </outline>
</glyph>
<glyph name="Lslash.alt5" format="2">
  <advance width="1555"/>
  <outline>
    <contour>
      <point x="-5" y="517" type="line"/>
      <point x="1101" y="974" type="line"/>
      <point x="1154" y="1246" type="line"/>
      <point x="49" y="791" type="line"/>
    </contour>
    <contour>
      <point x="95" y="0" type="line"/>
      <point x="424" y="0" type="line"/>
      <point x="708" y="1460" type="line"/>
      <point x="379" y="1460" type="line"/>
    </contour>
    <contour>
      <point x="255" y="0" type="line"/>
      <point x="1174" y="0" type="line"/>
      <point x="1257" y="271" type="line"/>
      <point x="308" y="271" type="line"/>
    </contour>
  </outline>
</glyph>
<glyph name="M.alt5" format="2">
  <advance width="1555"/>
  <outline>
    <contour>
      <point x="59" y="0" type="line"/>
      <point x="312" y="0" type="line"/>
      <point x="505" y="995" type="line"/>
      <point x="519" y="995" type="line"/>
      <point x="708" y="389" type="line"/>
      <point x="767" y="389" type="line"/>
      <point x="1203" y="995" type="line"/>
      <point x="1221" y="995" type="line"/>
      <point x="1028" y="0" type="line"/>
      <point x="1285" y="0" type="line"/>
      <point x="1569" y="1460" type="line"/>
      <point x="1269" y="1460" type="line"/>
      <point x="847" y="952" type="line"/>
      <point x="835" y="952" type="line"/>
      <point x="651" y="1460" type="line"/>
      <point x="343" y="1460" type="line"/>
    </contour>
  </outline>
</glyph>
<glyph name="Ncommaaccent.alt1" format="2">
  <advance width="1555"/>
  <outline>
    <contour>
      <point x="53" y="0" type="line"/>
      <point x="360" y="0" type="line"/>
      <point x="521" y="830" type="line"/>
      <point x="533" y="830" type="line"/>
      <point x="1089" y="0" type="line"/>
      <point x="1291" y="0" type="line"/>
      <point x="1575" y="1460" type="line"/>
      <point x="1268" y="1460" type="line"/>
      <point x="1099" y="591" type="line"/>
      <point x="1087" y="591" type="line"/>
      <point x="528" y="1460" type="line"/>
      <point x="337" y="1460" type="line"/>
    </contour>
    <contour>
      <point x="404" y="-494" type="line"/>
      <point x="645" y="-494" type="line"/>
      <point x="660" y="-418" type="line"/>
      <point x="360" y="-721" type="line"/>
      <point x="472" y="-786" type="line"/>
      <point x="745" y="-504" type="line"/>
      <point x="814" y="-151" type="line"/>
      <point x="471" y="-151" type="line"/>
    </contour>
  </outline>
</glyph>
<glyph name="OE.alt1" format="2">
  <advance width="1555"/>
  <outline>
    <contour>
      <point x="627" y="0" type="line"/>
      <point x="956" y="0" type="line"/>
      <point x="1240" y="1460" type="line"/>
      <point x="911" y="1460" type="line"/>
    </contour>
    <contour>
      <point x="831" y="0" type="line"/>
      <point x="1368" y="0" type="line"/>
      <point x="1451" y="271" type="line"/>
      <point x="884" y="271" type="line"/>
    </contour>
    <contour>
      <point x="949" y="609" type="line"/>
      <point x="1421" y="609" type="line"/>
      <point x="1471" y="866" type="line"/>
      <point x="999" y="866" type="line"/>
    </contour>
    <contour>
      <point x="1062" y="1189" type="line"/>
      <point x="1609" y="1189" type="line"/>
      <point x="1632" y="1460" type="line"/>
      <point x="1115" y="1460" type="line"/>
    </contour>
    <contour>
      <point x="749" y="0" type="line"/>
      <point x="802" y="271" type="line"/>
      <point x="590" y="271" type="line"/>
      <point x="410" y="642" type="line"/>
      <point x="448" y="841" type="line"/>
      <point x="768" y="1189" type="line"/>
      <point x="980" y="1189" type="line"/>
      <point x="1033" y="1460" type="line"/>
      <point x="654" y="1460" type="line"/>
      <point x="163" y="943" type="line"/>
      <point x="85" y="539" type="line"/>
      <point x="370" y="0" type="line"/>
    </contour>
  </outline>
</glyph>
<glyph name="Ohungarumlaut.alt1" format="2">
  <advance width="1555"/>
  <outline>
    <contour>
      <point x="471" y="0" type="line"/>
      <point x="876" y="0" type="line"/>
      <point x="1460" y="528" type="line"/>
      <point x="1538" y="932" type="line"/>
      <point x="1143" y="1460" type="line"/>
      <point x="755" y="1460" type="line"/>
      <point x="169" y="932" type="line"/>
      <point x="91" y="528" type="line"/>
    </contour>
    <contour>
      <point x="674" y="311" type="line"/>
      <point x="438" y="643" type="line"/>
      <point x="468" y="797" type="line"/>
      <point x="857" y="1149" type="line"/>
      <point x="955" y="1149" type="line"/>
      <point x="1191" y="817" type="line"/>
      <point x="1161" y="663" type="line"/>
      <point x="772" y="311" type="line"/>
    </contour>
    <contour>
      <point x="592" y="1620" type="line"/>
      <point x="844" y="1620" type="line"/>
      <point x="1110" y="1919" type="line"/>
      <point x="815" y="1919" type="line"/>
    </contour>
    <contour>
      <point x="1117" y="1620" type="line"/>
      <point x="1367" y="1620" type="line"/>
      <point x="1634" y="1919" type="line"/>
      <point x="1339" y="1919" type="line"/>
    </contour>
  </outline>
</glyph>
<glyph name="Omega.alt5" format="2">
  <advance width="1555"/>
  <outline>
    <contour>
      <point x="905" y="1203" type="curve" smooth="yes"/>
      <point x="1125" y="1203"/>
      <point x="1231" y="1083"/>
      <point x="1187" y="861" type="curve" smooth="yes"/>
      <point x="1153" y="684"/>
      <point x="1049" y="573"/>
      <point x="886" y="474" type="curve"/>
      <point x="794" y="0" type="line"/>
      <point x="1318" y="0" type="line"/>
      <point x="1367" y="251" type="line"/>
      <point x="1011" y="251" type="line"/>
      <point x="1029" y="347" type="line"/>
      <point x="1352" y="484"/>
      <point x="1482" y="644"/>
      <point x="1529" y="883" type="curve" smooth="yes"/>
      <point x="1603" y="1266"/>
      <point x="1379" y="1484"/>
      <point x="949" y="1484" type="curve" smooth="yes"/>
      <point x="520" y="1484"/>
      <point x="236" y="1286"/>
      <point x="162" y="903" type="curve" smooth="yes"/>
      <point x="115" y="664"/>
      <point x="179" y="484"/>
      <point x="447" y="346" type="curve"/>
      <point x="429" y="251" type="line"/>
      <point x="74" y="251" type="line"/>
      <point x="25" y="0" type="line"/>
      <point x="549" y="0" type="line"/>
      <point x="641" y="474" type="line"/>
      <point x="516" y="573"/>
      <point x="455" y="684"/>
      <point x="489" y="861" type="curve" smooth="yes"/>
      <point x="533" y="1083"/>
      <point x="685" y="1203"/>
    </contour>
  </outline>
</glyph>
<glyph name="Otilde.alt5" format="2">
  <advance width="1555"/>
  <outline>
    <contour>
      <point x="471" y="0" type="line"/>
      <point x="876" y="0" type="line"/>
      <point x="1460" y="528" type="line"/>
      <point x="1538" y="932" type="line"/>
      <point x="1143" y="1460" type="line"/>
      <point x="755" y="1460" type="line"/>
      <point x="169" y="932" type="line"/>
      <point x="91" y="528" type="line"/>
    </contour>
    <contour>
      <point x="674" y="311" type="line"/>
      <point x="438" y="643" type="line"/>
      <point x="468" y="797" type="line"/>
      <point x="857" y="1149" type="line"/>
      <point x="955" y="1149" type="line"/>
      <point x="1191" y="817" type="line"/>
      <point x="1161" y="663" type="line"/>
      <point x="772" y="311" type="line"/>
    </contour>
    <contour>
      <point x="1029" y="1911" type="line"/>
      <point x="731" y="1911" type="line"/>
      <point x="549" y="1758" type="line"/>
      <point x="521" y="1615" type="line"/>
      <point x="724" y="1615" type="line"/>
      <point x="738" y="1686" type="line"/>
      <point x="812" y="1758" type="line"/>
      <point x="890" y="1758" type="line"/>
      <point x="1002" y="1615" type="line"/>
      <point x="1300" y="1615" type="line"/>
      <point x="1483" y="1768" type="line"/>
      <point x="1510" y="1911" type="line"/>
      <point x="1307" y="1911" type="line"/>
      <point x="1292" y="1830" type="line"/>
      <point x="1220" y="1768" type="line"/>
      <point x="1142" y="1768" type="line"/>
    </contour>
  </outline>
</glyph>
<glyph name="Q.alt4" format="2">
  <advance width="1555"/>
  <outline>
    <contour>
      <point x="783" y="-462" type="line"/>
      <point x="1091" y="-297" type="line"/>
      <point x="438" y="643" type="line"/>
      <point x="468" y="797" type="line"/>
      <point x="857" y="1149" type="line"/>
      <point x="953" y="1149" type="line"/>
      <point x="1191" y="817" type="line"/>
      <point x="1161" y="663" type="line"/>
      <point x="770" y="311" type="line"/>
      <point x="527" y="311" type="line"/>
      <point x="499" y="0" type="line"/>
      <point x="878" y="0" type="line"/>
      <point x="1460" y="528" type="line"/>
      <point x="1538" y="932" type="line"/>
      <point x="1167" y="1460" type="line"/>
      <point x="751" y="1460" type="line"/>
      <point x="169" y="932" type="line"/>
      <point x="91" y="528" type="line"/>
    </contour>
  </outline>
</glyph>
<glyph name="Rcommaaccent.alt1" format="2">
  <advance width="1555"/>
  <outline>
    <contour>
      <point x="300" y="552" type="line"/>
      <point x="1040" y="552" type="line"/>
      <point x="1503" y="849" type="line"/>
      <point x="1564" y="1163" type="line"/>
      <point x="1216" y="1460" type="line"/>
      <point x="477" y="1460" type="line"/>
      <point x="418" y="1159" type="line"/>
      <point x="1047" y="1159" type="line"/>
      <point x="1215" y="1039" type="line"/>
      <point x="1194" y="933" type="line"/>
      <point x="950" y="763" type="line"/>
      <point x="341" y="763" type="line"/>
    </contour>
    <contour>
      <point x="62" y="0" type="line"/>
      <point x="399" y="0" type="line"/>
      <point x="683" y="1460" type="line"/>
      <point x="346" y="1460" type="line"/>
    </contour>
    <contour>
      <point x="1020" y="0" type="line"/>
      <point x="1355" y="0" type="line"/>
      <point x="1404" y="253" type="line"/>
      <point x="1139" y="661" type="line"/>
      <point x="809" y="661" type="line"/>
      <point x="1066" y="237" type="line"/>
    </contour>
    <contour>
      <point x="427" y="-494" type="line"/>
      <point x="668" y="-494" type="line"/>
      <point x="683" y="-418" type="line"/>
      <point x="383" y="-721" type="line"/>
      <point x="495" y="-786" type="line"/>
      <point x="768" y="-504" type="line"/>
      <point x="837" y="-151" type="line"/>
      <point x="494" y="-151" type="line"/>
    </contour>
  </outline>
</glyph>
<glyph name="S.alt3" format="2">
  <advance width="1555"/>
  <outline>
    <contour>
      <point x="118" y="0" type="line"/>
      <point x="959" y="0" type="line"/>
      <point x="1298" y="301" type="line"/>
      <point x="1342" y="531" type="line"/>
      <point x="666" y="1001" type="line"/>
      <point x="680" y="1075" type="line"/>
      <point x="771" y="1159" type="line"/>
      <point x="1454" y="1159" type="line"/>
      <point x="1483" y="1460" type="line"/>
      <point x="662" y="1460" type="line"/>
      <point x="323" y="1159" type="line"/>
      <point x="279" y="929" type="line"/>
      <point x="956" y="459" type="line"/>
      <point x="942" y="385" type="line"/>
      <point x="851" y="301" type="line"/>
      <point x="147" y="301" type="line"/>
    </contour>
  </outline>
</glyph>
<glyph name="Schwa.alt5" format="2">
  <advance width="1555"/>
  <outline>
    <contour>
      <point x="317" y="0" type="line"/>
      <point x="900" y="0" type="line"/>
      <point x="1428" y="528" type="line"/>
      <point x="1506" y="932" type="line"/>
      <point x="1170" y="1460" type="line"/>
      <point x="382" y="1460" type="line"/>
      <point x="293" y="1159" type="line"/>
      <point x="941" y="1159" type="line"/>
      <point x="1159" y="818" type="line"/>
      <point x="1125" y="642" type="line"/>
      <point x="789" y="301" type="line"/>
      <point x="496" y="301" type="line"/>
      <point x="358" y="461" type="line"/>
      <point x="379" y="569" type="line"/>
      <point x="575" y="712" type="line"/>
      <point x="1292" y="712" type="line"/>
      <point x="1338" y="949" type="line"/>
      <point x="501" y="949" type="line"/>
      <point x="134" y="700" type="line"/>
      <point x="57" y="301" type="line"/>
    </contour>
  </outline>
</glyph>
<glyph name="Tbar.alt1" format="2">
  <advance width="1555"/>
  <outline>
    <contour>
      <point x="329" y="592" type="line"/>
      <point x="1246" y="592" type="line"/>
      <point x="1299" y="863" type="line"/>
      <point x="382" y="863" type="line"/>
    </contour>
    <contour>
      <point x="510" y="0" type="line"/>
      <point x="840" y="0" type="line"/>
      <point x="1124" y="1460" type="line"/>
      <point x="794" y="1460" type="line"/>
    </contour>
    <contour>
      <point x="279" y="1189" type="line"/>
      <point x="1525" y="1189" type="line"/>
      <point x="1558" y="1460" type="line"/>
      <point x="352" y="1460" type="line"/>
    </contour>
  </outline>
</glyph>
<glyph name="Thorn.alt5" format="2">
  <advance width="1555"/>
  <outline>
    <contour>
      <point x="57" y="0" type="line"/>
      <point x="386" y="0" type="line"/>
      <point x="670" y="1460" type="line"/>
      <point x="341" y="1460" type="line"/>
    </contour>
    <contour>
      <point x="260" y="276" type="line"/>
      <point x="1047" y="276" type="line"/>
      <point x="1486" y="581" type="line"/>
      <point x="1554" y="932" type="line"/>
      <point x="1229" y="1254" type="line"/>
      <point x="450" y="1254" type="line"/>
      <point x="403" y="1012" type="line"/>
      <point x="1042" y="1012" type="line"/>
      <point x="1218" y="874" type="line"/>
      <point x="1184" y="699" type="line"/>
      <point x="945" y="517" type="line"/>
      <point x="306" y="517" type="line"/>
    </contour>
  </outline>
</glyph>
<glyph name="U.alt1" format="2">
  <advance width="1555"/>
  <outline>
    <contour>
      <point x="300" y="0" type="line"/>
      <point x="1054" y="0" type="line"/>
      <point x="1348" y="295" type="line"/>
      <point x="1575" y="1460" type="line"/>
      <point x="1240" y="1460" type="line"/>
      <point x="1033" y="396" type="line"/>
      <point x="909" y="271" type="line"/>
      <point x="541" y="271" type="line"/>
      <point x="465" y="396" type="line"/>
      <point x="672" y="1460" type="line"/>
      <point x="337" y="1460" type="line"/>
      <point x="112" y="305" type="line"/>
    </contour>
  </outline>
</glyph>
<glyph name="Ubreve.alt1" format="2">
  <advance width="1555"/>
  <outline>
    <contour>
      <point x="300" y="0" type="line"/>
      <point x="1054" y="0" type="line"/>
      <point x="1348" y="295" type="line"/>
      <point x="1575" y="1460" type="line"/>
      <point x="1240" y="1460" type="line"/>
      <point x="1033" y="396" type="line"/>
      <point x="909" y="271" type="line"/>
      <point x="541" y="271" type="line"/>
      <point x="465" y="396" type="line"/>
      <point x="672" y="1460" type="line"/>
      <point x="337" y="1460" type="line"/>
      <point x="112" y="305" type="line"/>
    </contour>
    <contour>
      <point x="788" y="1610" type="line"/>
      <point x="1182" y="1610" type="line"/>
      <point x="1417" y="1773" type="line"/>
      <point x="1443" y="1908" type="line"/>
      <point x="1245" y="1908" type="line"/>
      <point x="1232" y="1840" type="line"/>
      <point x="1134" y="1773" type="line"/>
      <point x="900" y="1773" type="line"/>
      <point x="828" y="1840" type="line"/>
      <point x="841" y="1908" type="line"/>
      <point x="643" y="1908" type="line"/>
      <point x="616" y="1772" type="line"/>
    </contour>
  </outline>
</glyph>
<glyph name="Udieresis.alt5" format="2">
  <advance width="1555"/>
  <outline>
    <contour>
      <point x="300" y="0" type="line"/>
      <point x="1054" y="0" type="line"/>
      <point x="1348" y="295" type="line"/>
      <point x="1575" y="1460" type="line"/>
      <point x="1240" y="1460" type="line"/>
      <point x="1033" y="396" type="line"/>
      <point x="909" y="271" type="line"/>
      <point x="541" y="271" type="line"/>
      <point x="465" y="396" type="line"/>
      <point x="672" y="1460" type="line"/>
      <point x="337" y="1460" type="line"/>
      <point x="112" y="305" type="line"/>
    </contour>
    <contour>
      <point x="656" y="1629" type="line"/>
      <point x="860" y="1797" type="line"/>
      <point x="722" y="1964" type="line"/>
      <point x="517" y="1797" type="line"/>
    </contour>
    <contour>
      <point x="1329" y="1629" type="line"/>
      <point x="1533" y="1797" type="line"/>
      <point x="1395" y="1964" type="line"/>
      <point x="1190" y="1797" type="line"/>
    </contour>
  </outline>
</glyph>
<glyph name="Uogonek.alt1" format="2">
  <advance width="1555"/>
  <outline>
    <contour>
      <point x="300" y="0" type="line"/>
      <point x="1054" y="0" type="line"/>
      <point x="1348" y="295" type="line"/>
      <point x="1575" y="1460" type="line"/>
      <point x="1240" y="1460" type="line"/>
      <point x="1033" y="396" type="line"/>
      <point x="909" y="271" type="line"/>
      <point x="541" y="271" type="line"/>
      <point x="465" y="396" type="line"/>
      <point x="672" y="1460" type="line"/>
      <point x="337" y="1460" type="line"/>
      <point x="112" y="305" type="line"/>
    </contour>
    <contour>
      <point x="411" y="-146" type="line"/>
      <point x="377" y="-320" type="line"/>
      <point x="561" y="-443" type="line"/>
      <point x="775" y="-443" type="line"/>
      <point x="814" y="-240" type="line"/>
      <point x="692" y="-240" type="line"/>
      <point x="646" y="-210" type="line"/>
      <point x="653" y="-173" type="line"/>
      <point x="880" y="0" type="line"/>
      <point x="772" y="44" type="line"/>
    </contour>
  </outline>
</glyph>
<glyph name="Utilde.alt5" format="2">
  <advance width="1555"/>
  <outline>
    <contour>
      <point x="300" y="0" type="line"/>
      <point x="1054" y="0" type="line"/>
      <point x="1348" y="295" type="line"/>
      <point x="1575" y="1460" type="line"/>
      <point x="1240" y="1460" type="line"/>
      <point x="1033" y="396" type="line"/>
      <point x="909" y="271" type="line"/>
      <point x="541" y="271" type="line"/>
      <point x="465" y="396" type="line"/>
      <point x="672" y="1460" type="line"/>
      <point x="337" y="1460" type="line"/>
      <point x="112" y="305" type="line"/>
    </contour>
    <contour>
      <point x="1028" y="1911" type="line"/>
      <point x="730" y="1911" type="line"/>
      <point x="548" y="1758" type="line"/>
      <point x="520" y="1615" type="line"/>
      <point x="723" y="1615" type="line"/>
      <point x="737" y="1686" type="line"/>
      <point x="811" y="1758" type="line"/>
      <point x="889" y="1758" type="line"/>
      <point x="1001" y="1615" type="line"/>
      <point x="1299" y="1615" type="line"/>
      <point x="1482" y="1768" type="line"/>
      <point x="1509" y="1911" type="line"/>
      <point x="1306" y="1911" type="line"/>
      <point x="1291" y="1830" type="line"/>
      <point x="1219" y="1768" type="line"/>
      <point x="1141" y="1768" type="line"/>
    </contour>
  </outline>
</glyph>
<glyph name="V.alt2" format="2">
  <advance width="1555"/>
  <outline>
    <contour>
      <point x="469" y="0" type="line"/>
      <point x="875" y="0" type="line"/>
      <point x="1424" y="707" type="line"/>
      <point x="1571" y="1460" type="line"/>
      <point x="1244" y="1460" type="line"/>
      <point x="1122" y="831" type="line"/>
      <point x="678" y="199" type="line"/>
      <point x="744" y="199" type="line"/>
      <point x="542" y="811" type="line"/>
      <point x="668" y="1460" type="line"/>
      <point x="341" y="1460" type="line"/>
      <point x="194" y="707" type="line"/>
    </contour>
  </outline>
</glyph>
<glyph name="Ycircumflex.alt1" format="2">
  <advance width="1555"/>
  <outline>
    <contour>
      <point x="609" y="507" type="line"/>
      <point x="935" y="507" type="line"/>
      <point x="1504" y="1044" type="line"/>
      <point x="1585" y="1460" type="line"/>
      <point x="1250" y="1460" type="line"/>
      <point x="1189" y="1146" type="line"/>
      <point x="779" y="756" type="line"/>
      <point x="851" y="756" type="line"/>
      <point x="592" y="1146" type="line"/>
      <point x="653" y="1460" type="line"/>
      <point x="328" y="1460" type="line"/>
      <point x="247" y="1044" type="line"/>
    </contour>
    <contour>
      <point x="508" y="0" type="line"/>
      <point x="837" y="0" type="line"/>
      <point x="964" y="651" type="line"/>
      <point x="635" y="651" type="line"/>
    </contour>
    <contour>
      <point x="507" y="1620" type="line"/>
      <point x="821" y="1620" type="line"/>
      <point x="1069" y="1866" type="line"/>
      <point x="1001" y="1866" type="line"/>
      <point x="1154" y="1620" type="line"/>
      <point x="1468" y="1620" type="line"/>
      <point x="1236" y="1908" type="line"/>
      <point x="850" y="1908" type="line"/>
    </contour>
  </outline>
</glyph>
<glyph name="Zdotaccent.alt5" format="2">
  <advance width="1555"/>
  <outline>
    <contour>
      <point x="110" y="0" type="line"/>
      <point x="1257" y="0" type="line"/>
      <point x="1369" y="266" type="line"/>
      <point x="375" y="266" type="line"/>
      <point x="423" y="160" type="line"/>
      <point x="1503" y="1245" type="line"/>
      <point x="1484" y="1460" type="line"/>
      <point x="399" y="1460" type="line"/>
      <point x="287" y="1196" type="line"/>
      <point x="1247" y="1196" type="line"/>
      <point x="1163" y="1291" type="line"/>
      <point x="94" y="226" type="line"/>
    </contour>
    <contour>
      <point x="1020" y="1629" type="line"/>
      <point x="1227" y="1797" type="line"/>
      <point x="1085" y="1964" type="line"/>
      <point x="877" y="1797" type="line"/>
    </contour>
  </outline>
</glyph>
<glyph name="acircumflex.alt1" format="2">
  <advance width="1555"/>
  <outline>
    <contour>
      <point x="1048" y="0" type="line"/>
      <point x="1293" y="0" type="line"/>
      <point x="1455" y="833" type="line"/>
      <point x="1251" y="1082" type="line"/>
      <point x="375" y="1082" type="line"/>
      <point x="296" y="829" type="line"/>
      <point x="1026" y="829" type="line"/>
      <point x="1117" y="764" type="line"/>
      <point x="1000" y="165" type="line"/>
    </contour>
    <contour>
      <point x="366" y="-22" type="line"/>
      <point x="1087" y="116" type="line"/>
      <point x="1122" y="297" type="line"/>
      <point x="527" y="211" type="line"/>
      <point x="366" y="331" type="line"/>
      <point x="375" y="375" type="line"/>
      <point x="561" y="453" type="line"/>
      <point x="1152" y="453" type="line"/>
      <point x="1189" y="643" type="line"/>
      <point x="468" y="643" type="line"/>
      <point x="96" y="459" type="line"/>
      <point x="46" y="202" type="line"/>
    </contour>
    <contour>
      <point x="415" y="1275" type="line"/>
      <point x="709" y="1275" type="line"/>
      <point x="1006" y="1571" type="line"/>
      <point x="938" y="1571" type="line"/>
      <point x="1122" y="1275" type="line"/>
      <point x="1416" y="1275" type="line"/>
      <point x="1179" y="1643" type="line"/>
      <point x="793" y="1643" type="line"/>
    </contour>
  </outline>
</glyph>
<glyph name="acutecomb.alt5" format="2">
  <outline>
    <contour>
      <point x="1088" y="1275" type="line"/>
      <point x="809" y="1275" type="line"/>
      <point x="1097" y="1643" type="line"/>
      <point x="1450" y="1643" type="line"/>
    </contour>
  </outline>
</glyph>
<glyph name="ae.alt1" format="2">
  <advance width="1555"/>
  <outline>
    <contour>
      <point x="816" y="1082" type="line"/>
      <point x="294" y="1082" type="line"/>
      <point x="221" y="859" type="line"/>
      <point x="656" y="859" type="line"/>
      <point x="694" y="764" type="line"/>
      <point x="680" y="693" type="line"/>
      <point x="898" y="693" type="line"/>
      <point x="925" y="833" type="line"/>
    </contour>
    <contour>
      <point x="371" y="643" type="line"/>
      <point x="84" y="477" type="line"/>
      <point x="29" y="193" type="line"/>
      <point x="264" y="-10" type="line"/>
      <point x="637" y="122" type="line"/>
      <point x="752" y="122" type="line"/>
      <point x="787" y="302" type="line"/>
      <point x="691" y="302" type="line"/>
      <point x="391" y="211" type="line"/>
      <point x="273" y="294" type="line"/>
      <point x="292" y="393" type="line"/>
      <point x="404" y="453" type="line"/>
      <point x="730" y="453" type="line"/>
      <point x="767" y="643" type="line"/>
    </contour>
    <contour>
      <point x="1014" y="1082" type="line"/>
      <point x="685" y="722" type="line"/>
      <point x="587" y="218" type="line"/>
      <point x="824" y="0" type="line"/>
      <point x="1283" y="0" type="line"/>
      <point x="1356" y="221" type="line"/>
      <point x="957" y="221" type="line"/>
      <point x="831" y="343" type="line"/>
      <point x="892" y="659" type="line"/>
      <point x="1069" y="851" type="line"/>
      <point x="1258" y="851" type="line"/>
      <point x="1307" y="813" type="line"/>
      <point x="1284" y="697" type="line"/>
      <point x="1214" y="643" type="line"/>
      <point x="849" y="643" type="line"/>
      <point x="812" y="453" type="line"/>
      <point x="1302" y="453" type="line"/>
      <point x="1465" y="569" type="line"/>
      <point x="1533" y="921" type="line"/>
      <point x="1350" y="1082" type="line"/>
    </contour>
  </outline>
</glyph>
<glyph name="amacron.alt5" format="2">
  <advance width="1555"/>
  <outline>
    <contour>
      <point x="1048" y="0" type="line"/>
      <point x="1293" y="0" type="line"/>
      <point x="1455" y="833" type="line"/>
      <point x="1251" y="1082" type="line"/>
      <point x="375" y="1082" type="line"/>
      <point x="296" y="829" type="line"/>
      <point x="1026" y="829" type="line"/>
      <point x="1117" y="764" type="line"/>
      <point x="1000" y="165" type="line"/>
    </contour>
    <contour>
      <point x="366" y="-22" type="line"/>
      <point x="1087" y="116" type="line"/>
      <point x="1122" y="297" type="line"/>
      <point x="527" y="211" type="line"/>
      <point x="366" y="331" type="line"/>
      <point x="375" y="375" type="line"/>
      <point x="561" y="453" type="line"/>
      <point x="1152" y="453" type="line"/>
      <point x="1189" y="643" type="line"/>
      <point x="468" y="643" type="line"/>
      <point x="96" y="459" type="line"/>
      <point x="46" y="202" type="line"/>
    </contour>
    <contour>
      <point x="490" y="1299" type="line"/>
      <point x="1351" y="1299" type="line"/>
      <point x="1388" y="1492" type="line"/>
      <point x="527" y="1492" type="line"/>
    </contour>
  </outline>
</glyph>
<glyph name="angle.alt5" format="2">
  <advance width="1555"/>
  <outline>
    <contour>
      <point x="1150" y="0" type="line"/>
      <point x="1203" y="271" type="line"/>
      <point x="619" y="271" type="line"/>
      <point x="613" y="285" type="line"/>
      <point x="1143" y="957" type="line"/>
      <point x="916" y="1094" type="line"/>
      <point x="136" y="99" type="line"/>
      <point x="158" y="0" type="line"/>
    </contour>
  </outline>
</glyph>
<glyph name="aogonek.alt5" format="2">
  <advance width="1555"/>
  <outline>
    <contour>
      <point x="1048" y="0" type="line"/>
      <point x="1293" y="0" type="line"/>
      <point x="1455" y="833" type="line"/>
      <point x="1251" y="1082" type="line"/>
      <point x="375" y="1082" type="line"/>
      <point x="296" y="829" type="line"/>
      <point x="1026" y="829" type="line"/>
      <point x="1117" y="764" type="line"/>
      <point x="1000" y="165" type="line"/>
    </contour>
    <contour>
      <point x="366" y="-22" type="line"/>
      <point x="1087" y="116" type="line"/>
      <point x="1122" y="297" type="line"/>
      <point x="527" y="211" type="line"/>
      <point x="366" y="331" type="line"/>
      <point x="375" y="375" type="line"/>
      <point x="561" y="453" type="line"/>
      <point x="1152" y="453" type="line"/>
      <point x="1189" y="643" type="line"/>
      <point x="468" y="643" type="line"/>
      <point x="96" y="459" type="line"/>
      <point x="46" y="202" type="line"/>
    </contour>
    <contour>
      <point x="824" y="-146" type="line"/>
      <point x="790" y="-320" type="line"/>
      <point x="974" y="-443" type="line"/>
      <point x="1188" y="-443" type="line"/>
      <point x="1227" y="-240" type="line"/>
      <point x="1105" y="-240" type="line"/>
      <point x="1059" y="-210" type="line"/>
      <point x="1066" y="-173" type="line"/>
      <point x="1293" y="0" type="line"/>
      <point x="1185" y="44" type="line"/>
    </contour>
  </outline>
</glyph>
<glyph name="asciitilde.alt1" format="2">
  <advance width="1555"/>
  <outline>
    <contour>
      <point x="1006" y="415" type="curve" smooth="yes"/>
      <point x="1172" y="415"/>
      <point x="1328" y="526"/>
      <point x="1420" y="876" type="curve"/>
      <point x="1186" y="911" type="line"/>
      <point x="1139" y="765"/>
      <point x="1096" y="703"/>
      <point x="1017" y="703" type="curve" smooth="yes"/>
      <point x="866" y="703"/>
      <point x="838" y="931"/>
      <point x="600" y="931" type="curve" smooth="yes"/>
      <point x="433" y="931"/>
      <point x="278" y="818"/>
      <point x="186" y="470" type="curve"/>
      <point x="421" y="435" type="line"/>
      <point x="468" y="581"/>
      <point x="511" y="643"/>
      <point x="590" y="643" type="curve" smooth="yes"/>
      <point x="741" y="643"/>
      <point x="769" y="415"/>
    </contour>
  </outline>
</glyph>
<glyph name="at.alt1" format="2">
  <advance width="1555"/>
  <outline>
    <contour>
      <point x="1116" y="178" type="line"/>
      <point x="1129" y="178" type="line"/>
      <point x="1090" y="44"/>
      <point x="1137" y="-24"/>
      <point x="1246" y="-24" type="curve" smooth="yes"/>
      <point x="1286" y="-24"/>
      <point x="1329" y="-15"/>
      <point x="1372" y="6" type="curve"/>
      <point x="1416" y="229" type="line"/>
      <point x="1356" y="223"/>
      <point x="1337" y="232"/>
      <point x="1350" y="297" type="curve" smooth="yes"/>
      <point x="1444" y="781" type="line" smooth="yes"/>
      <point x="1536" y="1255"/>
      <point x="1430" y="1484"/>
      <point x="994" y="1484" type="curve" smooth="yes"/>
      <point x="557" y="1484"/>
      <point x="304" y="1266"/>
      <point x="190" y="680" type="curve" smooth="yes"/>
      <point x="138" y="411" type="line" smooth="yes"/>
      <point x="20" y="-196"/>
      <point x="262" y="-384"/>
      <point x="699" y="-384" type="curve" smooth="yes"/>
      <point x="896" y="-384"/>
      <point x="1059" y="-361"/>
      <point x="1212" y="-316" type="curve"/>
      <point x="1248" y="-127" type="line"/>
      <point x="1125" y="-162"/>
      <point x="953" y="-199"/>
      <point x="744" y="-199" type="curve" smooth="yes"/>
      <point x="424" y="-199"/>
      <point x="236" y="-93"/>
      <point x="334" y="413" type="curve" smooth="yes"/>
      <point x="386" y="680" type="line" smooth="yes"/>
      <point x="477" y="1149"/>
      <point x="685" y="1295"/>
      <point x="968" y="1295" type="curve" smooth="yes"/>
      <point x="1238" y="1295"/>
      <point x="1307" y="1164"/>
      <point x="1254" y="888" type="curve" smooth="yes"/>
    </contour>
    <contour>
      <point x="600" y="486" type="line" smooth="yes"/>
      <point x="531" y="129"/>
      <point x="619" y="-26"/>
      <point x="806" y="-26" type="curve" smooth="yes"/>
      <point x="920" y="-26"/>
      <point x="1010" y="27"/>
      <point x="1081" y="108" type="curve"/>
      <point x="1124" y="108" type="line"/>
      <point x="1157" y="280" type="line"/>
      <point x="1092" y="193"/>
      <point x="997" y="171"/>
      <point x="940" y="171" type="curve" smooth="yes"/>
      <point x="837" y="171"/>
      <point x="771" y="244"/>
      <point x="823" y="508" type="curve" smooth="yes"/>
      <point x="843" y="614" type="line" smooth="yes"/>
      <point x="889" y="851"/>
      <point x="983" y="908"/>
      <point x="1080" y="908" type="curve" smooth="yes"/>
      <point x="1137" y="908"/>
      <point x="1224" y="888"/>
      <point x="1262" y="820" type="curve"/>
      <point x="1294" y="984" type="line"/>
      <point x="1252" y="984" type="line"/>
      <point x="1204" y="1063"/>
      <point x="1124" y="1104"/>
      <point x="1026" y="1104" type="curve" smooth="yes"/>
      <point x="854" y="1104"/>
      <point x="698" y="988"/>
      <point x="632" y="646" type="curve" smooth="yes"/>
    </contour>
  </outline>
</glyph>
<glyph name="atilde.alt5" format="2">
  <advance width="1555"/>
  <outline>
    <contour>
      <point x="1048" y="0" type="line"/>
      <point x="1293" y="0" type="line"/>
      <point x="1455" y="833" type="line"/>
      <point x="1251" y="1082" type="line"/>
      <point x="375" y="1082" type="line"/>
      <point x="296" y="829" type="line"/>
      <point x="1026" y="829" type="line"/>
      <point x="1117" y="764" type="line"/>
      <point x="1000" y="165" type="line"/>
    </contour>
    <contour>
      <point x="366" y="-22" type="line"/>
      <point x="1087" y="116" type="line"/>
      <point x="1122" y="297" type="line"/>
      <point x="527" y="211" type="line"/>
      <point x="366" y="331" type="line"/>
      <point x="375" y="375" type="line"/>
      <point x="561" y="453" type="line"/>
      <point x="1152" y="453" type="line"/>
      <point x="1189" y="643" type="line"/>
      <point x="468" y="643" type="line"/>
      <point x="96" y="459" type="line"/>
      <point x="46" y="202" type="line"/>
    </contour>
    <contour>
      <point x="953" y="1613" type="line"/>
      <point x="639" y="1613" type="line"/>
      <point x="450" y="1430" type="line"/>
      <point x="416" y="1257" type="line"/>
      <point x="619" y="1257" type="line"/>
      <point x="639" y="1358" type="line"/>
      <point x="727" y="1450" type="line"/>
      <point x="809" y="1450" type="line"/>
      <point x="941" y="1257" type="line"/>
      <point x="1255" y="1257" type="line"/>
      <point x="1444" y="1440" type="line"/>
      <point x="1478" y="1613" type="line"/>
      <point x="1275" y="1613" type="line"/>
      <point x="1253" y="1502" type="line"/>
      <point x="1167" y="1420" type="line"/>
      <point x="1085" y="1420" type="line"/>
    </contour>
  </outline>
</glyph>
<glyph name="b.alt3" format="2">
  <advance width="1555"/>
  <outline>
    <contour>
      <point x="17" y="0" type="line"/>
      <point x="332" y="0" type="line"/>
      <point x="503" y="882" type="line"/>
      <point x="530" y="942" type="line"/>
      <point x="644" y="1530" type="line"/>
      <point x="303" y="1470" type="line"/>
    </contour>
    <contour>
      <point x="199" y="0" type="line"/>
      <point x="869" y="0" type="line"/>
      <point x="1408" y="343" type="line"/>
      <point x="1492" y="775" type="line"/>
      <point x="1114" y="1106" type="line"/>
      <point x="379" y="928" type="line"/>
      <point x="341" y="729" type="line"/>
      <point x="978" y="805" type="line"/>
      <point x="1147" y="691" type="line"/>
      <point x="1101" y="454" type="line"/>
      <point x="781" y="263" type="line"/>
      <point x="250" y="263" type="line"/>
    </contour>
  </outline>
</glyph>
<glyph name="b.alt5" format="2">
  <advance width="1555"/>
  <outline>
    <contour>
      <point x="17" y="0" type="line"/>
      <point x="332" y="0" type="line"/>
      <point x="503" y="882" type="line"/>
      <point x="530" y="942" type="line"/>
      <point x="644" y="1530" type="line"/>
      <point x="303" y="1470" type="line"/>
    </contour>
    <contour>
      <point x="199" y="0" type="line"/>
      <point x="869" y="0" type="line"/>
      <point x="1408" y="343" type="line"/>
      <point x="1492" y="775" type="line"/>
      <point x="1114" y="1106" type="line"/>
      <point x="379" y="928" type="line"/>
      <point x="341" y="729" type="line"/>
      <point x="978" y="805" type="line"/>
      <point x="1147" y="691" type="line"/>
      <point x="1101" y="454" type="line"/>
      <point x="781" y="263" type="line"/>
      <point x="250" y="263" type="line"/>
    </contour>
  </outline>
</glyph>
<glyph name="backslash.alt5" format="2">
  <advance width="1555"/>
  <outline>
    <contour>
      <point x="912" y="-200" type="line"/>
      <point x="1271" y="-200" type="line"/>
      <point x="778" y="1460" type="line"/>
      <point x="419" y="1460" type="line"/>
    </contour>
  </outline>
</glyph>
<glyph name="bitcoin.alt1" format="2">
  <advance width="1555"/>
  <outline>
    <contour>
      <point x="1035" y="1366" type="line"/>
      <point x="1295" y="1366" type="line"/>
      <point x="1370" y="1755" type="line"/>
      <point x="1110" y="1755" type="line"/>
    </contour>
    <contour>
      <point x="528" y="1366" type="line"/>
      <point x="788" y="1366" type="line"/>
      <point x="863" y="1755" type="line"/>
      <point x="603" y="1755" type="line"/>
    </contour>
    <contour>
      <point x="729" y="-295" type="line"/>
      <point x="989" y="-295" type="line"/>
      <point x="1075" y="147" type="line"/>
      <point x="815" y="147" type="line"/>
    </contour>
    <contour>
      <point x="222" y="-295" type="line"/>
      <point x="482" y="-295" type="line"/>
      <point x="568" y="147" type="line"/>
      <point x="308" y="147" type="line"/>
    </contour>
    <contour>
      <point x="400" y="0" type="line"/>
      <point x="684" y="1460" type="line"/>
      <point x="347" y="1460" type="line"/>
      <point x="63" y="0" type="line"/>
    </contour>
    <contour>
      <point x="1022" y="1460" type="curve"/>
      <point x="572" y="1460" type="line"/>
      <point x="527" y="1230" type="line"/>
      <point x="904" y="1230" type="line" smooth="yes"/>
      <point x="1122" y="1230"/>
      <point x="1208" y="1187"/>
      <point x="1182" y="1055" type="curve" smooth="yes"/>
      <point x="1159" y="936"/>
      <point x="1047" y="858"/>
      <point x="822" y="858" type="curve"/>
      <point x="378" y="858" type="line"/>
      <point x="335" y="639" type="line"/>
      <point x="789" y="639" type="line"/>
      <point x="1036" y="639"/>
      <point x="1148" y="600"/>
      <point x="1118" y="449" type="curve" smooth="yes"/>
      <point x="1085" y="277"/>
      <point x="939" y="230"/>
      <point x="710" y="230" type="curve" smooth="yes"/>
      <point x="327" y="230" type="line"/>
      <point x="282" y="0" type="line"/>
      <point x="754" y="0" type="line" smooth="yes"/>
      <point x="1112" y="0"/>
      <point x="1393" y="153"/>
      <point x="1447" y="430" type="curve" smooth="yes"/>
      <point x="1496" y="682"/>
      <point x="1302" y="762"/>
      <point x="1102" y="766" type="curve"/>
      <point x="1104" y="776" type="line"/>
      <point x="1277" y="793"/>
      <point x="1472" y="906"/>
      <point x="1518" y="1140" type="curve" smooth="yes"/>
      <point x="1570" y="1412"/>
      <point x="1353" y="1462"/>
    </contour>
  </outline>
</glyph>
<glyph name="bowl.alt1" format="2">
  <advance width="1555"/>
  <outline>
    <contour>
      <point x="205" y="0" type="line"/>
      <point x="875" y="0" type="line"/>
      <point x="1414" y="343" type="line"/>
      <point x="1498" y="775" type="line"/>
      <point x="1120" y="1106" type="line"/>
      <point x="385" y="928" type="line"/>
      <point x="347" y="729" type="line"/>
      <point x="984" y="805" type="line"/>
      <point x="1153" y="691" type="line"/>
      <point x="1107" y="454" type="line"/>
      <point x="787" y="263" type="line"/>
      <point x="256" y="263" type="line"/>
    </contour>
  </outline>
</glyph>
<glyph name="braceright.alt1" format="2">
  <advance width="1555"/>
  <outline>
    <contour>
      <point x="1121" y="587" type="curve"/>
      <point x="1127" y="616" type="line"/>
      <point x="704" y="617"/>
      <point x="529" y="439"/>
      <point x="518" y="176" type="curve" smooth="yes"/>
      <point x="516" y="123" type="line" smooth="yes"/>
      <point x="507" y="-87"/>
      <point x="443" y="-160"/>
      <point x="266" y="-160" type="curve" smooth="yes"/>
      <point x="54" y="-160" type="line"/>
      <point x="7" y="-400" type="line"/>
      <point x="371" y="-400" type="line" smooth="yes"/>
      <point x="677" y="-400"/>
      <point x="828" y="-249"/>
      <point x="823" y="30" type="curve" smooth="yes"/>
      <point x="822" y="91" type="line" smooth="yes"/>
      <point x="817" y="341"/>
      <point x="929" y="446"/>
      <point x="1348" y="454" type="curve"/>
      <point x="1405" y="748" type="line"/>
      <point x="989" y="755"/>
      <point x="919" y="861"/>
      <point x="1020" y="1111" type="curve" smooth="yes"/>
      <point x="1045" y="1173" type="line" smooth="yes"/>
      <point x="1157" y="1452"/>
      <point x="1067" y="1603"/>
      <point x="761" y="1603" type="curve" smooth="yes"/>
      <point x="397" y="1603" type="line"/>
      <point x="350" y="1363" type="line"/>
      <point x="562" y="1363" type="line" smooth="yes"/>
      <point x="739" y="1363"/>
      <point x="775" y="1290"/>
      <point x="702" y="1080" type="curve" smooth="yes"/>
      <point x="684" y="1028" type="line" smooth="yes"/>
      <point x="592" y="764"/>
      <point x="698" y="586"/>
    </contour>
  </outline>
</glyph>
<glyph name="bracketleft.alt5" format="2">
  <advance width="1555"/>
  <outline>
    <contour>
      <point x="241" y="-400" type="line"/>
      <point x="1108" y="-400" type="line"/>
      <point x="1155" y="-160" type="line"/>
      <point x="553" y="-160" type="line"/>
      <point x="589" y="-205" type="line"/>
      <point x="902" y="1407" type="line"/>
      <point x="849" y="1362" type="line"/>
      <point x="1451" y="1362" type="line"/>
      <point x="1497" y="1602" type="line"/>
      <point x="630" y="1602" type="line"/>
    </contour>
  </outline>
</glyph>
<glyph name="brevecomb.case" format="2">
  <outline>
    <contour>
      <point x="789" y="1610" type="line"/>
      <point x="1183" y="1610" type="line"/>
      <point x="1418" y="1773" type="line"/>
      <point x="1444" y="1908" type="line"/>
      <point x="1246" y="1908" type="line"/>
      <point x="1233" y="1840" type="line"/>
      <point x="1135" y="1773" type="line"/>
      <point x="901" y="1773" type="line"/>
      <point x="829" y="1840" type="line"/>
      <point x="842" y="1908" type="line"/>
      <point x="644" y="1908" type="line"/>
      <point x="617" y="1772" type="line"/>
    </contour>
  </outline>
</glyph>
<glyph name="brokenbar.alt5" format="2">
  <advance width="1555"/>
  <outline>
    <contour>
      <point x="979" y="733" type="line"/>
      <point x="1148" y="1602" type="line"/>
      <point x="818" y="1602" type="line"/>
      <point x="649" y="733" type="line"/>
    </contour>
    <contour>
      <point x="759" y="-400" type="line"/>
      <point x="928" y="469" type="line"/>
      <point x="598" y="469" type="line"/>
      <point x="429" y="-400" type="line"/>
    </contour>
  </outline>
</glyph>
<glyph name="c.alt4" format="2">
  <advance width="1555"/>
  <outline>
    <contour>
      <point x="433" y="0" type="line"/>
      <point x="1268" y="0" type="line"/>
      <point x="1373" y="281" type="line"/>
      <point x="608" y="281" type="line"/>
      <point x="395" y="470" type="line"/>
      <point x="423" y="612" type="line"/>
      <point x="719" y="801" type="line"/>
      <point x="1474" y="801" type="line"/>
      <point x="1478" y="1082" type="line"/>
      <point x="643" y="1082" type="line"/>
      <point x="136" y="705" type="line"/>
      <point x="72" y="378" type="line"/>
    </contour>
  </outline>
</glyph>
<glyph name="caroncomb.case" format="2">
  <outline>
    <contour>
      <point x="563" y="1908" type="line"/>
      <point x="877" y="1908" type="line"/>
      <point x="1029" y="1662" type="line"/>
      <point x="961" y="1662" type="line"/>
      <point x="1210" y="1908" type="line"/>
      <point x="1524" y="1908" type="line"/>
      <point x="1180" y="1620" type="line"/>
      <point x="794" y="1620" type="line"/>
    </contour>
  </outline>
</glyph>
<glyph name="ccircumflex.alt5" format="2">
  <advance width="1555"/>
  <outline>
    <contour>
      <point x="433" y="0" type="line"/>
      <point x="1268" y="0" type="line"/>
      <point x="1373" y="281" type="line"/>
      <point x="608" y="281" type="line"/>
      <point x="395" y="470" type="line"/>
      <point x="423" y="612" type="line"/>
      <point x="719" y="801" type="line"/>
      <point x="1474" y="801" type="line"/>
      <point x="1478" y="1082" type="line"/>
      <point x="643" y="1082" type="line"/>
      <point x="136" y="705" type="line"/>
      <point x="72" y="378" type="line"/>
    </contour>
    <contour>
      <point x="454" y="1275" type="line"/>
      <point x="748" y="1275" type="line"/>
      <point x="1045" y="1571" type="line"/>
      <point x="977" y="1571" type="line"/>
      <point x="1161" y="1275" type="line"/>
      <point x="1455" y="1275" type="line"/>
      <point x="1218" y="1643" type="line"/>
      <point x="832" y="1643" type="line"/>
    </contour>
  </outline>
</glyph>
<glyph name="cent.alt5" format="2">
  <advance width="1555"/>
  <outline>
    <contour>
      <point x="561" y="313" type="line"/>
      <point x="434" y="-114" type="line"/>
      <point x="672" y="-114" type="line"/>
      <point x="799" y="313" type="line"/>
    </contour>
    <contour>
      <point x="1046" y="545" type="line"/>
      <point x="995" y="436"/>
      <point x="891" y="393"/>
      <point x="756" y="393" type="curve" smooth="yes"/>
      <point x="578" y="393"/>
      <point x="481" y="470"/>
      <point x="521" y="674" type="curve" smooth="yes"/>
      <point x="561" y="879"/>
      <point x="687" y="953"/>
      <point x="869" y="953" type="curve" smooth="yes"/>
      <point x="1002" y="953"/>
      <point x="1089" y="914"/>
      <point x="1095" y="809" type="curve"/>
      <point x="1422" y="838" type="line"/>
      <point x="1407" y="1064"/>
      <point x="1202" y="1177"/>
      <point x="903" y="1177" type="curve" smooth="yes"/>
      <point x="541" y="1177"/>
      <point x="274" y="1019"/>
      <point x="209" y="684" type="curve" smooth="yes"/>
      <point x="144" y="350"/>
      <point x="355" y="169"/>
      <point x="713" y="169" type="curve" smooth="yes"/>
      <point x="1006" y="169"/>
      <point x="1255" y="284"/>
      <point x="1358" y="510" type="curve"/>
    </contour>
    <contour>
      <point x="1037" y="1040" type="line"/>
      <point x="1171" y="1460" type="line"/>
      <point x="934" y="1460" type="line"/>
      <point x="800" y="1040" type="line"/>
    </contour>
    <contour>
      <point x="770" y="254" type="line"/>
      <point x="1041" y="1100" type="line"/>
      <point x="829" y="1100" type="line"/>
      <point x="557" y="254" type="line"/>
    </contour>
  </outline>
</glyph>
<glyph name="circumflexcomb.alt1" format="2">
  <outline>
    <contour>
      <point x="420" y="1275" type="line"/>
      <point x="714" y="1275" type="line"/>
      <point x="1011" y="1571" type="line"/>
      <point x="943" y="1571" type="line"/>
      <point x="1127" y="1275" type="line"/>
      <point x="1421" y="1275" type="line"/>
      <point x="1184" y="1643" type="line"/>
      <point x="798" y="1643" type="line"/>
    </contour>
  </outline>
</glyph>
<glyph name="circumflexcomb.case" format="2">
  <outline>
    <contour>
      <point x="507" y="1620" type="line"/>
      <point x="821" y="1620" type="line"/>
      <point x="1069" y="1866" type="line"/>
      <point x="1001" y="1866" type="line"/>
      <point x="1154" y="1620" type="line"/>
      <point x="1468" y="1620" type="line"/>
      <point x="1236" y="1908" type="line"/>
      <point x="850" y="1908" type="line"/>
    </contour>
  </outline>
</glyph>
<glyph name="colon.alt5" format="2">
  <advance width="1555"/>
  <outline>
    <contour>
      <point x="681" y="-30" type="curve" smooth="yes"/>
      <point x="810" y="-30"/>
      <point x="927" y="52"/>
      <point x="955" y="195" type="curve" smooth="yes"/>
      <point x="983" y="339"/>
      <point x="888" y="430"/>
      <point x="759" y="430" type="curve" smooth="yes"/>
      <point x="628" y="430"/>
      <point x="510" y="351"/>
      <point x="482" y="207" type="curve" smooth="yes"/>
      <point x="454" y="64"/>
      <point x="550" y="-30"/>
    </contour>
    <contour>
      <point x="830" y="737" type="curve" smooth="yes"/>
      <point x="959" y="737"/>
      <point x="1076" y="819"/>
      <point x="1104" y="962" type="curve" smooth="yes"/>
      <point x="1132" y="1106"/>
      <point x="1037" y="1197"/>
      <point x="908" y="1197" type="curve" smooth="yes"/>
      <point x="777" y="1197"/>
      <point x="659" y="1118"/>
      <point x="631" y="974" type="curve" smooth="yes"/>
      <point x="604" y="831"/>
      <point x="699" y="737"/>
    </contour>
  </outline>
</glyph>
